<?xml version="1.0" standalone="no"?>
<!DOCTYPE svg PUBLIC "-//W3C//DTD SVG 1.1//EN" 
  "http://www.w3.org/Graphics/SVG/1.1/DTD/svg11.dtd">
<svg width="1024" height="1024" viewBox="0 0 1024 1024"
     xmlns="http://www.w3.org/2000/svg" version="1.1">
<desc>'streetlight.blend', Circle, (Blender 2.71 (sub 0))</desc>
<polygon stroke="black" stroke-width="1" fill="grey" fill-opacity="0.25" points="281.428,925.687 939.529,925.687 939.529,267.585 281.428,267.585 " />
<polygon stroke="black" stroke-width="1" fill="grey" fill-opacity="0.25" points="281.428,925.687 939.529,925.687 939.529,267.585 281.428,267.585 " />
<polygon stroke="black" stroke-width="1" fill="grey" fill-opacity="0.25" points="281.428,925.687 939.529,925.687 939.529,267.585 281.428,267.585 " />
<polygon stroke="black" stroke-width="1" fill="grey" fill-opacity="0.25" points="281.428,925.687 939.529,925.687 939.529,267.585 281.428,267.585 " />
<polygon stroke="black" stroke-width="1" fill="grey" fill-opacity="0.25" points="281.428,925.687 939.529,925.687 939.529,267.585 281.428,267.585 " />
<polygon stroke="black" stroke-width="1" fill="grey" fill-opacity="0.25" points="281.428,925.687 939.529,925.687 939.529,267.585 281.428,267.585 " />
<polygon stroke="black" stroke-width="1" fill="grey" fill-opacity="0.25" points="281.428,925.687 939.529,925.687 939.529,267.585 281.428,267.585 " />
<polygon stroke="black" stroke-width="1" fill="grey" fill-opacity="0.25" points="281.428,925.687 939.529,925.687 939.529,267.585 281.428,267.585 " />
<polygon stroke="black" stroke-width="1" fill="grey" fill-opacity="0.25" points="281.428,925.687 939.529,925.687 939.529,267.585 281.428,267.585 " />
<polygon stroke="black" stroke-width="1" fill="grey" fill-opacity="0.25" points="281.428,925.687 939.529,925.687 939.529,267.585 281.428,267.585 " />
<polygon stroke="black" stroke-width="1" fill="grey" fill-opacity="0.25" points="281.428,925.687 939.529,925.687 939.529,267.585 281.428,267.585 " />
<polygon stroke="black" stroke-width="1" fill="grey" fill-opacity="0.25" points="281.428,925.687 939.529,925.687 939.529,267.585 281.428,267.585 " />
<polygon stroke="black" stroke-width="1" fill="grey" fill-opacity="0.25" points="281.428,925.687 939.529,925.687 939.529,267.585 281.428,267.585 " />
<polygon stroke="black" stroke-width="1" fill="grey" fill-opacity="0.25" points="281.428,925.687 939.529,925.687 939.529,267.585 281.428,267.585 " />
<polygon stroke="black" stroke-width="1" fill="grey" fill-opacity="0.25" points="281.428,925.687 939.529,925.687 939.529,267.585 281.428,267.585 " />
<polygon stroke="black" stroke-width="1" fill="grey" fill-opacity="0.25" points="281.428,925.687 939.529,925.687 939.529,267.585 281.428,267.585 " />
<polygon stroke="black" stroke-width="1" fill="grey" fill-opacity="0.25" points="281.428,925.687 939.529,925.687 939.529,267.585 281.428,267.585 " />
<polygon stroke="black" stroke-width="1" fill="grey" fill-opacity="0.25" points="281.428,925.687 939.529,925.687 939.529,267.585 281.428,267.585 " />
<polygon stroke="black" stroke-width="1" fill="grey" fill-opacity="0.25" points="281.428,925.687 939.529,925.687 939.529,267.585 281.428,267.585 " />
<polygon stroke="black" stroke-width="1" fill="grey" fill-opacity="0.25" points="281.428,925.687 939.529,925.687 939.529,267.585 281.428,267.585 " />
<polygon stroke="black" stroke-width="1" fill="grey" fill-opacity="0.25" points="281.428,925.687 939.529,925.687 939.529,267.585 281.428,267.585 " />
<polygon stroke="black" stroke-width="1" fill="grey" fill-opacity="0.25" points="281.428,925.687 939.529,925.687 939.529,267.585 281.428,267.585 " />
<polygon stroke="black" stroke-width="1" fill="grey" fill-opacity="0.25" points="281.428,925.687 939.529,925.687 939.529,267.585 281.428,267.585 " />
<polygon stroke="black" stroke-width="1" fill="grey" fill-opacity="0.25" points="281.428,925.687 939.529,925.687 939.529,267.585 281.428,267.585 " />
<polygon stroke="black" stroke-width="1" fill="grey" fill-opacity="0.25" points="71.712,958.455 205.842,958.455 205.842,40.146 71.712,40.146 " />
<polygon stroke="black" stroke-width="1" fill="grey" fill-opacity="0.25" points="71.712,958.455 205.842,958.455 205.842,40.146 71.712,40.146 " />
<polygon stroke="black" stroke-width="1" fill="grey" fill-opacity="0.25" points="71.712,958.455 205.842,958.455 205.842,40.146 71.712,40.146 " />
<polygon stroke="black" stroke-width="1" fill="grey" fill-opacity="0.25" points="71.712,958.455 205.842,958.455 205.842,40.146 71.712,40.146 " />
<polygon stroke="black" stroke-width="1" fill="grey" fill-opacity="0.25" points="71.712,958.455 205.842,958.455 205.842,40.146 71.712,40.146 " />
<polygon stroke="black" stroke-width="1" fill="grey" fill-opacity="0.25" points="71.712,958.455 205.842,958.455 205.842,40.146 71.712,40.146 " />
<polygon stroke="black" stroke-width="1" fill="grey" fill-opacity="0.25" points="71.712,958.455 205.842,958.455 205.842,40.146 71.712,40.146 " />
<polygon stroke="black" stroke-width="1" fill="grey" fill-opacity="0.25" points="71.712,958.455 205.842,958.455 205.842,40.146 71.712,40.146 " />
<polygon stroke="black" stroke-width="1" fill="grey" fill-opacity="0.25" points="281.428,925.687 939.529,925.687 939.529,267.585 281.428,267.585 " />
<polygon stroke="black" stroke-width="1" fill="grey" fill-opacity="0.25" points="281.428,925.687 939.529,925.687 939.529,267.585 281.428,267.585 " />
<polygon stroke="black" stroke-width="1" fill="grey" fill-opacity="0.25" points="281.428,925.687 939.529,925.687 939.529,267.585 281.428,267.585 " />
<polygon stroke="black" stroke-width="1" fill="grey" fill-opacity="0.25" points="281.428,925.687 939.529,925.687 939.529,267.585 281.428,267.585 " />
<polygon stroke="black" stroke-width="1" fill="grey" fill-opacity="0.25" points="281.428,925.687 939.529,925.687 939.529,267.585 281.428,267.585 " />
<polygon stroke="black" stroke-width="1" fill="grey" fill-opacity="0.25" points="281.428,925.687 939.529,925.687 939.529,267.585 281.428,267.585 " />
<polygon stroke="black" stroke-width="1" fill="grey" fill-opacity="0.25" points="281.428,925.687 939.529,925.687 939.529,267.585 281.428,267.585 " />
<polygon stroke="black" stroke-width="1" fill="grey" fill-opacity="0.25" points="281.428,925.687 939.529,925.687 939.529,267.585 281.428,267.585 " />
<polygon stroke="black" stroke-width="1" fill="grey" fill-opacity="0.25" points="281.428,925.687 939.529,925.687 939.529,267.585 281.428,267.585 " />
<polygon stroke="black" stroke-width="1" fill="grey" fill-opacity="0.25" points="281.428,925.687 939.529,925.687 939.529,267.585 281.428,267.585 " />
<polygon stroke="black" stroke-width="1" fill="grey" fill-opacity="0.25" points="281.428,925.687 939.529,925.687 939.529,267.585 281.428,267.585 " />
<polygon stroke="black" stroke-width="1" fill="grey" fill-opacity="0.25" points="281.428,925.687 939.529,925.687 939.529,267.585 281.428,267.585 " />
<polygon stroke="black" stroke-width="1" fill="grey" fill-opacity="0.25" points="281.428,925.687 939.529,925.687 939.529,267.585 281.428,267.585 " />
<polygon stroke="black" stroke-width="1" fill="grey" fill-opacity="0.25" points="281.428,925.687 939.529,925.687 939.529,267.585 281.428,267.585 " />
<polygon stroke="black" stroke-width="1" fill="grey" fill-opacity="0.25" points="281.428,925.687 939.529,925.687 939.529,267.585 281.428,267.585 " />
<polygon stroke="black" stroke-width="1" fill="grey" fill-opacity="0.25" points="281.428,925.687 939.529,925.687 939.529,267.585 281.428,267.585 " />
<polygon stroke="black" stroke-width="1" fill="grey" fill-opacity="0.25" points="281.428,925.687 939.529,925.687 939.529,267.585 281.428,267.585 " />
<polygon stroke="black" stroke-width="1" fill="grey" fill-opacity="0.25" points="281.428,925.687 939.529,925.687 939.529,267.585 281.428,267.585 " />
<polygon stroke="black" stroke-width="1" fill="grey" fill-opacity="0.25" points="281.428,925.687 939.529,925.687 939.529,267.585 281.428,267.585 " />
<polygon stroke="black" stroke-width="1" fill="grey" fill-opacity="0.25" points="281.428,925.687 939.529,925.687 939.529,267.585 281.428,267.585 " />
<polygon stroke="black" stroke-width="1" fill="grey" fill-opacity="0.25" points="281.428,925.687 939.529,925.687 939.529,267.585 281.428,267.585 " />
<polygon stroke="black" stroke-width="1" fill="grey" fill-opacity="0.25" points="281.428,925.687 939.529,925.687 939.529,267.585 281.428,267.585 " />
<polygon stroke="black" stroke-width="1" fill="grey" fill-opacity="0.25" points="281.428,925.687 939.529,925.687 939.529,267.585 281.428,267.585 " />
<polygon stroke="black" stroke-width="1" fill="grey" fill-opacity="0.25" points="281.428,925.687 939.529,925.687 939.529,267.585 281.428,267.585 " />
<polygon stroke="black" stroke-width="1" fill="grey" fill-opacity="0.25" points="281.428,925.687 939.529,925.687 939.529,267.585 281.428,267.585 " />
<polygon stroke="black" stroke-width="1" fill="grey" fill-opacity="0.25" points="281.428,925.687 939.529,925.687 939.529,267.585 281.428,267.585 " />
<polygon stroke="black" stroke-width="1" fill="grey" fill-opacity="0.25" points="281.428,925.687 939.529,925.687 939.529,267.585 281.428,267.585 " />
<polygon stroke="black" stroke-width="1" fill="grey" fill-opacity="0.25" points="281.428,925.687 939.529,925.687 939.529,267.585 281.428,267.585 " />
<polygon stroke="black" stroke-width="1" fill="grey" fill-opacity="0.25" points="281.428,925.687 939.529,925.687 939.529,267.585 281.428,267.585 " />
<polygon stroke="black" stroke-width="1" fill="grey" fill-opacity="0.25" points="281.428,925.687 939.529,925.687 939.529,267.585 281.428,267.585 " />
<polygon stroke="black" stroke-width="1" fill="grey" fill-opacity="0.25" points="281.428,925.687 939.529,925.687 939.529,267.585 281.428,267.585 " />
<polygon stroke="black" stroke-width="1" fill="grey" fill-opacity="0.25" points="281.428,925.687 939.529,925.687 939.529,267.585 281.428,267.585 " />

</svg>
