<?xml version="1.0" encoding="UTF-8" standalone="no"?>
<svg
   xmlns:dc="http://purl.org/dc/elements/1.1/"
   xmlns:cc="http://creativecommons.org/ns#"
   xmlns:rdf="http://www.w3.org/1999/02/22-rdf-syntax-ns#"
   xmlns:svg="http://www.w3.org/2000/svg"
   xmlns="http://www.w3.org/2000/svg"
   xmlns:sodipodi="http://sodipodi.sourceforge.net/DTD/sodipodi-0.dtd"
   xmlns:inkscape="http://www.inkscape.org/namespaces/inkscape"
   width="1024"
   height="1024"
   viewBox="0 0 1024 1024"
   version="1.1"
   id="svg3285"
   inkscape:version="0.48.4 r9939"
   sodipodi:docname="streetlight.svg"
   inkscape:export-filename="/home/john/TestEngine2/creatives/streetlight/streetlight_tex.png"
   inkscape:export-xdpi="90"
   inkscape:export-ydpi="90">
  <metadata
     id="metadata3421">
    <rdf:RDF>
      <cc:Work
         rdf:about="">
        <dc:format>image/svg+xml</dc:format>
        <dc:type
           rdf:resource="http://purl.org/dc/dcmitype/StillImage" />
        <dc:title></dc:title>
      </cc:Work>
    </rdf:RDF>
  </metadata>
  <defs
     id="defs3419" />
  <sodipodi:namedview
     pagecolor="#ffffff"
     bordercolor="#666666"
     borderopacity="1"
     objecttolerance="10"
     gridtolerance="10"
     guidetolerance="10"
     inkscape:pageopacity="0"
     inkscape:pageshadow="2"
     inkscape:window-width="1918"
     inkscape:window-height="1078"
     id="namedview3417"
     showgrid="false"
     inkscape:zoom="0.90579235"
     inkscape:cx="638.42031"
     inkscape:cy="466.95692"
     inkscape:window-x="0"
     inkscape:window-y="0"
     inkscape:window-maximized="0"
     inkscape:current-layer="svg3285" />
  <desc
     id="desc3287">'streetlight.blend', Circle, (Blender 2.71 (sub 0))</desc>
  <polygon
     stroke="black"
     stroke-width="1"
     fill="grey"
     fill-opacity="0.25"
     points="281.428,925.687 939.529,925.687 939.529,267.585 281.428,267.585 "
     id="polygon3289"
     style="stroke-width:8;stroke-miterlimit:4;stroke-dasharray:none" />
  <polygon
     stroke="black"
     stroke-width="1"
     fill="grey"
     fill-opacity="0.25"
     points="281.428,925.687 939.529,925.687 939.529,267.585 281.428,267.585 "
     id="polygon3291"
     style="stroke-width:8;stroke-miterlimit:4;stroke-dasharray:none" />
  <polygon
     stroke="black"
     stroke-width="1"
     fill="grey"
     fill-opacity="0.25"
     points="281.428,925.687 939.529,925.687 939.529,267.585 281.428,267.585 "
     id="polygon3293"
     style="stroke-width:8;stroke-miterlimit:4;stroke-dasharray:none" />
  <polygon
     stroke="black"
     stroke-width="1"
     fill="grey"
     fill-opacity="0.25"
     points="281.428,925.687 939.529,925.687 939.529,267.585 281.428,267.585 "
     id="polygon3295"
     style="stroke-width:8;stroke-miterlimit:4;stroke-dasharray:none" />
  <polygon
     stroke="black"
     stroke-width="1"
     fill="grey"
     fill-opacity="0.25"
     points="281.428,925.687 939.529,925.687 939.529,267.585 281.428,267.585 "
     id="polygon3297"
     style="stroke-width:8;stroke-miterlimit:4;stroke-dasharray:none" />
  <polygon
     stroke="black"
     stroke-width="1"
     fill="grey"
     fill-opacity="0.25"
     points="281.428,925.687 939.529,925.687 939.529,267.585 281.428,267.585 "
     id="polygon3299"
     style="stroke-width:8;stroke-miterlimit:4;stroke-dasharray:none" />
  <polygon
     stroke="black"
     stroke-width="1"
     fill="grey"
     fill-opacity="0.25"
     points="281.428,925.687 939.529,925.687 939.529,267.585 281.428,267.585 "
     id="polygon3301"
     style="stroke-width:8;stroke-miterlimit:4;stroke-dasharray:none" />
  <polygon
     stroke="black"
     stroke-width="1"
     fill="grey"
     fill-opacity="0.25"
     points="281.428,925.687 939.529,925.687 939.529,267.585 281.428,267.585 "
     id="polygon3303"
     style="stroke-width:8;stroke-miterlimit:4;stroke-dasharray:none" />
  <polygon
     stroke="black"
     stroke-width="1"
     fill="grey"
     fill-opacity="0.25"
     points="281.428,925.687 939.529,925.687 939.529,267.585 281.428,267.585 "
     id="polygon3305"
     style="stroke-width:8;stroke-miterlimit:4;stroke-dasharray:none" />
  <polygon
     stroke="black"
     stroke-width="1"
     fill="grey"
     fill-opacity="0.25"
     points="281.428,925.687 939.529,925.687 939.529,267.585 281.428,267.585 "
     id="polygon3307"
     style="stroke-width:8;stroke-miterlimit:4;stroke-dasharray:none" />
  <polygon
     stroke="black"
     stroke-width="1"
     fill="grey"
     fill-opacity="0.25"
     points="281.428,925.687 939.529,925.687 939.529,267.585 281.428,267.585 "
     id="polygon3309"
     style="stroke-width:8;stroke-miterlimit:4;stroke-dasharray:none" />
  <polygon
     stroke="black"
     stroke-width="1"
     fill="grey"
     fill-opacity="0.25"
     points="281.428,925.687 939.529,925.687 939.529,267.585 281.428,267.585 "
     id="polygon3311"
     style="stroke-width:8;stroke-miterlimit:4;stroke-dasharray:none" />
  <polygon
     stroke="black"
     stroke-width="1"
     fill="grey"
     fill-opacity="0.25"
     points="281.428,925.687 939.529,925.687 939.529,267.585 281.428,267.585 "
     id="polygon3313"
     style="stroke-width:8;stroke-miterlimit:4;stroke-dasharray:none" />
  <polygon
     stroke="black"
     stroke-width="1"
     fill="grey"
     fill-opacity="0.25"
     points="281.428,925.687 939.529,925.687 939.529,267.585 281.428,267.585 "
     id="polygon3315"
     style="stroke-width:8;stroke-miterlimit:4;stroke-dasharray:none" />
  <polygon
     stroke="black"
     stroke-width="1"
     fill="grey"
     fill-opacity="0.25"
     points="281.428,925.687 939.529,925.687 939.529,267.585 281.428,267.585 "
     id="polygon3317"
     style="stroke-width:8;stroke-miterlimit:4;stroke-dasharray:none" />
  <polygon
     stroke="black"
     stroke-width="1"
     fill="grey"
     fill-opacity="0.25"
     points="281.428,925.687 939.529,925.687 939.529,267.585 281.428,267.585 "
     id="polygon3319"
     style="stroke-width:8;stroke-miterlimit:4;stroke-dasharray:none" />
  <polygon
     stroke="black"
     stroke-width="1"
     fill="grey"
     fill-opacity="0.25"
     points="281.428,925.687 939.529,925.687 939.529,267.585 281.428,267.585 "
     id="polygon3321"
     style="stroke-width:8;stroke-miterlimit:4;stroke-dasharray:none" />
  <polygon
     stroke="black"
     stroke-width="1"
     fill="grey"
     fill-opacity="0.25"
     points="281.428,925.687 939.529,925.687 939.529,267.585 281.428,267.585 "
     id="polygon3323"
     style="stroke-width:8;stroke-miterlimit:4;stroke-dasharray:none" />
  <polygon
     stroke="black"
     stroke-width="1"
     fill="grey"
     fill-opacity="0.25"
     points="281.428,925.687 939.529,925.687 939.529,267.585 281.428,267.585 "
     id="polygon3325"
     style="stroke-width:8;stroke-miterlimit:4;stroke-dasharray:none" />
  <polygon
     stroke="black"
     stroke-width="1"
     fill="grey"
     fill-opacity="0.25"
     points="281.428,925.687 939.529,925.687 939.529,267.585 281.428,267.585 "
     id="polygon3327"
     style="stroke-width:8;stroke-miterlimit:4;stroke-dasharray:none" />
  <polygon
     stroke="black"
     stroke-width="1"
     fill="grey"
     fill-opacity="0.25"
     points="281.428,925.687 939.529,925.687 939.529,267.585 281.428,267.585 "
     id="polygon3329"
     style="stroke-width:8;stroke-miterlimit:4;stroke-dasharray:none" />
  <polygon
     stroke="black"
     stroke-width="1"
     fill="grey"
     fill-opacity="0.25"
     points="281.428,925.687 939.529,925.687 939.529,267.585 281.428,267.585 "
     id="polygon3331"
     style="stroke-width:8;stroke-miterlimit:4;stroke-dasharray:none" />
  <polygon
     stroke="black"
     stroke-width="1"
     fill="grey"
     fill-opacity="0.25"
     points="281.428,925.687 939.529,925.687 939.529,267.585 281.428,267.585 "
     id="polygon3333"
     style="stroke-width:8;stroke-miterlimit:4;stroke-dasharray:none" />
  <polygon
     stroke="black"
     stroke-width="1"
     fill="grey"
     fill-opacity="0.25"
     points="281.428,925.687 939.529,925.687 939.529,267.585 281.428,267.585 "
     id="polygon3335"
     style="stroke-width:8;stroke-miterlimit:4;stroke-dasharray:none" />
  <polygon
     stroke="black"
     stroke-width="1"
     fill="grey"
     fill-opacity="0.25"
     points="71.712,958.455 205.842,958.455 205.842,40.146 71.712,40.146 "
     id="polygon3337"
     style="stroke-width:8;stroke-miterlimit:4;stroke-dasharray:none" />
  <polygon
     stroke="black"
     stroke-width="1"
     fill="grey"
     fill-opacity="0.25"
     points="71.712,958.455 205.842,958.455 205.842,40.146 71.712,40.146 "
     id="polygon3339"
     style="stroke-width:8;stroke-miterlimit:4;stroke-dasharray:none" />
  <polygon
     stroke="black"
     stroke-width="1"
     fill="grey"
     fill-opacity="0.25"
     points="71.712,958.455 205.842,958.455 205.842,40.146 71.712,40.146 "
     id="polygon3341"
     style="stroke-width:8;stroke-miterlimit:4;stroke-dasharray:none" />
  <polygon
     stroke="black"
     stroke-width="1"
     fill="grey"
     fill-opacity="0.25"
     points="71.712,958.455 205.842,958.455 205.842,40.146 71.712,40.146 "
     id="polygon3343"
     style="stroke-width:8;stroke-miterlimit:4;stroke-dasharray:none" />
  <polygon
     stroke="black"
     stroke-width="1"
     fill="grey"
     fill-opacity="0.25"
     points="71.712,958.455 205.842,958.455 205.842,40.146 71.712,40.146 "
     id="polygon3345"
     style="stroke-width:8;stroke-miterlimit:4;stroke-dasharray:none" />
  <polygon
     stroke="black"
     stroke-width="1"
     fill="grey"
     fill-opacity="0.25"
     points="71.712,958.455 205.842,958.455 205.842,40.146 71.712,40.146 "
     id="polygon3347"
     style="stroke-width:8;stroke-miterlimit:4;stroke-dasharray:none" />
  <polygon
     stroke="black"
     stroke-width="1"
     fill="grey"
     fill-opacity="0.25"
     points="71.712,958.455 205.842,958.455 205.842,40.146 71.712,40.146 "
     id="polygon3349"
     style="stroke-width:8;stroke-miterlimit:4;stroke-dasharray:none" />
  <polygon
     stroke="black"
     stroke-width="1"
     fill="grey"
     fill-opacity="0.25"
     points="71.712,958.455 205.842,958.455 205.842,40.146 71.712,40.146 "
     id="polygon3351"
     style="stroke-width:8;stroke-miterlimit:4;stroke-dasharray:none" />
  <polygon
     stroke="black"
     stroke-width="1"
     fill="grey"
     fill-opacity="0.25"
     points="281.428,925.687 939.529,925.687 939.529,267.585 281.428,267.585 "
     id="polygon3353"
     style="stroke-width:8;stroke-miterlimit:4;stroke-dasharray:none" />
  <polygon
     stroke="black"
     stroke-width="1"
     fill="grey"
     fill-opacity="0.25"
     points="281.428,925.687 939.529,925.687 939.529,267.585 281.428,267.585 "
     id="polygon3355"
     style="stroke-width:8;stroke-miterlimit:4;stroke-dasharray:none" />
  <polygon
     stroke="black"
     stroke-width="1"
     fill="grey"
     fill-opacity="0.25"
     points="281.428,925.687 939.529,925.687 939.529,267.585 281.428,267.585 "
     id="polygon3357"
     style="stroke-width:8;stroke-miterlimit:4;stroke-dasharray:none" />
  <polygon
     stroke="black"
     stroke-width="1"
     fill="grey"
     fill-opacity="0.25"
     points="281.428,925.687 939.529,925.687 939.529,267.585 281.428,267.585 "
     id="polygon3359"
     style="stroke-width:8;stroke-miterlimit:4;stroke-dasharray:none" />
  <polygon
     stroke="black"
     stroke-width="1"
     fill="grey"
     fill-opacity="0.25"
     points="281.428,925.687 939.529,925.687 939.529,267.585 281.428,267.585 "
     id="polygon3361"
     style="stroke-width:8;stroke-miterlimit:4;stroke-dasharray:none" />
  <polygon
     stroke="black"
     stroke-width="1"
     fill="grey"
     fill-opacity="0.25"
     points="281.428,925.687 939.529,925.687 939.529,267.585 281.428,267.585 "
     id="polygon3363"
     style="stroke-width:8;stroke-miterlimit:4;stroke-dasharray:none" />
  <polygon
     stroke="black"
     stroke-width="1"
     fill="grey"
     fill-opacity="0.25"
     points="281.428,925.687 939.529,925.687 939.529,267.585 281.428,267.585 "
     id="polygon3365"
     style="stroke-width:8;stroke-miterlimit:4;stroke-dasharray:none" />
  <polygon
     stroke="black"
     stroke-width="1"
     fill="grey"
     fill-opacity="0.25"
     points="281.428,925.687 939.529,925.687 939.529,267.585 281.428,267.585 "
     id="polygon3367"
     style="stroke-width:8;stroke-miterlimit:4;stroke-dasharray:none" />
  <polygon
     stroke="black"
     stroke-width="1"
     fill="grey"
     fill-opacity="0.25"
     points="281.428,925.687 939.529,925.687 939.529,267.585 281.428,267.585 "
     id="polygon3369"
     style="stroke-width:8;stroke-miterlimit:4;stroke-dasharray:none" />
  <polygon
     stroke="black"
     stroke-width="1"
     fill="grey"
     fill-opacity="0.25"
     points="281.428,925.687 939.529,925.687 939.529,267.585 281.428,267.585 "
     id="polygon3371"
     style="stroke-width:8;stroke-miterlimit:4;stroke-dasharray:none" />
  <polygon
     stroke="black"
     stroke-width="1"
     fill="grey"
     fill-opacity="0.25"
     points="281.428,925.687 939.529,925.687 939.529,267.585 281.428,267.585 "
     id="polygon3373"
     style="stroke-width:8;stroke-miterlimit:4;stroke-dasharray:none" />
  <polygon
     stroke="black"
     stroke-width="1"
     fill="grey"
     fill-opacity="0.25"
     points="281.428,925.687 939.529,925.687 939.529,267.585 281.428,267.585 "
     id="polygon3375"
     style="stroke-width:8;stroke-miterlimit:4;stroke-dasharray:none" />
  <polygon
     stroke="black"
     stroke-width="1"
     fill="grey"
     fill-opacity="0.25"
     points="281.428,925.687 939.529,925.687 939.529,267.585 281.428,267.585 "
     id="polygon3377"
     style="stroke-width:8;stroke-miterlimit:4;stroke-dasharray:none" />
  <polygon
     stroke="black"
     stroke-width="1"
     fill="grey"
     fill-opacity="0.25"
     points="281.428,925.687 939.529,925.687 939.529,267.585 281.428,267.585 "
     id="polygon3379"
     style="stroke-width:8;stroke-miterlimit:4;stroke-dasharray:none" />
  <polygon
     stroke="black"
     stroke-width="1"
     fill="grey"
     fill-opacity="0.25"
     points="281.428,925.687 939.529,925.687 939.529,267.585 281.428,267.585 "
     id="polygon3381"
     style="stroke-width:8;stroke-miterlimit:4;stroke-dasharray:none" />
  <polygon
     stroke="black"
     stroke-width="1"
     fill="grey"
     fill-opacity="0.25"
     points="281.428,925.687 939.529,925.687 939.529,267.585 281.428,267.585 "
     id="polygon3383"
     style="stroke-width:8;stroke-miterlimit:4;stroke-dasharray:none" />
  <polygon
     stroke="black"
     stroke-width="1"
     fill="grey"
     fill-opacity="0.25"
     points="281.428,925.687 939.529,925.687 939.529,267.585 281.428,267.585 "
     id="polygon3385"
     style="stroke-width:8;stroke-miterlimit:4;stroke-dasharray:none" />
  <polygon
     stroke="black"
     stroke-width="1"
     fill="grey"
     fill-opacity="0.25"
     points="281.428,925.687 939.529,925.687 939.529,267.585 281.428,267.585 "
     id="polygon3387"
     style="stroke-width:8;stroke-miterlimit:4;stroke-dasharray:none" />
  <polygon
     stroke="black"
     stroke-width="1"
     fill="grey"
     fill-opacity="0.25"
     points="281.428,925.687 939.529,925.687 939.529,267.585 281.428,267.585 "
     id="polygon3389"
     style="stroke-width:8;stroke-miterlimit:4;stroke-dasharray:none" />
  <polygon
     stroke="black"
     stroke-width="1"
     fill="grey"
     fill-opacity="0.25"
     points="281.428,925.687 939.529,925.687 939.529,267.585 281.428,267.585 "
     id="polygon3391"
     style="stroke-width:8;stroke-miterlimit:4;stroke-dasharray:none" />
  <polygon
     stroke="black"
     stroke-width="1"
     fill="grey"
     fill-opacity="0.25"
     points="281.428,925.687 939.529,925.687 939.529,267.585 281.428,267.585 "
     id="polygon3393"
     style="stroke-width:8;stroke-miterlimit:4;stroke-dasharray:none" />
  <polygon
     stroke="black"
     stroke-width="1"
     fill="grey"
     fill-opacity="0.25"
     points="281.428,925.687 939.529,925.687 939.529,267.585 281.428,267.585 "
     id="polygon3395"
     style="stroke-width:8;stroke-miterlimit:4;stroke-dasharray:none" />
  <polygon
     stroke="black"
     stroke-width="1"
     fill="grey"
     fill-opacity="0.25"
     points="281.428,925.687 939.529,925.687 939.529,267.585 281.428,267.585 "
     id="polygon3397"
     style="stroke-width:8;stroke-miterlimit:4;stroke-dasharray:none" />
  <polygon
     stroke="black"
     stroke-width="1"
     fill="grey"
     fill-opacity="0.25"
     points="281.428,925.687 939.529,925.687 939.529,267.585 281.428,267.585 "
     id="polygon3399"
     style="stroke-width:8;stroke-miterlimit:4;stroke-dasharray:none" />
  <polygon
     stroke="black"
     stroke-width="1"
     fill="grey"
     fill-opacity="0.25"
     points="281.428,925.687 939.529,925.687 939.529,267.585 281.428,267.585 "
     id="polygon3401"
     style="stroke-width:8;stroke-miterlimit:4;stroke-dasharray:none" />
  <polygon
     stroke="black"
     stroke-width="1"
     fill="grey"
     fill-opacity="0.25"
     points="281.428,925.687 939.529,925.687 939.529,267.585 281.428,267.585 "
     id="polygon3403"
     style="stroke-width:8;stroke-miterlimit:4;stroke-dasharray:none" />
  <polygon
     stroke="black"
     stroke-width="1"
     fill="grey"
     fill-opacity="0.25"
     points="281.428,925.687 939.529,925.687 939.529,267.585 281.428,267.585 "
     id="polygon3405"
     style="stroke-width:8;stroke-miterlimit:4;stroke-dasharray:none" />
  <polygon
     stroke="black"
     stroke-width="1"
     fill="grey"
     fill-opacity="0.25"
     points="281.428,925.687 939.529,925.687 939.529,267.585 281.428,267.585 "
     id="polygon3407"
     style="stroke-width:8;stroke-miterlimit:4;stroke-dasharray:none" />
  <polygon
     stroke="black"
     stroke-width="1"
     fill="grey"
     fill-opacity="0.25"
     points="281.428,925.687 939.529,925.687 939.529,267.585 281.428,267.585 "
     id="polygon3409"
     style="stroke-width:8;stroke-miterlimit:4;stroke-dasharray:none" />
  <polygon
     stroke="black"
     stroke-width="1"
     fill="grey"
     fill-opacity="0.25"
     points="281.428,925.687 939.529,925.687 939.529,267.585 281.428,267.585 "
     id="polygon3411"
     style="stroke-width:8;stroke-miterlimit:4;stroke-dasharray:none" />
  <polygon
     stroke="black"
     stroke-width="1"
     fill="grey"
     fill-opacity="0.25"
     points="281.428,925.687 939.529,925.687 939.529,267.585 281.428,267.585 "
     id="polygon3413"
     style="stroke-width:8;stroke-miterlimit:4;stroke-dasharray:none" />
  <polygon
     stroke="black"
     stroke-width="1"
     fill="grey"
     fill-opacity="0.25"
     points="281.428,925.687 939.529,925.687 939.529,267.585 281.428,267.585 "
     id="polygon3415"
     style="stroke-width:8;stroke-miterlimit:4;stroke-dasharray:none" />
  <g
     id="g4354">
    <path
       sodipodi:nodetypes="ccccc"
       inkscape:connector-curvature="0"
       id="polygon3423"
       d="m 73.553603,956.47228 130.446797,0 0,-914.343552 -130.446797,0 z"
       style="fill:#dedede;fill-opacity:1;stroke:#000000;stroke-width:8;stroke-miterlimit:4;stroke-opacity:1;stroke-dasharray:none" />
    <path
       inkscape:connector-curvature="0"
       id="polygon4194"
       d="m 283.4025,923.7125 654.152,0 0,-654.153 -654.152,0 z"
       style="fill:#dedede;fill-opacity:1;stroke:#000000;stroke-width:8;stroke-miterlimit:4;stroke-opacity:1;stroke-dasharray:none" />
  </g>
</svg>
