<?xml version="1.0" standalone="no"?>
<!DOCTYPE svg PUBLIC "-//W3C//DTD SVG 1.1//EN" 
  "http://www.w3.org/Graphics/SVG/1.1/DTD/svg11.dtd">
<svg width="1024" height="1024" viewBox="0 0 1024 1024"
     xmlns="http://www.w3.org/2000/svg" version="1.1">
<desc>'trashcan.blend', Cylinder, (Blender 2.71 (sub 0))</desc>
<polygon stroke="black" stroke-width="1" fill="grey" fill-opacity="0.25" points="45.609,941.879 252.370,941.879 252.370,701.474 45.609,701.474 " />
<polygon stroke="black" stroke-width="1" fill="grey" fill-opacity="0.25" points="45.609,941.879 252.370,941.879 252.370,701.474 45.609,701.474 " />
<polygon stroke="black" stroke-width="1" fill="grey" fill-opacity="0.25" points="45.609,941.879 252.370,941.879 252.370,701.474 45.609,701.474 " />
<polygon stroke="black" stroke-width="1" fill="grey" fill-opacity="0.25" points="45.609,941.879 252.370,941.879 252.370,701.474 45.609,701.474 " />
<polygon stroke="black" stroke-width="1" fill="grey" fill-opacity="0.25" points="45.609,941.879 252.370,941.879 252.370,701.474 45.609,701.474 " />
<polygon stroke="black" stroke-width="1" fill="grey" fill-opacity="0.25" points="45.609,941.879 252.370,941.879 252.370,701.474 45.609,701.474 " />
<polygon stroke="black" stroke-width="1" fill="grey" fill-opacity="0.25" points="45.609,941.879 252.370,941.879 252.370,701.474 45.609,701.474 " />
<polygon stroke="black" stroke-width="1" fill="grey" fill-opacity="0.25" points="45.609,941.879 252.370,941.879 252.370,701.474 45.609,701.474 " />
<polygon stroke="black" stroke-width="1" fill="grey" fill-opacity="0.25" points="45.609,941.879 252.370,941.879 252.370,701.474 45.609,701.474 " />
<polygon stroke="black" stroke-width="1" fill="grey" fill-opacity="0.25" points="45.609,941.879 252.370,941.879 252.370,701.474 45.609,701.474 " />
<polygon stroke="black" stroke-width="1" fill="grey" fill-opacity="0.25" points="45.609,941.879 252.370,941.879 252.370,701.474 45.609,701.474 " />
<polygon stroke="black" stroke-width="1" fill="grey" fill-opacity="0.25" points="45.609,941.879 252.370,941.879 252.370,701.474 45.609,701.474 " />
<polygon stroke="black" stroke-width="1" fill="grey" fill-opacity="0.25" points="45.609,941.879 252.370,941.879 252.370,701.474 45.609,701.474 " />
<polygon stroke="black" stroke-width="1" fill="grey" fill-opacity="0.25" points="45.609,941.879 252.370,941.879 252.370,701.474 45.609,701.474 " />
<polygon stroke="black" stroke-width="1" fill="grey" fill-opacity="0.25" points="45.609,941.879 252.370,941.879 252.370,701.474 45.609,701.474 " />
<polygon stroke="black" stroke-width="1" fill="grey" fill-opacity="0.25" points="45.609,941.879 252.370,941.879 252.370,701.474 45.609,701.474 " />
<polygon stroke="black" stroke-width="1" fill="grey" fill-opacity="0.25" points="45.609,941.879 252.370,941.879 252.370,701.474 45.609,701.474 " />
<polygon stroke="black" stroke-width="1" fill="grey" fill-opacity="0.25" points="45.609,941.879 252.370,941.879 252.370,701.474 45.609,701.474 " />
<polygon stroke="black" stroke-width="1" fill="grey" fill-opacity="0.25" points="45.609,941.879 252.370,941.879 252.370,701.474 45.609,701.474 " />
<polygon stroke="black" stroke-width="1" fill="grey" fill-opacity="0.25" points="45.609,941.879 252.370,941.879 252.370,701.474 45.609,701.474 " />
<polygon stroke="black" stroke-width="1" fill="grey" fill-opacity="0.25" points="45.609,941.879 252.370,941.879 252.370,701.474 45.609,701.474 " />
<polygon stroke="black" stroke-width="1" fill="grey" fill-opacity="0.25" points="45.609,941.879 252.370,941.879 252.370,701.474 45.609,701.474 " />
<polygon stroke="black" stroke-width="1" fill="grey" fill-opacity="0.25" points="45.609,941.879 252.370,941.879 252.370,701.474 45.609,701.474 " />
<polygon stroke="black" stroke-width="1" fill="grey" fill-opacity="0.25" points="45.609,941.879 252.370,941.879 252.370,701.474 45.609,701.474 " />
<polygon stroke="black" stroke-width="1" fill="grey" fill-opacity="0.25" points="45.609,941.879 252.370,941.879 252.370,701.474 45.609,701.474 " />
<polygon stroke="black" stroke-width="1" fill="grey" fill-opacity="0.25" points="45.609,941.879 252.370,941.879 252.370,701.474 45.609,701.474 " />
<polygon stroke="black" stroke-width="1" fill="grey" fill-opacity="0.25" points="45.609,941.879 252.370,941.879 252.370,701.474 45.609,701.474 " />
<polygon stroke="black" stroke-width="1" fill="grey" fill-opacity="0.25" points="45.609,941.879 252.370,941.879 252.370,701.474 45.609,701.474 " />
<polygon stroke="black" stroke-width="1" fill="grey" fill-opacity="0.25" points="45.609,941.879 252.370,941.879 252.370,701.474 45.609,701.474 " />
<polygon stroke="black" stroke-width="1" fill="grey" fill-opacity="0.25" points="45.609,941.879 252.370,941.879 252.370,701.474 45.609,701.474 " />
<polygon stroke="black" stroke-width="1" fill="grey" fill-opacity="0.25" points="45.609,941.879 252.370,941.879 252.370,701.474 45.609,701.474 " />
<polygon stroke="black" stroke-width="1" fill="grey" fill-opacity="0.25" points="45.609,941.879 252.370,941.879 252.370,701.474 45.609,701.474 " />
<polygon stroke="black" stroke-width="1" fill="grey" fill-opacity="0.25" points="45.609,941.879 252.370,941.879 252.370,701.474 45.609,701.474 " />
<polygon stroke="black" stroke-width="1" fill="grey" fill-opacity="0.25" points="45.609,941.879 252.370,941.879 252.370,701.474 45.609,701.474 " />
<polygon stroke="black" stroke-width="1" fill="grey" fill-opacity="0.25" points="45.609,941.879 252.370,941.879 252.370,701.474 45.609,701.474 " />
<polygon stroke="black" stroke-width="1" fill="grey" fill-opacity="0.25" points="45.609,941.879 252.370,941.879 252.370,701.474 45.609,701.474 " />
<polygon stroke="black" stroke-width="1" fill="grey" fill-opacity="0.25" points="45.609,941.879 252.370,941.879 252.370,701.474 45.609,701.474 " />
<polygon stroke="black" stroke-width="1" fill="grey" fill-opacity="0.25" points="45.609,941.879 252.370,941.879 252.370,701.474 45.609,701.474 " />
<polygon stroke="black" stroke-width="1" fill="grey" fill-opacity="0.25" points="45.609,941.879 252.370,941.879 252.370,701.474 45.609,701.474 " />
<polygon stroke="black" stroke-width="1" fill="grey" fill-opacity="0.25" points="45.609,941.879 252.370,941.879 252.370,701.474 45.609,701.474 " />
<polygon stroke="black" stroke-width="1" fill="grey" fill-opacity="0.25" points="45.609,941.879 252.370,941.879 252.370,701.474 45.609,701.474 " />
<polygon stroke="black" stroke-width="1" fill="grey" fill-opacity="0.25" points="45.609,941.879 252.370,941.879 252.370,701.474 45.609,701.474 " />
<polygon stroke="black" stroke-width="1" fill="grey" fill-opacity="0.25" points="45.609,941.879 252.370,941.879 252.370,701.474 45.609,701.474 " />
<polygon stroke="black" stroke-width="1" fill="grey" fill-opacity="0.25" points="45.609,941.879 252.370,941.879 252.370,701.474 45.609,701.474 " />
<polygon stroke="black" stroke-width="1" fill="grey" fill-opacity="0.25" points="45.609,941.879 252.370,941.879 252.370,701.474 45.609,701.474 " />
<polygon stroke="black" stroke-width="1" fill="grey" fill-opacity="0.25" points="45.609,941.879 252.370,941.879 252.370,701.474 45.609,701.474 " />
<polygon stroke="black" stroke-width="1" fill="grey" fill-opacity="0.25" points="45.609,941.879 252.370,941.879 252.370,701.474 45.609,701.474 " />
<polygon stroke="black" stroke-width="1" fill="grey" fill-opacity="0.25" points="45.609,941.879 252.370,941.879 252.370,701.474 45.609,701.474 " />
<polygon stroke="black" stroke-width="1" fill="grey" fill-opacity="0.25" points="31.662,658.373 266.318,658.373 266.318,417.967 31.662,417.967 " />
<polygon stroke="black" stroke-width="1" fill="grey" fill-opacity="0.25" points="31.662,658.373 266.318,658.373 266.318,417.967 31.662,417.967 " />
<polygon stroke="black" stroke-width="1" fill="grey" fill-opacity="0.25" points="31.662,658.373 266.318,658.373 266.318,417.967 31.662,417.967 " />
<polygon stroke="black" stroke-width="1" fill="grey" fill-opacity="0.25" points="31.662,658.373 266.318,658.373 266.318,417.967 31.662,417.967 " />
<polygon stroke="black" stroke-width="1" fill="grey" fill-opacity="0.25" points="31.662,658.373 266.318,658.373 266.318,417.967 31.662,417.967 " />
<polygon stroke="black" stroke-width="1" fill="grey" fill-opacity="0.25" points="31.662,658.373 266.318,658.373 266.318,417.967 31.662,417.967 " />
<polygon stroke="black" stroke-width="1" fill="grey" fill-opacity="0.25" points="31.662,658.373 266.318,658.373 266.318,417.967 31.662,417.967 " />
<polygon stroke="black" stroke-width="1" fill="grey" fill-opacity="0.25" points="31.662,658.373 266.318,658.373 266.318,417.967 31.662,417.967 " />
<polygon stroke="black" stroke-width="1" fill="grey" fill-opacity="0.25" points="31.662,658.373 266.318,658.373 266.318,417.967 31.662,417.967 " />
<polygon stroke="black" stroke-width="1" fill="grey" fill-opacity="0.25" points="31.662,658.373 266.318,658.373 266.318,417.967 31.662,417.967 " />
<polygon stroke="black" stroke-width="1" fill="grey" fill-opacity="0.25" points="31.662,658.373 266.318,658.373 266.318,417.967 31.662,417.967 " />
<polygon stroke="black" stroke-width="1" fill="grey" fill-opacity="0.25" points="31.662,658.373 266.318,658.373 266.318,417.967 31.662,417.967 " />
<polygon stroke="black" stroke-width="1" fill="grey" fill-opacity="0.25" points="31.662,658.373 266.318,658.373 266.318,417.967 31.662,417.967 " />
<polygon stroke="black" stroke-width="1" fill="grey" fill-opacity="0.25" points="31.662,658.373 266.318,658.373 266.318,417.967 31.662,417.967 " />
<polygon stroke="black" stroke-width="1" fill="grey" fill-opacity="0.25" points="31.662,658.373 266.318,658.373 266.318,417.967 31.662,417.967 " />
<polygon stroke="black" stroke-width="1" fill="grey" fill-opacity="0.25" points="31.662,658.373 266.318,658.373 266.318,417.967 31.662,417.967 " />
<polygon stroke="black" stroke-width="1" fill="grey" fill-opacity="0.25" points="241.108,102.436 257.442,102.439 257.438,127.005 241.104,125.338 " />
<polygon stroke="black" stroke-width="1" fill="grey" fill-opacity="0.25" points="31.662,373.531 266.318,373.531 266.318,149.625 31.662,149.625 " />
<polygon stroke="black" stroke-width="1" fill="grey" fill-opacity="0.25" points="31.662,373.531 266.318,373.531 266.318,149.625 31.662,149.625 " />
<polygon stroke="black" stroke-width="1" fill="grey" fill-opacity="0.25" points="241.108,102.436 143.022,102.419 143.018,122.327 241.104,125.338 " />
<polygon stroke="black" stroke-width="1" fill="grey" fill-opacity="0.25" points="31.662,373.531 266.318,373.531 266.318,149.625 31.662,149.625 " />
<polygon stroke="black" stroke-width="1" fill="grey" fill-opacity="0.25" points="143.022,102.419 241.108,102.436 241.104,125.338 143.018,122.327 " />
<polygon stroke="black" stroke-width="1" fill="grey" fill-opacity="0.25" points="31.662,373.531 266.318,373.531 266.318,149.625 31.662,149.625 " />
<polygon stroke="black" stroke-width="1" fill="grey" fill-opacity="0.25" points="257.442,102.439 241.108,102.436 241.104,125.338 257.438,127.005 " />
<polygon stroke="black" stroke-width="1" fill="grey" fill-opacity="0.25" points="31.662,373.531 266.318,373.531 266.318,149.625 31.662,149.625 " />
<polygon stroke="black" stroke-width="1" fill="grey" fill-opacity="0.25" points="31.662,373.531 266.318,373.531 266.318,149.625 31.662,149.625 " />
<polygon stroke="black" stroke-width="1" fill="grey" fill-opacity="0.25" points="234.127,54.957 250.461,57.455 249.007,48.081 232.672,45.583 " />
<polygon stroke="black" stroke-width="1" fill="grey" fill-opacity="0.25" points="31.662,373.531 266.318,373.531 266.318,149.625 31.662,149.625 " />
<polygon stroke="black" stroke-width="1" fill="grey" fill-opacity="0.25" points="250.461,57.455 234.127,54.957 232.672,45.583 249.007,48.081 " />
<polygon stroke="black" stroke-width="1" fill="grey" fill-opacity="0.25" points="31.662,373.531 266.318,373.531 266.318,149.625 31.662,149.625 " />
<polygon stroke="black" stroke-width="1" fill="grey" fill-opacity="0.25" points="241.108,102.436 257.442,102.439 250.461,57.455 234.127,54.957 " />
<polygon stroke="black" stroke-width="1" fill="grey" fill-opacity="0.25" points="31.662,373.531 266.318,373.531 266.318,149.625 31.662,149.625 " />
<polygon stroke="black" stroke-width="1" fill="grey" fill-opacity="0.25" points="257.442,102.439 241.108,102.436 234.127,54.957 250.461,57.455 " />
<polygon stroke="black" stroke-width="1" fill="grey" fill-opacity="0.25" points="31.662,373.531 266.318,373.531 266.318,149.625 31.662,149.625 " />
<polygon stroke="black" stroke-width="1" fill="grey" fill-opacity="0.25" points="232.672,45.583 234.127,54.957 143.031,50.083 143.032,40.710 " />
<polygon stroke="black" stroke-width="1" fill="grey" fill-opacity="0.25" points="234.127,54.957 232.672,45.583 143.032,40.710 143.031,50.083 " />
<polygon stroke="black" stroke-width="1" fill="grey" fill-opacity="0.25" points="31.662,373.531 266.318,373.531 266.318,149.625 31.662,149.625 " />
<polygon stroke="black" stroke-width="1" fill="grey" fill-opacity="0.25" points="44.935,102.402 44.931,125.304 28.596,126.965 28.601,102.399 " />
<polygon stroke="black" stroke-width="1" fill="grey" fill-opacity="0.25" points="31.662,373.531 266.318,373.531 266.318,149.625 31.662,149.625 " />
<polygon stroke="black" stroke-width="1" fill="grey" fill-opacity="0.25" points="31.662,373.531 266.318,373.531 266.318,149.625 31.662,149.625 " />
<polygon stroke="black" stroke-width="1" fill="grey" fill-opacity="0.25" points="44.935,102.402 44.931,125.304 143.018,122.327 143.022,102.419 " />
<polygon stroke="black" stroke-width="1" fill="grey" fill-opacity="0.25" points="31.662,373.531 266.318,373.531 266.318,149.625 31.662,149.625 " />
<polygon stroke="black" stroke-width="1" fill="grey" fill-opacity="0.25" points="143.022,102.419 143.018,122.327 44.931,125.304 44.935,102.402 " />
<polygon stroke="black" stroke-width="1" fill="grey" fill-opacity="0.25" points="31.662,373.531 266.318,373.531 266.318,149.625 31.662,149.625 " />
<polygon stroke="black" stroke-width="1" fill="grey" fill-opacity="0.25" points="28.601,102.399 28.596,126.965 44.931,125.304 44.935,102.402 " />
<polygon stroke="black" stroke-width="1" fill="grey" fill-opacity="0.25" points="31.662,373.531 266.318,373.531 266.318,149.625 31.662,149.625 " />
<polygon stroke="black" stroke-width="1" fill="grey" fill-opacity="0.25" points="31.662,373.531 266.318,373.531 266.318,149.625 31.662,149.625 " />
<polygon stroke="black" stroke-width="1" fill="grey" fill-opacity="0.25" points="51.933,54.925 53.391,45.552 37.056,48.044 35.597,57.417 " />
<polygon stroke="black" stroke-width="1" fill="grey" fill-opacity="0.25" points="31.662,373.531 266.318,373.531 266.318,149.625 31.662,149.625 " />
<polygon stroke="black" stroke-width="1" fill="grey" fill-opacity="0.25" points="35.597,57.417 37.056,48.044 53.391,45.552 51.933,54.925 " />
<polygon stroke="black" stroke-width="1" fill="grey" fill-opacity="0.25" points="31.662,373.531 266.318,373.531 266.318,149.625 31.662,149.625 " />
<polygon stroke="black" stroke-width="1" fill="grey" fill-opacity="0.25" points="44.935,102.402 51.933,54.925 35.597,57.417 28.601,102.399 " />
<polygon stroke="black" stroke-width="1" fill="grey" fill-opacity="0.25" points="31.662,373.531 266.318,373.531 266.318,149.625 31.662,149.625 " />
<polygon stroke="black" stroke-width="1" fill="grey" fill-opacity="0.25" points="28.601,102.399 35.597,57.417 51.933,54.925 44.935,102.402 " />
<polygon stroke="black" stroke-width="1" fill="grey" fill-opacity="0.25" points="51.933,54.925 143.031,50.083 143.032,40.710 53.391,45.552 " />
<polygon stroke="black" stroke-width="1" fill="grey" fill-opacity="0.25" points="53.391,45.552 143.032,40.710 143.031,50.083 51.933,54.925 " />
<polygon stroke="black" stroke-width="1" fill="grey" fill-opacity="0.25" points="31.662,373.531 266.318,373.531 266.318,149.625 31.662,149.625 " />
<polygon stroke="black" stroke-width="1" fill="grey" fill-opacity="0.25" points="567.718,932.538 567.718,190.979 738.505,190.978 738.505,932.537 " />
<polygon stroke="black" stroke-width="1" fill="grey" fill-opacity="0.25" points="567.718,932.538 567.718,190.979 738.505,190.978 738.505,932.537 " />
<polygon stroke="black" stroke-width="1" fill="grey" fill-opacity="0.25" points="567.718,932.538 567.718,190.979 738.505,190.978 738.505,932.537 " />
<polygon stroke="black" stroke-width="1" fill="grey" fill-opacity="0.25" points="567.718,932.538 567.718,190.979 738.505,190.978 738.505,932.537 " />
<polygon stroke="black" stroke-width="1" fill="grey" fill-opacity="0.25" points="567.718,932.538 567.718,190.979 738.505,190.978 738.505,932.537 " />
<polygon stroke="black" stroke-width="1" fill="grey" fill-opacity="0.25" points="567.718,932.538 567.718,190.979 738.505,190.978 738.505,932.537 " />
<polygon stroke="black" stroke-width="1" fill="grey" fill-opacity="0.25" points="567.718,932.538 567.718,190.979 738.505,190.978 738.505,932.537 " />
<polygon stroke="black" stroke-width="1" fill="grey" fill-opacity="0.25" points="567.718,932.538 567.718,190.979 738.505,190.978 738.505,932.537 " />
<polygon stroke="black" stroke-width="1" fill="grey" fill-opacity="0.25" points="567.718,932.538 567.718,190.979 738.505,190.978 738.505,932.537 " />
<polygon stroke="black" stroke-width="1" fill="grey" fill-opacity="0.25" points="567.718,932.538 567.718,190.979 738.505,190.978 738.505,932.537 " />
<polygon stroke="black" stroke-width="1" fill="grey" fill-opacity="0.25" points="567.718,932.538 567.718,190.979 738.505,190.978 738.505,932.537 " />
<polygon stroke="black" stroke-width="1" fill="grey" fill-opacity="0.25" points="567.718,932.538 567.718,190.979 738.505,190.978 738.505,932.537 " />
<polygon stroke="black" stroke-width="1" fill="grey" fill-opacity="0.25" points="567.718,932.538 567.718,190.979 738.505,190.978 738.505,932.537 " />
<polygon stroke="black" stroke-width="1" fill="grey" fill-opacity="0.25" points="567.718,932.538 567.718,190.979 738.505,190.978 738.505,932.537 " />
<polygon stroke="black" stroke-width="1" fill="grey" fill-opacity="0.25" points="567.718,932.538 567.718,190.979 738.505,190.978 738.505,932.537 " />
<polygon stroke="black" stroke-width="1" fill="grey" fill-opacity="0.25" points="567.718,932.538 567.718,190.979 738.505,190.978 738.505,932.537 " />

</svg>
