<?xml version="1.0" standalone="no"?>
<!DOCTYPE svg PUBLIC "-//W3C//DTD SVG 1.1//EN" 
  "http://www.w3.org/Graphics/SVG/1.1/DTD/svg11.dtd">
<svg width="243" height="424" viewBox="0 0 243 424"
     xmlns="http://www.w3.org/2000/svg" version="1.1">
<desc>'sidewalk.blend', Cube, (Blender 2.71 (sub 0))</desc>
<polygon stroke="black" stroke-width="1" fill="rgb(204, 204, 204)" fill-opacity="0.25" points="163.937,417.382 215.579,417.382 215.579,327.273 163.937,327.273 " />
<polygon stroke="black" stroke-width="1" fill="rgb(204, 204, 204)" fill-opacity="0.25" points="7.995,200.970 57.216,200.970 57.216,115.086 7.995,115.086 " />
<polygon stroke="black" stroke-width="1" fill="rgb(204, 204, 204)" fill-opacity="0.25" points="0.000,424.000 243.000,424.000 243.000,0.000 0.000,0.000 " />
<polygon stroke="black" stroke-width="1" fill="rgb(204, 204, 204)" fill-opacity="0.25" points="7.995,200.970 57.216,200.970 57.216,115.086 7.995,115.086 " />
<polygon stroke="black" stroke-width="1" fill="rgb(204, 204, 204)" fill-opacity="0.25" points="56.761,392.265 94.170,392.265 94.170,326.992 56.761,326.992 " />
<polygon stroke="black" stroke-width="1" fill="rgb(204, 204, 204)" fill-opacity="0.25" points="12.047,209.419 12.047,320.540 99.993,320.540 99.993,209.419 " />
<polygon stroke="black" stroke-width="1" fill="rgb(204, 204, 204)" fill-opacity="0.25" points="0.000,424.000 243.000,424.000 243.000,0.000 0.000,0.000 " />
<polygon stroke="black" stroke-width="1" fill="rgb(204, 204, 204)" fill-opacity="0.25" points="0.000,424.000 243.000,424.000 243.000,0.000 0.000,0.000 " />
<polygon stroke="black" stroke-width="1" fill="rgb(204, 204, 204)" fill-opacity="0.25" points="0.000,424.000 243.000,424.000 243.000,0.000 0.000,0.000 " />
<polygon stroke="black" stroke-width="1" fill="rgb(204, 204, 204)" fill-opacity="0.25" points="18.222,89.032 62.864,89.032 62.864,11.138 18.222,11.138 " />
<polygon stroke="black" stroke-width="1" fill="rgb(204, 204, 204)" fill-opacity="0.25" points="0.000,424.000 243.000,424.000 243.000,0.000 0.000,0.000 " />
<polygon stroke="black" stroke-width="1" fill="rgb(204, 204, 204)" fill-opacity="0.25" points="18.222,89.032 62.864,89.032 62.864,11.138 18.222,11.138 " />
<polygon stroke="black" stroke-width="1" fill="rgb(204, 204, 204)" fill-opacity="0.25" points="12.047,209.419 12.047,320.540 99.993,320.540 99.993,209.419 " />
<polygon stroke="black" stroke-width="1" fill="rgb(204, 204, 204)" fill-opacity="0.25" points="163.937,417.382 215.579,417.382 215.579,327.273 163.937,327.273 " />
<polygon stroke="black" stroke-width="1" fill="rgb(204, 204, 204)" fill-opacity="0.25" points="163.937,417.382 215.579,417.382 215.579,327.273 163.937,327.273 " />
<polygon stroke="black" stroke-width="1" fill="rgb(204, 204, 204)" fill-opacity="0.25" points="12.047,209.419 12.047,320.540 99.993,320.540 99.993,209.419 " />
<polygon stroke="black" stroke-width="1" fill="rgb(204, 204, 204)" fill-opacity="0.25" points="7.995,200.970 57.216,200.970 57.216,115.086 7.995,115.086 " />
<polygon stroke="black" stroke-width="1" fill="rgb(204, 204, 204)" fill-opacity="0.25" points="0.000,424.000 243.000,424.000 243.000,0.000 0.000,0.000 " />
<polygon stroke="black" stroke-width="1" fill="rgb(204, 204, 204)" fill-opacity="0.25" points="18.222,89.032 62.864,89.032 62.864,11.138 18.222,11.138 " />
<polygon stroke="black" stroke-width="1" fill="rgb(204, 204, 204)" fill-opacity="0.25" points="0.000,424.000 243.000,424.000 243.000,0.000 0.000,0.000 " />
<polygon stroke="black" stroke-width="1" fill="rgb(204, 204, 204)" fill-opacity="0.25" points="0.000,424.000 243.000,424.000 243.000,0.000 0.000,0.000 " />
<polygon stroke="black" stroke-width="1" fill="rgb(204, 204, 204)" fill-opacity="0.25" points="56.761,392.265 94.170,392.265 94.170,326.992 56.761,326.992 " />
<polygon stroke="black" stroke-width="1" fill="rgb(204, 204, 204)" fill-opacity="0.25" points="163.937,417.382 215.579,417.382 215.579,327.273 163.937,327.273 " />
<polygon stroke="black" stroke-width="1" fill="rgb(204, 204, 204)" fill-opacity="0.25" points="12.047,209.419 12.047,320.540 99.993,320.540 99.993,209.419 " />
<polygon stroke="black" stroke-width="1" fill="rgb(204, 204, 204)" fill-opacity="0.25" points="7.995,200.970 57.216,200.970 57.216,115.086 7.995,115.086 " />
<polygon stroke="black" stroke-width="1" fill="rgb(204, 204, 204)" fill-opacity="0.25" points="0.000,424.000 243.000,424.000 243.000,0.000 0.000,0.000 " />
<polygon stroke="black" stroke-width="1" fill="rgb(204, 204, 204)" fill-opacity="0.25" points="0.000,424.000 243.000,424.000 243.000,0.000 0.000,0.000 " />
<polygon stroke="black" stroke-width="1" fill="rgb(204, 204, 204)" fill-opacity="0.25" points="18.222,89.032 62.864,89.032 62.864,11.138 18.222,11.138 " />
<polygon stroke="black" stroke-width="1" fill="rgb(204, 204, 204)" fill-opacity="0.25" points="0.000,424.000 243.000,424.000 243.000,0.000 0.000,0.000 " />
<polygon stroke="black" stroke-width="1" fill="rgb(204, 204, 204)" fill-opacity="0.25" points="0.000,424.000 243.000,424.000 243.000,0.000 0.000,0.000 " />
<polygon stroke="black" stroke-width="1" fill="rgb(204, 204, 204)" fill-opacity="0.25" points="163.937,417.382 215.579,417.382 215.579,327.273 163.937,327.273 " />
<polygon stroke="black" stroke-width="1" fill="rgb(204, 204, 204)" fill-opacity="0.25" points="12.047,209.419 12.047,320.540 99.993,320.540 99.993,209.419 " />
<polygon stroke="black" stroke-width="1" fill="rgb(204, 204, 204)" fill-opacity="0.25" points="7.995,200.970 57.216,200.970 57.216,115.086 7.995,115.086 " />
<polygon stroke="black" stroke-width="1" fill="rgb(204, 204, 204)" fill-opacity="0.25" points="0.000,424.000 243.000,424.000 243.000,0.000 0.000,0.000 " />
<polygon stroke="black" stroke-width="1" fill="rgb(204, 204, 204)" fill-opacity="0.25" points="0.000,424.000 243.000,424.000 243.000,0.000 0.000,0.000 " />
<polygon stroke="black" stroke-width="1" fill="rgb(204, 204, 204)" fill-opacity="0.25" points="18.222,89.032 62.864,89.032 62.864,11.138 18.222,11.138 " />
<polygon stroke="black" stroke-width="1" fill="rgb(204, 204, 204)" fill-opacity="0.25" points="0.000,424.000 243.000,424.000 243.000,0.000 0.000,0.000 " />
<polygon stroke="black" stroke-width="1" fill="rgb(204, 204, 204)" fill-opacity="0.25" points="0.000,424.000 243.000,424.000 243.000,0.000 0.000,0.000 " />
<polygon stroke="black" stroke-width="1" fill="rgb(204, 204, 204)" fill-opacity="0.25" points="163.937,417.382 215.579,417.382 215.579,327.273 163.937,327.273 " />
<polygon stroke="black" stroke-width="1" fill="rgb(204, 204, 204)" fill-opacity="0.25" points="12.047,209.419 12.047,320.540 99.993,320.540 99.993,209.419 " />
<polygon stroke="black" stroke-width="1" fill="rgb(204, 204, 204)" fill-opacity="0.25" points="7.995,200.970 57.216,200.970 57.216,115.086 7.995,115.086 " />
<polygon stroke="black" stroke-width="1" fill="rgb(204, 204, 204)" fill-opacity="0.25" points="0.000,424.000 243.000,424.000 243.000,0.000 0.000,0.000 " />
<polygon stroke="black" stroke-width="1" fill="rgb(204, 204, 204)" fill-opacity="0.25" points="0.000,424.000 243.000,424.000 243.000,0.000 0.000,0.000 " />
<polygon stroke="black" stroke-width="1" fill="rgb(204, 204, 204)" fill-opacity="0.25" points="18.222,89.032 62.864,89.032 62.864,11.138 18.222,11.138 " />
<polygon stroke="black" stroke-width="1" fill="rgb(204, 204, 204)" fill-opacity="0.25" points="0.000,424.000 243.000,424.000 243.000,0.000 0.000,0.000 " />
<polygon stroke="black" stroke-width="1" fill="rgb(204, 204, 204)" fill-opacity="0.25" points="0.000,424.000 243.000,424.000 243.000,0.000 0.000,0.000 " />
<polygon stroke="black" stroke-width="1" fill="rgb(204, 204, 204)" fill-opacity="0.25" points="163.937,417.382 215.579,417.382 215.579,327.273 163.937,327.273 " />
<polygon stroke="black" stroke-width="1" fill="rgb(204, 204, 204)" fill-opacity="0.25" points="12.047,209.419 12.047,320.540 99.993,320.540 99.993,209.419 " />
<polygon stroke="black" stroke-width="1" fill="rgb(204, 204, 204)" fill-opacity="0.25" points="7.995,200.970 57.216,200.970 57.216,115.086 7.995,115.086 " />
<polygon stroke="black" stroke-width="1" fill="rgb(204, 204, 204)" fill-opacity="0.25" points="0.000,424.000 243.000,424.000 243.000,0.000 0.000,0.000 " />
<polygon stroke="black" stroke-width="1" fill="rgb(204, 204, 204)" fill-opacity="0.25" points="0.000,424.000 243.000,424.000 243.000,0.000 0.000,0.000 " />
<polygon stroke="black" stroke-width="1" fill="rgb(204, 204, 204)" fill-opacity="0.25" points="18.222,89.032 62.864,89.032 62.864,11.138 18.222,11.138 " />
<polygon stroke="black" stroke-width="1" fill="rgb(204, 204, 204)" fill-opacity="0.25" points="0.000,424.000 243.000,424.000 243.000,0.000 0.000,0.000 " />
<polygon stroke="black" stroke-width="1" fill="rgb(204, 204, 204)" fill-opacity="0.25" points="0.000,424.000 243.000,424.000 243.000,0.000 0.000,0.000 " />
<polygon stroke="black" stroke-width="1" fill="rgb(204, 204, 204)" fill-opacity="0.25" points="163.937,417.382 215.579,417.382 215.579,327.273 163.937,327.273 " />
<polygon stroke="black" stroke-width="1" fill="rgb(204, 204, 204)" fill-opacity="0.25" points="12.047,209.419 12.047,320.540 99.993,320.540 99.993,209.419 " />
<polygon stroke="black" stroke-width="1" fill="rgb(204, 204, 204)" fill-opacity="0.25" points="7.995,200.970 57.216,200.970 57.216,115.086 7.995,115.086 " />
<polygon stroke="black" stroke-width="1" fill="rgb(204, 204, 204)" fill-opacity="0.25" points="0.000,424.000 243.000,424.000 243.000,0.000 0.000,0.000 " />
<polygon stroke="black" stroke-width="1" fill="rgb(204, 204, 204)" fill-opacity="0.25" points="0.000,424.000 243.000,424.000 243.000,0.000 0.000,0.000 " />
<polygon stroke="black" stroke-width="1" fill="rgb(204, 204, 204)" fill-opacity="0.25" points="18.222,89.032 62.864,89.032 62.864,11.138 18.222,11.138 " />
<polygon stroke="black" stroke-width="1" fill="rgb(204, 204, 204)" fill-opacity="0.25" points="0.000,424.000 243.000,424.000 243.000,0.000 0.000,0.000 " />
<polygon stroke="black" stroke-width="1" fill="rgb(204, 204, 204)" fill-opacity="0.25" points="0.000,424.000 243.000,424.000 243.000,0.000 0.000,0.000 " />
<polygon stroke="black" stroke-width="1" fill="rgb(204, 204, 204)" fill-opacity="0.25" points="76.428,408.615 125.300,408.615 125.300,323.341 76.428,323.341 " />
<polygon stroke="black" stroke-width="1" fill="rgb(204, 204, 204)" fill-opacity="0.25" points="18.222,89.032 62.864,89.032 62.864,11.138 18.222,11.138 " />
<polygon stroke="black" stroke-width="1" fill="rgb(204, 204, 204)" fill-opacity="0.25" points="0.000,424.000 243.000,424.000 243.000,0.000 0.000,0.000 " />
<polygon stroke="black" stroke-width="1" fill="rgb(204, 204, 204)" fill-opacity="0.25" points="76.428,408.615 125.300,408.615 125.300,323.341 76.428,323.341 " />
<polygon stroke="black" stroke-width="1" fill="rgb(204, 204, 204)" fill-opacity="0.25" points="18.222,89.032 62.864,89.032 62.864,11.138 18.222,11.138 " />
<polygon stroke="black" stroke-width="1" fill="rgb(204, 204, 204)" fill-opacity="0.25" points="0.000,424.000 243.000,424.000 243.000,0.000 0.000,0.000 " />
<polygon stroke="black" stroke-width="1" fill="rgb(204, 204, 204)" fill-opacity="0.25" points="0.000,424.000 243.000,424.000 243.000,0.000 0.000,0.000 " />
<polygon stroke="black" stroke-width="1" fill="rgb(204, 204, 204)" fill-opacity="0.25" points="18.222,89.032 62.864,89.032 62.864,11.138 18.222,11.138 " />
<polygon stroke="black" stroke-width="1" fill="rgb(204, 204, 204)" fill-opacity="0.25" points="18.222,89.032 62.864,89.032 62.864,11.138 18.222,11.138 " />
<polygon stroke="black" stroke-width="1" fill="rgb(204, 204, 204)" fill-opacity="0.25" points="0.000,424.000 243.000,424.000 243.000,0.000 0.000,0.000 " />
<polygon stroke="black" stroke-width="1" fill="rgb(204, 204, 204)" fill-opacity="0.25" points="0.000,424.000 243.000,424.000 243.000,0.000 0.000,0.000 " />
<polygon stroke="black" stroke-width="1" fill="rgb(204, 204, 204)" fill-opacity="0.25" points="0.000,424.000 243.000,424.000 243.000,0.000 0.000,0.000 " />
<polygon stroke="black" stroke-width="1" fill="rgb(204, 204, 204)" fill-opacity="0.25" points="0.000,424.000 243.000,424.000 243.000,0.000 0.000,0.000 " />
<polygon stroke="black" stroke-width="1" fill="rgb(204, 204, 204)" fill-opacity="0.25" points="18.222,89.032 62.864,89.032 62.864,11.138 18.222,11.138 " />
<polygon stroke="black" stroke-width="1" fill="rgb(204, 204, 204)" fill-opacity="0.25" points="18.222,89.032 62.864,89.032 62.864,11.138 18.222,11.138 " />
<polygon stroke="black" stroke-width="1" fill="rgb(204, 204, 204)" fill-opacity="0.25" points="18.222,89.032 62.864,89.032 62.864,11.138 18.222,11.138 " />
<polygon stroke="black" stroke-width="1" fill="rgb(204, 204, 204)" fill-opacity="0.25" points="0.000,424.000 243.000,424.000 243.000,0.000 0.000,0.000 " />
<polygon stroke="black" stroke-width="1" fill="rgb(204, 204, 204)" fill-opacity="0.25" points="0.000,424.000 243.000,424.000 243.000,0.000 0.000,0.000 " />
<polygon stroke="black" stroke-width="1" fill="rgb(204, 204, 204)" fill-opacity="0.25" points="0.000,424.000 243.000,424.000 243.000,0.000 0.000,0.000 " />
<polygon stroke="black" stroke-width="1" fill="rgb(204, 204, 204)" fill-opacity="0.25" points="0.000,424.000 243.000,424.000 243.000,0.000 0.000,0.000 " />
<polygon stroke="black" stroke-width="1" fill="rgb(204, 204, 204)" fill-opacity="0.25" points="18.222,89.032 62.864,89.032 62.864,11.138 18.222,11.138 " />
<polygon stroke="black" stroke-width="1" fill="rgb(204, 204, 204)" fill-opacity="0.25" points="18.222,89.032 62.864,89.032 62.864,11.138 18.222,11.138 " />
<polygon stroke="black" stroke-width="1" fill="rgb(204, 204, 204)" fill-opacity="0.25" points="18.222,89.032 62.864,89.032 62.864,11.138 18.222,11.138 " />
<polygon stroke="black" stroke-width="1" fill="rgb(204, 204, 204)" fill-opacity="0.25" points="18.222,89.032 62.864,89.032 62.864,11.138 18.222,11.138 " />
<polygon stroke="black" stroke-width="1" fill="rgb(204, 204, 204)" fill-opacity="0.25" points="0.000,424.000 243.000,424.000 243.000,0.000 0.000,0.000 " />
<polygon stroke="black" stroke-width="1" fill="rgb(204, 204, 204)" fill-opacity="0.25" points="0.000,424.000 243.000,424.000 243.000,0.000 0.000,0.000 " />
<polygon stroke="black" stroke-width="1" fill="rgb(204, 204, 204)" fill-opacity="0.25" points="18.222,89.032 62.864,89.032 62.864,11.138 18.222,11.138 " />
<polygon stroke="black" stroke-width="1" fill="rgb(204, 204, 204)" fill-opacity="0.25" points="18.222,89.032 62.864,89.032 62.864,11.138 18.222,11.138 " />
<polygon stroke="black" stroke-width="1" fill="rgb(204, 204, 204)" fill-opacity="0.25" points="0.000,424.000 243.000,424.000 243.000,0.000 0.000,0.000 " />
<polygon stroke="black" stroke-width="1" fill="rgb(204, 204, 204)" fill-opacity="0.25" points="0.000,424.000 243.000,424.000 243.000,0.000 0.000,0.000 " />
<polygon stroke="black" stroke-width="1" fill="rgb(204, 204, 204)" fill-opacity="0.25" points="18.222,89.032 62.864,89.032 62.864,11.138 18.222,11.138 " />
<polygon stroke="black" stroke-width="1" fill="rgb(204, 204, 204)" fill-opacity="0.25" points="18.222,89.032 62.864,89.032 62.864,11.138 18.222,11.138 " />
<polygon stroke="black" stroke-width="1" fill="rgb(204, 204, 204)" fill-opacity="0.25" points="0.000,424.000 243.000,424.000 243.000,0.000 0.000,0.000 " />
<polygon stroke="black" stroke-width="1" fill="rgb(204, 204, 204)" fill-opacity="0.25" points="0.000,424.000 243.000,424.000 243.000,0.000 0.000,0.000 " />
<polygon stroke="black" stroke-width="1" fill="rgb(204, 204, 204)" fill-opacity="0.25" points="18.222,89.032 62.864,89.032 62.864,11.138 18.222,11.138 " />
<polygon stroke="black" stroke-width="1" fill="rgb(204, 204, 204)" fill-opacity="0.25" points="18.222,89.032 62.864,89.032 62.864,11.138 18.222,11.138 " />
<polygon stroke="black" stroke-width="1" fill="rgb(204, 204, 204)" fill-opacity="0.25" points="0.000,424.000 243.000,424.000 243.000,0.000 0.000,0.000 " />
<polygon stroke="black" stroke-width="1" fill="rgb(204, 204, 204)" fill-opacity="0.25" points="0.000,424.000 243.000,424.000 243.000,0.000 0.000,0.000 " />
<polygon stroke="black" stroke-width="1" fill="rgb(204, 204, 204)" fill-opacity="0.25" points="18.222,89.032 62.864,89.032 62.864,11.138 18.222,11.138 " />
<polygon stroke="black" stroke-width="1" fill="rgb(204, 204, 204)" fill-opacity="0.25" points="18.222,89.032 62.864,89.032 62.864,11.138 18.222,11.138 " />
<polygon stroke="black" stroke-width="1" fill="rgb(204, 204, 204)" fill-opacity="0.25" points="0.000,424.000 243.000,424.000 243.000,0.000 0.000,0.000 " />
<polygon stroke="black" stroke-width="1" fill="rgb(204, 204, 204)" fill-opacity="0.25" points="0.000,424.000 243.000,424.000 243.000,0.000 0.000,0.000 " />
<polygon stroke="black" stroke-width="1" fill="rgb(204, 204, 204)" fill-opacity="0.25" points="18.222,89.032 62.864,89.032 62.864,11.138 18.222,11.138 " />
<polygon stroke="black" stroke-width="1" fill="rgb(204, 204, 204)" fill-opacity="0.25" points="18.222,89.032 62.864,89.032 62.864,11.138 18.222,11.138 " />
<polygon stroke="black" stroke-width="1" fill="rgb(204, 204, 204)" fill-opacity="0.25" points="0.000,424.000 243.000,424.000 243.000,0.000 0.000,0.000 " />
<polygon stroke="black" stroke-width="1" fill="rgb(204, 204, 204)" fill-opacity="0.25" points="0.000,424.000 243.000,424.000 243.000,0.000 0.000,0.000 " />
<polygon stroke="black" stroke-width="1" fill="rgb(204, 204, 204)" fill-opacity="0.25" points="18.222,89.032 62.864,89.032 62.864,11.138 18.222,11.138 " />
<polygon stroke="black" stroke-width="1" fill="rgb(204, 204, 204)" fill-opacity="0.25" points="18.222,89.032 62.864,89.032 62.864,11.138 18.222,11.138 " />
<polygon stroke="black" stroke-width="1" fill="rgb(204, 204, 204)" fill-opacity="0.25" points="0.000,424.000 243.000,424.000 243.000,0.000 0.000,0.000 " />
<polygon stroke="black" stroke-width="1" fill="rgb(204, 204, 204)" fill-opacity="0.25" points="0.000,424.000 243.000,424.000 243.000,0.000 0.000,0.000 " />
<polygon stroke="black" stroke-width="1" fill="rgb(204, 204, 204)" fill-opacity="0.25" points="18.222,89.032 62.864,89.032 62.864,11.138 18.222,11.138 " />
<polygon stroke="black" stroke-width="1" fill="rgb(204, 204, 204)" fill-opacity="0.25" points="18.222,89.032 62.864,89.032 62.864,11.138 18.222,11.138 " />
<polygon stroke="black" stroke-width="1" fill="rgb(204, 204, 204)" fill-opacity="0.25" points="0.000,424.000 243.000,424.000 243.000,0.000 0.000,0.000 " />
<polygon stroke="black" stroke-width="1" fill="rgb(204, 204, 204)" fill-opacity="0.25" points="0.000,424.000 243.000,424.000 243.000,0.000 0.000,0.000 " />
<polygon stroke="black" stroke-width="1" fill="rgb(204, 204, 204)" fill-opacity="0.25" points="18.222,89.032 62.864,89.032 62.864,11.138 18.222,11.138 " />
<polygon stroke="black" stroke-width="1" fill="rgb(204, 204, 204)" fill-opacity="0.25" points="18.222,89.032 62.864,89.032 62.864,11.138 18.222,11.138 " />
<polygon stroke="black" stroke-width="1" fill="rgb(204, 204, 204)" fill-opacity="0.25" points="0.000,424.000 243.000,424.000 243.000,0.000 0.000,0.000 " />
<polygon stroke="black" stroke-width="1" fill="rgb(204, 204, 204)" fill-opacity="0.25" points="0.000,424.000 243.000,424.000 243.000,0.000 0.000,0.000 " />
<polygon stroke="black" stroke-width="1" fill="rgb(204, 204, 204)" fill-opacity="0.25" points="18.222,89.032 62.864,89.032 62.864,11.138 18.222,11.138 " />
<polygon stroke="black" stroke-width="1" fill="rgb(204, 204, 204)" fill-opacity="0.25" points="18.222,89.032 62.864,89.032 62.864,11.138 18.222,11.138 " />
<polygon stroke="black" stroke-width="1" fill="rgb(204, 204, 204)" fill-opacity="0.25" points="0.000,424.000 243.000,424.000 243.000,0.000 0.000,0.000 " />
<polygon stroke="black" stroke-width="1" fill="rgb(204, 204, 204)" fill-opacity="0.25" points="0.000,424.000 243.000,424.000 243.000,0.000 0.000,0.000 " />
<polygon stroke="black" stroke-width="1" fill="rgb(204, 204, 204)" fill-opacity="0.25" points="18.222,89.032 62.864,89.032 62.864,11.138 18.222,11.138 " />
<polygon stroke="black" stroke-width="1" fill="rgb(204, 204, 204)" fill-opacity="0.25" points="18.222,89.032 62.864,89.032 62.864,11.138 18.222,11.138 " />
<polygon stroke="black" stroke-width="1" fill="rgb(204, 204, 204)" fill-opacity="0.25" points="0.000,424.000 243.000,424.000 243.000,0.000 0.000,0.000 " />
<polygon stroke="black" stroke-width="1" fill="rgb(204, 204, 204)" fill-opacity="0.25" points="0.000,424.000 243.000,424.000 243.000,0.000 0.000,0.000 " />
<polygon stroke="black" stroke-width="1" fill="rgb(204, 204, 204)" fill-opacity="0.25" points="18.222,89.032 62.864,89.032 62.864,11.138 18.222,11.138 " />
<polygon stroke="black" stroke-width="1" fill="rgb(204, 204, 204)" fill-opacity="0.25" points="18.222,89.032 62.864,89.032 62.864,11.138 18.222,11.138 " />
<polygon stroke="black" stroke-width="1" fill="rgb(204, 204, 204)" fill-opacity="0.25" points="0.000,424.000 243.000,424.000 243.000,0.000 0.000,0.000 " />
<polygon stroke="black" stroke-width="1" fill="rgb(204, 204, 204)" fill-opacity="0.25" points="0.000,424.000 243.000,424.000 243.000,0.000 0.000,0.000 " />
<polygon stroke="black" stroke-width="1" fill="rgb(204, 204, 204)" fill-opacity="0.25" points="18.222,89.032 62.864,89.032 62.864,11.138 18.222,11.138 " />
<polygon stroke="black" stroke-width="1" fill="rgb(204, 204, 204)" fill-opacity="0.25" points="18.222,89.032 62.864,89.032 62.864,11.138 18.222,11.138 " />
<polygon stroke="black" stroke-width="1" fill="rgb(204, 204, 204)" fill-opacity="0.25" points="0.000,424.000 243.000,424.000 243.000,0.000 0.000,0.000 " />
<polygon stroke="black" stroke-width="1" fill="rgb(204, 204, 204)" fill-opacity="0.25" points="0.000,424.000 243.000,424.000 243.000,0.000 0.000,0.000 " />
<polygon stroke="black" stroke-width="1" fill="rgb(204, 204, 204)" fill-opacity="0.25" points="0.000,424.000 243.000,424.000 243.000,0.000 0.000,0.000 " />
<polygon stroke="black" stroke-width="1" fill="rgb(204, 204, 204)" fill-opacity="0.25" points="18.222,89.032 62.864,89.032 62.864,11.138 18.222,11.138 " />
<polygon stroke="black" stroke-width="1" fill="rgb(204, 204, 204)" fill-opacity="0.25" points="0.000,424.000 243.000,424.000 243.000,0.000 0.000,0.000 " />
<polygon stroke="black" stroke-width="1" fill="rgb(204, 204, 204)" fill-opacity="0.25" points="0.000,424.000 243.000,424.000 243.000,0.000 0.000,0.000 " />
<polygon stroke="black" stroke-width="1" fill="rgb(204, 204, 204)" fill-opacity="0.25" points="18.222,89.032 62.864,89.032 62.864,11.138 18.222,11.138 " />
<polygon stroke="black" stroke-width="1" fill="rgb(204, 204, 204)" fill-opacity="0.25" points="0.000,424.000 243.000,424.000 243.000,0.000 0.000,0.000 " />

</svg>
