<?xml version="1.0" standalone="no"?>
<!DOCTYPE svg PUBLIC "-//W3C//DTD SVG 1.1//EN" 
  "http://www.w3.org/Graphics/SVG/1.1/DTD/svg11.dtd">
<svg width="1024" height="1024" viewBox="0 0 1024 1024"
     xmlns="http://www.w3.org/2000/svg" version="1.1">
<desc>'stairs.blend', Cube, (Blender 2.71 (sub 0))</desc>
<polygon stroke="black" stroke-width="1" fill="rgb(204, 204, 204)" fill-opacity="0.25" points="1693.334,837.532 2717.334,837.532 2717.334,-186.468 1693.334,-186.468 " />
<polygon stroke="black" stroke-width="1" fill="rgb(204, 204, 204)" fill-opacity="0.25" points="153.801,910.152 153.801,817.872 34.879,817.872 34.879,910.152 " />
<polygon stroke="black" stroke-width="1" fill="rgb(204, 204, 204)" fill-opacity="0.25" points="194.921,718.387 194.921,629.839 48.332,629.839 48.332,718.387 " />
<polygon stroke="black" stroke-width="1" fill="rgb(204, 204, 204)" fill-opacity="0.25" points="891.858,400.483 891.864,64.137 819.453,166.926 819.449,400.482 " />
<polygon stroke="black" stroke-width="1" fill="rgb(204, 204, 204)" fill-opacity="0.25" points="193.055,433.615 38.046,433.622 37.914,530.638 192.923,530.625 " />
<polygon stroke="black" stroke-width="1" fill="rgb(204, 204, 204)" fill-opacity="0.25" points="1693.334,837.532 2717.334,837.532 2717.334,-186.468 1693.334,-186.468 " />
<polygon stroke="black" stroke-width="1" fill="rgb(204, 204, 204)" fill-opacity="0.25" points="1693.334,837.532 2717.334,837.532 2717.334,-186.468 1693.334,-186.468 " />
<polygon stroke="black" stroke-width="1" fill="rgb(204, 204, 204)" fill-opacity="0.25" points="153.801,1009.951 153.801,910.152 34.879,910.152 34.879,1009.951 " />
<polygon stroke="black" stroke-width="1" fill="rgb(204, 204, 204)" fill-opacity="0.25" points="963.802,400.484 963.805,166.928 891.864,64.137 891.858,400.483 " />
<polygon stroke="black" stroke-width="1" fill="rgb(204, 204, 204)" fill-opacity="0.25" points="1693.334,837.532 2717.334,837.532 2717.334,-186.468 1693.334,-186.468 " />
<polygon stroke="black" stroke-width="1" fill="rgb(204, 204, 204)" fill-opacity="0.25" points="1693.334,837.532 2717.334,837.532 2717.334,-186.468 1693.334,-186.468 " />
<polygon stroke="black" stroke-width="1" fill="rgb(204, 204, 204)" fill-opacity="0.25" points="246.073,910.152 246.073,817.872 153.801,817.872 153.801,910.152 " />
<polygon stroke="black" stroke-width="1" fill="rgb(204, 204, 204)" fill-opacity="0.25" points="287.730,718.387 287.730,629.839 194.921,629.839 194.921,718.387 " />
<polygon stroke="black" stroke-width="1" fill="rgb(204, 204, 204)" fill-opacity="0.25" points="193.620,16.761 38.611,16.750 38.440,142.575 193.450,142.586 " />
<polygon stroke="black" stroke-width="1" fill="rgb(204, 204, 204)" fill-opacity="0.25" points="1693.334,837.532 2717.334,837.532 2717.334,-186.468 1693.334,-186.468 " />
<polygon stroke="black" stroke-width="1" fill="rgb(204, 204, 204)" fill-opacity="0.25" points="246.073,1009.951 246.073,910.152 153.801,910.152 153.801,1009.951 " />
<polygon stroke="black" stroke-width="1" fill="rgb(204, 204, 204)" fill-opacity="0.25" points="194.921,788.331 194.921,752.168 48.332,752.168 48.332,788.331 " />
<polygon stroke="black" stroke-width="1" fill="rgb(204, 204, 204)" fill-opacity="0.25" points="891.858,584.970 891.858,492.726 819.447,492.726 819.447,584.970 " />
<polygon stroke="black" stroke-width="1" fill="rgb(204, 204, 204)" fill-opacity="0.25" points="326.504,433.603 259.780,433.609 259.648,530.612 326.372,530.600 " />
<polygon stroke="black" stroke-width="1" fill="rgb(204, 204, 204)" fill-opacity="0.25" points="1693.334,837.532 2717.334,837.532 2717.334,-186.468 1693.334,-186.468 " />
<polygon stroke="black" stroke-width="1" fill="rgb(204, 204, 204)" fill-opacity="0.25" points="963.804,584.969 963.802,492.726 891.858,492.726 891.858,584.970 " />
<polygon stroke="black" stroke-width="1" fill="rgb(204, 204, 204)" fill-opacity="0.25" points="1693.334,837.532 2717.334,837.532 2717.334,-186.468 1693.334,-186.468 " />
<polygon stroke="black" stroke-width="1" fill="rgb(204, 204, 204)" fill-opacity="0.25" points="1693.334,837.532 2717.334,837.532 2717.334,-186.468 1693.334,-186.468 " />
<polygon stroke="black" stroke-width="1" fill="rgb(204, 204, 204)" fill-opacity="0.25" points="327.069,16.785 260.345,16.773 260.174,142.599 326.899,142.611 " />
<polygon stroke="black" stroke-width="1" fill="rgb(204, 204, 204)" fill-opacity="0.25" points="194.921,752.168 194.921,718.387 48.332,718.387 48.332,752.168 " />
<polygon stroke="black" stroke-width="1" fill="rgb(204, 204, 204)" fill-opacity="0.25" points="891.858,492.726 891.858,400.483 819.449,400.482 819.447,492.726 " />
<polygon stroke="black" stroke-width="1" fill="rgb(204, 204, 204)" fill-opacity="0.25" points="259.780,433.609 193.055,433.615 192.923,530.625 259.648,530.612 " />
<polygon stroke="black" stroke-width="1" fill="rgb(204, 204, 204)" fill-opacity="0.25" points="963.802,492.726 963.802,400.484 891.858,400.483 891.858,492.726 " />
<polygon stroke="black" stroke-width="1" fill="rgb(204, 204, 204)" fill-opacity="0.25" points="287.730,762.374 287.730,718.387 194.921,718.387 194.921,762.374 " />
<polygon stroke="black" stroke-width="1" fill="rgb(204, 204, 204)" fill-opacity="0.25" points="260.345,16.773 193.620,16.761 193.450,142.586 260.174,142.599 " />
<polygon stroke="black" stroke-width="1" fill="rgb(204, 204, 204)" fill-opacity="0.25" points="1693.334,837.532 2717.334,837.532 2717.334,-186.468 1693.334,-186.468 " />
<polygon stroke="black" stroke-width="1" fill="rgb(204, 204, 204)" fill-opacity="0.25" points="1693.334,837.532 2717.334,837.532 2717.334,-186.468 1693.334,-186.468 " />
<polygon stroke="black" stroke-width="1" fill="rgb(204, 204, 204)" fill-opacity="0.25" points="1693.334,837.532 2717.334,837.532 2717.334,-186.468 1693.334,-186.468 " />
<polygon stroke="black" stroke-width="1" fill="rgb(204, 204, 204)" fill-opacity="0.25" points="1693.334,837.532 2717.334,837.532 2717.334,-186.468 1693.334,-186.468 " />
<polygon stroke="black" stroke-width="1" fill="rgb(204, 204, 204)" fill-opacity="0.25" points="708.535,231.980 708.535,76.068 603.255,76.068 603.255,231.980 " />
<polygon stroke="black" stroke-width="1" fill="rgb(204, 204, 204)" fill-opacity="0.25" points="891.860,677.215 891.858,584.970 819.447,584.970 819.448,677.215 " />
<polygon stroke="black" stroke-width="1" fill="rgb(204, 204, 204)" fill-opacity="0.25" points="393.360,433.597 326.504,433.603 326.372,530.600 393.360,530.588 " />
<polygon stroke="black" stroke-width="1" fill="rgb(204, 204, 204)" fill-opacity="0.25" points="963.805,677.214 963.804,584.969 891.858,584.970 891.860,677.215 " />
<polygon stroke="black" stroke-width="1" fill="rgb(204, 204, 204)" fill-opacity="0.25" points="1693.334,837.532 2717.334,837.532 2717.334,-186.468 1693.334,-186.468 " />
<polygon stroke="black" stroke-width="1" fill="rgb(204, 204, 204)" fill-opacity="0.25" points="393.359,16.797 327.069,16.785 326.899,142.611 393.360,142.623 " />
<polygon stroke="black" stroke-width="1" fill="rgb(204, 204, 204)" fill-opacity="0.25" points="193.318,239.596 38.309,239.591 38.177,336.606 193.186,336.606 " />
<polygon stroke="black" stroke-width="1" fill="rgb(204, 204, 204)" fill-opacity="0.25" points="1693.334,837.532 2717.334,837.532 2717.334,-186.468 1693.334,-186.468 " />
<polygon stroke="black" stroke-width="1" fill="rgb(204, 204, 204)" fill-opacity="0.25" points="430.389,910.152 430.389,817.872 338.550,817.872 338.550,910.152 " />
<polygon stroke="black" stroke-width="1" fill="rgb(204, 204, 204)" fill-opacity="0.25" points="465.856,718.387 465.856,629.839 377.012,629.839 377.012,718.387 " />
<polygon stroke="black" stroke-width="1" fill="rgb(204, 204, 204)" fill-opacity="0.25" points="1693.334,837.532 2717.334,837.532 2717.334,-186.468 1693.334,-186.468 " />
<polygon stroke="black" stroke-width="1" fill="rgb(204, 204, 204)" fill-opacity="0.25" points="430.389,1009.951 430.389,910.152 338.550,910.152 338.550,1009.951 " />
<polygon stroke="black" stroke-width="1" fill="rgb(204, 204, 204)" fill-opacity="0.25" points="326.767,239.608 260.043,239.602 259.911,336.606 326.635,336.605 " />
<polygon stroke="black" stroke-width="1" fill="rgb(204, 204, 204)" fill-opacity="0.25" points="708.535,299.858 708.535,231.980 603.255,231.980 603.255,299.858 " />
<polygon stroke="black" stroke-width="1" fill="rgb(204, 204, 204)" fill-opacity="0.25" points="260.043,239.602 193.318,239.596 193.186,336.606 259.911,336.606 " />
<polygon stroke="black" stroke-width="1" fill="rgb(204, 204, 204)" fill-opacity="0.25" points="1693.334,837.532 2717.334,837.532 2717.334,-186.468 1693.334,-186.468 " />
<polygon stroke="black" stroke-width="1" fill="rgb(204, 204, 204)" fill-opacity="0.25" points="393.360,239.614 326.767,239.608 326.635,336.605 393.360,336.605 " />
<polygon stroke="black" stroke-width="1" fill="rgb(204, 204, 204)" fill-opacity="0.25" points="708.535,499.200 708.535,406.105 603.255,406.105 603.255,499.200 " />
<polygon stroke="black" stroke-width="1" fill="rgb(204, 204, 204)" fill-opacity="0.25" points="1693.334,837.532 2717.334,837.532 2717.334,-186.468 1693.334,-186.468 " />
<polygon stroke="black" stroke-width="1" fill="rgb(204, 204, 204)" fill-opacity="0.25" points="338.550,910.152 338.550,817.872 246.073,817.872 246.073,910.152 " />
<polygon stroke="black" stroke-width="1" fill="rgb(204, 204, 204)" fill-opacity="0.25" points="377.012,718.387 377.012,629.839 287.730,629.839 287.730,718.387 " />
<polygon stroke="black" stroke-width="1" fill="rgb(204, 204, 204)" fill-opacity="0.25" points="1693.334,837.532 2717.334,837.532 2717.334,-186.468 1693.334,-186.468 " />
<polygon stroke="black" stroke-width="1" fill="rgb(204, 204, 204)" fill-opacity="0.25" points="338.550,1009.951 338.550,910.152 246.073,910.152 246.073,1009.951 " />
<polygon stroke="black" stroke-width="1" fill="rgb(204, 204, 204)" fill-opacity="0.25" points="708.535,815.305 708.535,710.025 603.255,710.025 603.255,815.305 " />
<polygon stroke="black" stroke-width="1" fill="rgb(204, 204, 204)" fill-opacity="0.25" points="1693.334,837.532 2717.334,837.532 2717.334,-186.468 1693.334,-186.468 " />
<polygon stroke="black" stroke-width="1" fill="rgb(204, 204, 204)" fill-opacity="0.25" points="1693.334,837.532 2717.334,837.532 2717.334,-186.468 1693.334,-186.468 " />
<polygon stroke="black" stroke-width="1" fill="rgb(204, 204, 204)" fill-opacity="0.25" points="193.450,142.586 38.440,142.575 38.309,239.591 193.318,239.596 " />
<polygon stroke="black" stroke-width="1" fill="rgb(204, 204, 204)" fill-opacity="0.25" points="326.899,142.611 260.174,142.599 260.043,239.602 326.767,239.608 " />
<polygon stroke="black" stroke-width="1" fill="rgb(204, 204, 204)" fill-opacity="0.25" points="260.174,142.599 193.450,142.586 193.318,239.596 260.043,239.602 " />
<polygon stroke="black" stroke-width="1" fill="rgb(204, 204, 204)" fill-opacity="0.25" points="393.360,142.623 326.899,142.611 326.767,239.608 393.360,239.614 " />
<polygon stroke="black" stroke-width="1" fill="rgb(204, 204, 204)" fill-opacity="0.25" points="193.186,336.606 38.177,336.606 38.046,433.622 193.055,433.615 " />
<polygon stroke="black" stroke-width="1" fill="rgb(204, 204, 204)" fill-opacity="0.25" points="326.635,336.605 259.911,336.606 259.780,433.609 326.504,433.603 " />
<polygon stroke="black" stroke-width="1" fill="rgb(204, 204, 204)" fill-opacity="0.25" points="259.911,336.606 193.186,336.606 193.055,433.615 259.780,433.609 " />
<polygon stroke="black" stroke-width="1" fill="rgb(204, 204, 204)" fill-opacity="0.25" points="393.360,336.605 326.635,336.605 326.504,433.603 393.360,433.597 " />
<polygon stroke="black" stroke-width="1" fill="rgb(204, 204, 204)" fill-opacity="0.25" points="1693.334,837.532 2717.334,837.532 2717.334,-186.468 1693.334,-186.468 " />
<polygon stroke="black" stroke-width="1" fill="rgb(204, 204, 204)" fill-opacity="0.25" points="522.669,910.152 522.669,817.872 430.389,817.872 430.389,910.152 " />
<polygon stroke="black" stroke-width="1" fill="rgb(204, 204, 204)" fill-opacity="0.25" points="554.405,718.387 554.404,629.839 465.856,629.839 465.856,718.387 " />
<polygon stroke="black" stroke-width="1" fill="rgb(204, 204, 204)" fill-opacity="0.25" points="1693.334,837.532 2717.334,837.532 2717.334,-186.468 1693.334,-186.468 " />
<polygon stroke="black" stroke-width="1" fill="rgb(204, 204, 204)" fill-opacity="0.25" points="522.669,1009.951 522.669,910.152 430.389,910.152 430.389,1009.951 " />
<polygon stroke="black" stroke-width="1" fill="rgb(204, 204, 204)" fill-opacity="0.25" points="1693.334,837.532 2717.334,837.532 2717.334,-186.468 1693.334,-186.468 " />
<polygon stroke="black" stroke-width="1" fill="rgb(204, 204, 204)" fill-opacity="0.25" points="708.535,76.068 708.535,12.518 603.255,12.518 603.255,76.068 " />
<polygon stroke="black" stroke-width="1" fill="rgb(204, 204, 204)" fill-opacity="0.25" points="1693.334,837.532 2717.334,837.532 2717.334,-186.468 1693.334,-186.468 " />
<polygon stroke="black" stroke-width="1" fill="rgb(204, 204, 204)" fill-opacity="0.25" points="0.000,1024.000 1024.000,1024.000 1024.000,0.000 0.000,0.000 " />
<polygon stroke="black" stroke-width="1" fill="rgb(204, 204, 204)" fill-opacity="0.25" points="0.000,1024.000 1024.000,1024.000 1024.000,0.000 0.000,0.000 " />
<polygon stroke="black" stroke-width="1" fill="rgb(204, 204, 204)" fill-opacity="0.25" points="1693.334,837.532 2717.334,837.532 2717.334,-186.468 1693.334,-186.468 " />
<polygon stroke="black" stroke-width="1" fill="rgb(204, 204, 204)" fill-opacity="0.25" points="0.000,1024.000 1024.000,1024.000 1024.000,0.000 0.000,0.000 " />
<polygon stroke="black" stroke-width="1" fill="rgb(204, 204, 204)" fill-opacity="0.25" points="1693.334,837.532 2717.334,837.532 2717.334,-186.468 1693.334,-186.468 " />
<polygon stroke="black" stroke-width="1" fill="rgb(204, 204, 204)" fill-opacity="0.25" points="1693.334,837.532 2717.334,837.532 2717.334,-186.468 1693.334,-186.468 " />
<polygon stroke="black" stroke-width="1" fill="rgb(204, 204, 204)" fill-opacity="0.25" points="1693.334,837.532 2717.334,837.532 2717.334,-186.468 1693.334,-186.468 " />
<polygon stroke="black" stroke-width="1" fill="rgb(204, 204, 204)" fill-opacity="0.25" points="1693.334,837.532 2717.334,837.532 2717.334,-186.468 1693.334,-186.468 " />
<polygon stroke="black" stroke-width="1" fill="rgb(204, 204, 204)" fill-opacity="0.25" points="1693.334,837.532 2717.334,837.532 2717.334,-186.468 1693.334,-186.468 " />
<polygon stroke="black" stroke-width="1" fill="rgb(204, 204, 204)" fill-opacity="0.25" points="0.000,1024.000 1024.000,1024.000 1024.000,0.000 0.000,0.000 " />
<polygon stroke="black" stroke-width="1" fill="rgb(204, 204, 204)" fill-opacity="0.25" points="1693.334,837.532 2717.334,837.532 2717.334,-186.468 1693.334,-186.468 " />
<polygon stroke="black" stroke-width="1" fill="rgb(204, 204, 204)" fill-opacity="0.25" points="1693.334,837.532 2717.334,837.532 2717.334,-186.468 1693.334,-186.468 " />
<polygon stroke="black" stroke-width="1" fill="rgb(204, 204, 204)" fill-opacity="0.25" points="708.535,604.745 708.535,499.200 603.255,499.200 603.255,604.745 " />
<polygon stroke="black" stroke-width="1" fill="rgb(204, 204, 204)" fill-opacity="0.25" points="708.535,710.025 708.535,604.745 603.255,604.745 603.255,710.025 " />
<polygon stroke="black" stroke-width="1" fill="rgb(204, 204, 204)" fill-opacity="0.25" points="1693.334,837.532 2717.334,837.532 2717.334,-186.468 1693.334,-186.468 " />
<polygon stroke="black" stroke-width="1" fill="rgb(204, 204, 204)" fill-opacity="0.25" points="708.535,406.105 708.535,299.858 603.255,299.858 603.255,406.105 " />
<polygon stroke="black" stroke-width="1" fill="rgb(204, 204, 204)" fill-opacity="0.25" points="996.383,827.617 679.677,827.617 679.677,953.475 996.383,953.475 " />
<polygon stroke="black" stroke-width="1" fill="rgb(204, 204, 204)" fill-opacity="0.25" points="996.383,953.475 679.677,953.475 648.005,1003.232 996.383,1003.231 " />

</svg>
