<?xml version="1.0" encoding="UTF-8" standalone="no"?>
<!-- Created with Inkscape (http://www.inkscape.org/) -->

<svg
   xmlns:dc="http://purl.org/dc/elements/1.1/"
   xmlns:cc="http://creativecommons.org/ns#"
   xmlns:rdf="http://www.w3.org/1999/02/22-rdf-syntax-ns#"
   xmlns:svg="http://www.w3.org/2000/svg"
   xmlns="http://www.w3.org/2000/svg"
   xmlns:sodipodi="http://sodipodi.sourceforge.net/DTD/sodipodi-0.dtd"
   xmlns:inkscape="http://www.inkscape.org/namespaces/inkscape"
   width="744.09448819"
   height="1052.3622047"
   id="svg5610"
   version="1.1"
   inkscape:version="0.48.4 r9939"
   sodipodi:docname="leg.svg">
  <defs
     id="defs5612" />
  <sodipodi:namedview
     id="base"
     pagecolor="#ffffff"
     bordercolor="#666666"
     borderopacity="1.0"
     inkscape:pageopacity="0.0"
     inkscape:pageshadow="2"
     inkscape:zoom="0.98994949"
     inkscape:cx="189.61237"
     inkscape:cy="533.26338"
     inkscape:document-units="px"
     inkscape:current-layer="layer1"
     showgrid="false"
     inkscape:window-width="1918"
     inkscape:window-height="1078"
     inkscape:window-x="0"
     inkscape:window-y="0"
     inkscape:window-maximized="0" />
  <metadata
     id="metadata5615">
    <rdf:RDF>
      <cc:Work
         rdf:about="">
        <dc:format>image/svg+xml</dc:format>
        <dc:type
           rdf:resource="http://purl.org/dc/dcmitype/StillImage" />
        <dc:title />
      </cc:Work>
    </rdf:RDF>
  </metadata>
  <g
     inkscape:label="Layer 1"
     inkscape:groupmode="layer"
     id="layer1">
    <path
       style="fill:#191919;fill-opacity:1;stroke:#000000;stroke-width:3.63772178;stroke-linecap:butt;stroke-linejoin:miter;stroke-miterlimit:4;stroke-opacity:1;stroke-dasharray:none"
       d="m 491.02397,555.75974 c 4.8081,31.94791 6.59266,52.19519 3.68012,84.00582 -5.72216,21.75249 -1.49227,29.67512 -6.5321,43.41459 22.00912,-2.38171 52.76969,6.79543 95.79637,8.24868 7.2075,1.00555 13.95695,-18.0933 8.70249,-34.27726 -11.61323,-10.75873 -22.45785,-9.43804 -35.11786,-12.40032 -9.36504,-3.23909 -13.24096,-6.51253 -17.11188,-15.95133 -1.3067,-30.08199 11.30992,-34.58331 10.43568,-73.10179 z"
       id="path4638"
       inkscape:connector-curvature="0"
       sodipodi:nodetypes="ccccccccc"
       inkscape:export-filename="/home/john/TestEngine/res/img/leg.png"
       inkscape:export-xdpi="180"
       inkscape:export-ydpi="180" />
    <g
       id="g4558"
       transform="matrix(-1.511743,0,0,1.9418589,1392.9584,-998.65075)"
       inkscape:export-filename="/home/john/TestEngine/res/img/leg.png"
       inkscape:export-xdpi="180"
       inkscape:export-ydpi="180">
      <path
         sodipodi:nodetypes="ccccccc"
         inkscape:connector-curvature="0"
         id="path3895"
         d="m 558.28185,680.06355 -2.86498,130.16988 c -4.58037,0.86005 -2.83374,18.14867 -3.77788,27.223 l 49.57143,0 c 6.00304,1.23265 1.48503,-32.00191 -3.98207,-29.4038 l -5.37507,-127.98908 z"
         style="fill:#505050;fill-opacity:1;stroke:#000000;stroke-width:2.5;stroke-linecap:butt;stroke-linejoin:miter;stroke-miterlimit:4;stroke-opacity:1;stroke-dasharray:none" />
      <path
         sodipodi:nodetypes="cc"
         inkscape:connector-curvature="0"
         id="path3901"
         d="m 577.21042,689.88493 c -6.29923,48.0371 -0.82913,97.5452 -0.35714,146.4286"
         style="fill:none;stroke:#000000;stroke-width:1px;stroke-linecap:butt;stroke-linejoin:miter;stroke-opacity:1" />
      <path
         sodipodi:nodetypes="ccccc"
         inkscape:connector-curvature="0"
         id="path3899"
         d="m 558.28185,690.95643 20.35714,24.2857 -5.71428,11.0714 -14.64286,-23.6428 z"
         style="fill:#505050;fill-opacity:1;stroke:#000000;stroke-width:1px;stroke-linecap:butt;stroke-linejoin:miter;stroke-opacity:1" />
      <path
         sodipodi:nodetypes="cc"
         inkscape:connector-curvature="0"
         id="path5368"
         d="m 555.43385,810.43443 c 28.16152,6.46171 30.78765,0.15573 41.42858,-2.14286"
         style="fill:none;stroke:#000000;stroke-width:2.5;stroke-linecap:butt;stroke-linejoin:miter;stroke-miterlimit:4;stroke-opacity:1;stroke-dasharray:none" />
    </g>
    <path
       style="fill:none;stroke:#000000;stroke-width:1px;stroke-linecap:butt;stroke-linejoin:miter;stroke-opacity:1"
       d="m 291,315.07646 -0.91167,25.02413 -1.14602,31.45699 -1.46876,40.31579 -0.88875,24.39529 -0.71467,19.61673 -0.56766,15.58148 -1.11061,30.48493 -1.55925,42.7996 -4.97967,18.1935 -0.66354,24.83363 -1.15829,43.34975 4.1602,10.54647 0.96192,53.78497 118.0279,0 -0.78822,-56.77288 -29.69506,-11.094 -2.21148,-29.84459 -1.95391,-26.36859 -4.35378,-28.64967 0.17673,-34.86289 0.1484,-29.27319 0.0793,-15.65184 0.11521,-22.72785 0.0871,-17.18751 0.25343,-49.99359 0.13576,-26.78116 0.16818,-33.1755 z"
       id="outline"
       inkscape:connector-curvature="0"
       sodipodi:nodetypes="ccccccccccccccccccccccccccccc"
       inkscape:label="#path5979" />
    <path
       style="fill:none;stroke:#000000;stroke-width:5;stroke-linecap:butt;stroke-linejoin:miter;stroke-miterlimit:4;stroke-opacity:1;stroke-dasharray:none"
       d="m 319.71328,634.13617 4.54568,-140.22845 -3.03045,-157.74369"
       id="joints"
       inkscape:connector-curvature="0"
       sodipodi:nodetypes="ccc"
       inkscape:label="#path5983" />
  </g>
</svg>
