<?xml version="1.0" encoding="UTF-8" standalone="no"?>
<!-- Created with Inkscape (http://www.inkscape.org/) -->

<svg
   xmlns:dc="http://purl.org/dc/elements/1.1/"
   xmlns:cc="http://creativecommons.org/ns#"
   xmlns:rdf="http://www.w3.org/1999/02/22-rdf-syntax-ns#"
   xmlns:svg="http://www.w3.org/2000/svg"
   xmlns="http://www.w3.org/2000/svg"
   xmlns:xlink="http://www.w3.org/1999/xlink"
   xmlns:sodipodi="http://sodipodi.sourceforge.net/DTD/sodipodi-0.dtd"
   xmlns:inkscape="http://www.inkscape.org/namespaces/inkscape"
   width="744.09448819"
   height="1052.3622047"
   id="svg2"
   version="1.1"
   inkscape:version="0.48.4 r9939"
   sodipodi:docname="parka2.svg">
  <defs
     id="defs4" />
  <sodipodi:namedview
     id="base"
     pagecolor="#ffffff"
     bordercolor="#666666"
     borderopacity="1.0"
     inkscape:pageopacity="0.0"
     inkscape:pageshadow="2"
     inkscape:zoom="0.33830383"
     inkscape:cx="511.38238"
     inkscape:cy="639.14739"
     inkscape:document-units="px"
     inkscape:current-layer="layer1"
     showgrid="false"
     showguides="true"
     inkscape:guide-bbox="true"
     inkscape:window-width="1918"
     inkscape:window-height="1078"
     inkscape:window-x="0"
     inkscape:window-y="0"
     inkscape:window-maximized="0">
    <sodipodi:guide
       orientation="1,0"
       position="-547.14286,1157.1429"
       id="guide4574" />
  </sodipodi:namedview>
  <metadata
     id="metadata7">
    <rdf:RDF>
      <cc:Work
         rdf:about="">
        <dc:format>image/svg+xml</dc:format>
        <dc:type
           rdf:resource="http://purl.org/dc/dcmitype/StillImage" />
        <dc:title></dc:title>
      </cc:Work>
    </rdf:RDF>
  </metadata>
  <g
     inkscape:label="Layer 1"
     inkscape:groupmode="layer"
     id="layer1">
    <image
       y="238.00101"
       x="818.0351"
       id="image3063"
       xlink:href="file:///home/john/Pictures/kensington_stand.jpeg"
       height="432"
       width="324"
       style="fill:#a006d3;fill-opacity:0.3649289;stroke-width:3.125;stroke-miterlimit:4;stroke-dasharray:none" />
    <path
       style="fill:#2b3049;fill-opacity:1;stroke:#000000;stroke-width:2.8967216;stroke-linecap:butt;stroke-linejoin:miter;stroke-miterlimit:4;stroke-opacity:1;stroke-dasharray:none"
       d="m 828.00812,589.16863 c 1.20273,23.50513 17.38464,42.71837 4.02138,88.92943 -10.94901,43.72163 -7.23397,46.98747 -7.6216,84.84607 3.40976,24.11314 -19.82019,106.03366 -7.60161,149.98136 l -32.5206,6.69393 c 2.29563,-32.77763 -0.77074,-91.35754 -11.54823,-147.17953 -3.58192,-43.75507 -5.76498,-75.98395 -7.20091,-97.55261 -4.34055,-25.30932 0.46384,-32.81655 1.84116,-61.08494 z"
       id="path4128"
       inkscape:connector-curvature="0"
       sodipodi:nodetypes="ccccccccc" />
    <path
       sodipodi:nodetypes="ccccccccc"
       inkscape:connector-curvature="0"
       id="path4548"
       d="m 856.72241,715.5972 c 1.20273,23.50513 17.38464,42.71837 4.02138,88.92943 -10.94901,43.72163 -7.23397,46.98747 -7.6216,84.84607 3.40976,24.11314 -19.82019,106.03366 -7.60161,149.9814 l -32.5206,6.6939 c 2.29563,-32.7776 -0.77074,-91.35755 -11.54823,-147.17954 -3.58192,-43.75507 -5.76498,-75.98395 -7.20091,-97.55261 -4.34055,-25.30932 0.46384,-32.81655 1.84116,-61.08494 z"
       style="fill:#2b3049;fill-opacity:1;stroke:#000000;stroke-width:2.8967216;stroke-linecap:butt;stroke-linejoin:miter;stroke-miterlimit:4;stroke-opacity:1;stroke-dasharray:none" />
    <path
       style="fill:#252525;fill-opacity:1;stroke:#000000;stroke-width:3.125;stroke-linecap:butt;stroke-linejoin:miter;stroke-miterlimit:4;stroke-opacity:1;stroke-dasharray:none"
       d="m 721.285,329.85058 c 1.8011,-8.83812 -1.68979,-6.33624 8.5863,-33.33504 -1.85513,-20.05738 10.04602,-46.0103 16.66752,-69.70052 -4.71259,-37.88072 -7.65915,-75.76144 -3.03046,-113.64216 l 16.66752,-14.647215 2.52538,29.294425 c 1.97614,40.35169 23.08542,52.26626 16.66752,91.4188 l -20.20305,116.16755 c -12.48446,-1.78072 -18.06177,-0.10787 -37.88073,-5.55584 z"
       id="path4069-6"
       inkscape:connector-curvature="0"
       sodipodi:nodetypes="ccccccccc" />
    <path
       sodipodi:nodetypes="cccccccc"
       inkscape:connector-curvature="0"
       id="path3814"
       d="m 839.63718,931.94996 c -5.1078,33.94063 -5.27266,73.21414 -11.03106,106.65854 -0.10836,23.894 5.2174,23.2235 6.61142,38.7162 -16.59926,4.5767 -5.64969,5.4708 -41.43176,14.3239 -7.67338,-0.9501 -54.60558,9.3409 -42.1961,-13.814 -5.34261,-38.5916 36.65978,-24.1015 43.22514,-32.7175 2.34468,-31.4761 -10.03907,-58.72523 -9.11061,-99.63871 26.92671,1.45063 36.17005,-3.52589 53.93297,-13.52843 z"
       style="fill:#000000;fill-opacity:1;stroke:#000000;stroke-width:3.3767786;stroke-linecap:butt;stroke-linejoin:miter;stroke-miterlimit:4;stroke-opacity:1;stroke-dasharray:none" />
    <path
       sodipodi:nodetypes="ccccccccc"
       inkscape:connector-curvature="0"
       id="path3814-2-6"
       d="m 478.05076,782.03313 c -4.4632,29.65621 -6.11976,48.45109 -3.41612,77.97987 5.31166,20.19214 1.38522,27.54642 6.0635,40.30034 -20.43032,-2.21086 -48.98434,6.30798 -88.92462,7.65698 -6.6905,0.9334 -12.9558,-16.7954 -8.07824,-31.81846 10.78018,-9.98698 20.8469,-8.76104 32.59876,-11.51082 8.69324,-3.00674 12.29116,-6.04538 15.88438,-14.80708 1.213,-27.92414 -10.49862,-32.10256 -9.68708,-67.85799 z"
       style="fill:#191919;fill-opacity:1;stroke:#000000;stroke-width:3.37677860000000019;stroke-linecap:butt;stroke-linejoin:miter;stroke-miterlimit:4;stroke-opacity:1;stroke-dasharray:none" />
    <path
       inkscape:connector-curvature="0"
       id="path4628"
       d="m 398.38373,549.71436 -0.0212,6.46426 32.51329,7.7714 0.27521,-5.71871 z"
       style="fill:#000000;fill-opacity:1;stroke:#000000;stroke-width:3.01124668;stroke-linecap:butt;stroke-linejoin:miter;stroke-miterlimit:4;stroke-opacity:1;stroke-dasharray:none" />
    <path
       sodipodi:nodetypes="cccccccccc"
       inkscape:connector-curvature="0"
       id="path4630"
       d="m 400.19992,554.57793 c -2.50378,6.04873 -2.6918,12.01376 -4.6411,18.54632 1.60545,1.59533 2.79217,-0.22597 3.92882,-2.45585 0.8302,5.10358 -0.44931,10.72076 5.44859,14.59067 1.21745,2.13542 1.69945,5.06879 4.78323,5.17932 2.55416,-0.26253 4.90365,0.54654 5.79341,-1.17965 1.80386,-0.0675 3.33042,-3.70624 4.96623,-5.93796 l 6.36052,-6.50806 4.79235,-19.96725 z"
       style="fill:#b2b2b2;fill-opacity:1;stroke:#000000;stroke-width:3.01124668;stroke-linecap:butt;stroke-linejoin:miter;stroke-miterlimit:4;stroke-opacity:1;stroke-dasharray:none" />
    <path
       inkscape:connector-curvature="0"
       id="path4632"
       d="m 408.23147,563.69547 -2.41435,21.11846"
       style="fill:#b2b2b2;fill-opacity:1;stroke:#000000;stroke-width:3.01124668;stroke-linecap:butt;stroke-linejoin:miter;stroke-miterlimit:4;stroke-opacity:1;stroke-dasharray:none" />
    <path
       sodipodi:nodetypes="ccccccccc"
       inkscape:connector-curvature="0"
       id="path4626"
       d="m 469.2796,310.66807 c -12.76455,-9.62292 -25.45703,-8.73622 -38.11007,-2.10127 -19.30269,43.83196 -10.04228,93.70423 -12.29595,103.95774 l -2.43492,66.18377 c -0.61726,23.51748 -12.46792,45.88641 -18.70188,68.82959 l 41.74907,15.4008 c 2.99021,-29.23976 14.64152,-55.99285 22.24329,-83.90859 8.8298,-23.1115 10.02487,-48.10392 13.09236,-72.63504 -1.67459,-31.93708 2.63305,-64.84722 -5.54192,-95.727 z"
       style="fill:#252525;fill-opacity:1;stroke:#000000;stroke-width:3.01124668;stroke-linecap:butt;stroke-linejoin:miter;stroke-miterlimit:4;stroke-opacity:1;stroke-dasharray:none" />
    <path
       inkscape:connector-curvature="0"
       id="path4634"
       d="m 417.09473,564.99805 -4.23281,22.54155"
       style="fill:#b2b2b2;fill-opacity:1;stroke:#000000;stroke-width:3.01124668;stroke-linecap:butt;stroke-linejoin:miter;stroke-miterlimit:4;stroke-opacity:1;stroke-dasharray:none" />
    <path
       style="fill:#c1c1c1;fill-opacity:1;stroke:#000000;stroke-width:3.125;stroke-linecap:butt;stroke-linejoin:miter;stroke-miterlimit:4;stroke-opacity:1;stroke-dasharray:none"
       d="m 486.89353,323.53712 c -13.11266,7.47951 -29.05033,12.4166 -38.3858,1.01016 l -17.0954,239.70674 48.64594,3.56114 z"
       id="path4185"
       inkscape:connector-curvature="0"
       sodipodi:nodetypes="ccccc" />
    <path
       inkscape:export-ydpi="180"
       inkscape:export-xdpi="180"
       inkscape:export-filename="/home/john/TestEngine/res/img/stand.png"
       sodipodi:nodetypes="ccccc"
       inkscape:connector-curvature="0"
       id="path4897"
       d="m 427.16122,373.22832 c -11.91353,16.17176 21.15333,61.0195 26.8315,67.04702 7.53169,-8.19325 37.99853,-35.15432 37.16726,-58.42551 -4.37697,-23.52424 -28.33554,-14.92993 -33.13804,-4.03229 -2.26049,-7.72976 -18.94719,-20.76097 -30.86072,-4.58922 z"
       style="fill:#ff1541;fill-opacity:1;stroke:#000000;stroke-width:1.66768312;stroke-linecap:butt;stroke-linejoin:miter;stroke-miterlimit:4;stroke-opacity:1;stroke-dasharray:none" />
    <g
       transform="matrix(1.7502655,0,0,1.9418589,-548.19817,-770.29325)"
       id="g4564">
      <path
         style="fill:#505050;fill-opacity:1;stroke:#000000;stroke-width:2.5;stroke-linecap:butt;stroke-linejoin:miter;stroke-miterlimit:4;stroke-opacity:1;stroke-dasharray:none"
         d="m 558.28185,680.06355 -2.86498,130.16988 c -4.58037,0.86005 -2.83374,18.14867 -3.77788,27.223 l 49.57143,0 c 6.00304,1.23265 1.48503,-32.00191 -3.98207,-29.4038 l -5.37507,-127.98908 c -10.13038,4.29977 -20.32653,8.33276 -33.57143,0 z"
         id="path4566"
         inkscape:connector-curvature="0"
         sodipodi:nodetypes="ccccccc" />
      <path
         style="fill:none;stroke:#000000;stroke-width:1px;stroke-linecap:butt;stroke-linejoin:miter;stroke-opacity:1"
         d="m 580.58811,680.75166 c -6.29923,48.0371 -4.20682,106.67847 -3.73483,155.56187"
         id="path4568"
         inkscape:connector-curvature="0"
         sodipodi:nodetypes="cc" />
      <path
         style="fill:none;stroke:#000000;stroke-width:2.5;stroke-linecap:butt;stroke-linejoin:miter;stroke-miterlimit:4;stroke-opacity:1;stroke-dasharray:none"
         d="m 555.43385,810.43443 c 28.16152,6.46171 30.78765,0.15573 41.42858,-2.14286"
         id="path4572"
         inkscape:connector-curvature="0"
         sodipodi:nodetypes="cc" />
    </g>
    <path
       style="fill:#191919;fill-opacity:1;stroke:#000000;stroke-width:3.3767786;stroke-linecap:butt;stroke-linejoin:miter;stroke-miterlimit:4;stroke-opacity:1;stroke-dasharray:none"
       d="m 738.76505,557.03313 c -4.4632,29.65621 -6.11976,48.45109 -3.41612,77.97987 5.31166,20.19214 11.46644,44.6581 16.14472,57.41202 -20.43032,-2.21086 -49.06556,5.1963 -89.00584,6.5453 -6.6905,0.9334 -14.9558,-22.7954 -10.07824,-37.81846 10.78018,-9.98698 26.90782,-1.68997 38.65968,-4.43975 8.69324,-3.00674 10.35207,-26.14691 13.94529,-34.90861 1.213,-27.92414 -22.62045,-29.0721 -21.80891,-64.82753 z"
       id="path4624"
       inkscape:connector-curvature="0"
       sodipodi:nodetypes="ccccccccc" />
    <path
       style="fill:#191919;fill-opacity:1;stroke:#000000;stroke-width:3.63772178;stroke-linecap:butt;stroke-linejoin:miter;stroke-miterlimit:4;stroke-opacity:1;stroke-dasharray:none"
       d="m 541.66126,789.16803 c -4.8081,31.94791 -6.59266,52.19519 -3.68012,84.00582 5.72216,21.75249 1.49227,29.67512 6.5321,43.41459 -22.00912,-2.38171 -52.76969,6.79543 -95.79637,8.24868 -7.2075,1.00555 -13.95695,-18.0933 -8.70249,-34.27726 11.61323,-10.75873 22.45785,-9.43804 35.11786,-12.40032 9.36504,-3.23909 13.24096,-6.51253 17.11188,-15.95133 1.3067,-30.08199 -11.30992,-34.58331 -10.43568,-73.10179 z"
       id="path4638"
       inkscape:connector-curvature="0"
       sodipodi:nodetypes="ccccccccc" />
    <g
       id="g4558"
       transform="matrix(1.511743,0,0,1.9418589,-360.27313,-759.24248)">
      <path
         sodipodi:nodetypes="ccccccc"
         inkscape:connector-curvature="0"
         id="path3895"
         d="m 558.28185,680.06355 -2.86498,130.16988 c -4.58037,0.86005 -2.83374,18.14867 -3.77788,27.223 l 49.57143,0 c 6.00304,1.23265 1.48503,-32.00191 -3.98207,-29.4038 l -5.37507,-127.98908 z"
         style="fill:#505050;fill-opacity:1;stroke:#000000;stroke-width:2.5;stroke-linecap:butt;stroke-linejoin:miter;stroke-miterlimit:4;stroke-opacity:1;stroke-dasharray:none" />
      <path
         sodipodi:nodetypes="cc"
         inkscape:connector-curvature="0"
         id="path3901"
         d="m 577.21042,689.88493 c -6.29923,48.0371 -0.82913,97.5452 -0.35714,146.4286"
         style="fill:none;stroke:#000000;stroke-width:1px;stroke-linecap:butt;stroke-linejoin:miter;stroke-opacity:1" />
      <path
         sodipodi:nodetypes="ccccc"
         inkscape:connector-curvature="0"
         id="path3899"
         d="m 558.28185,690.95643 20.35714,24.2857 -5.71428,11.0714 -14.64286,-23.6428 z"
         style="fill:#505050;fill-opacity:1;stroke:#000000;stroke-width:1px;stroke-linecap:butt;stroke-linejoin:miter;stroke-opacity:1" />
      <path
         sodipodi:nodetypes="cc"
         inkscape:connector-curvature="0"
         id="path5368"
         d="m 555.43385,810.43443 c 28.16152,6.46171 30.78765,0.15573 41.42858,-2.14286"
         style="fill:none;stroke:#000000;stroke-width:2.5;stroke-linecap:butt;stroke-linejoin:miter;stroke-miterlimit:4;stroke-opacity:1;stroke-dasharray:none" />
    </g>
    <path
       style="fill:#252525;fill-opacity:1;stroke:#000000;stroke-width:3.125;stroke-linecap:butt;stroke-linejoin:miter;stroke-miterlimit:4;stroke-opacity:1;stroke-dasharray:none"
       d="m 434.36559,312.93052 3.03046,9.59645 -8.58629,9.09137 c 2.02625,19.25507 -11.33223,35.36203 -7.72811,52.01417 7.96813,36.81525 1.71979,73.41578 0.15196,110.62039 l -5.55584,102.02541 -18.68782,69.70052 36.82996,-7.07106 c 7.17584,-90.76283 -0.95883,-184.68406 8.12183,-270.72088 l 4.54569,-17.1726 13.97947,-51.06075 4.97521,-13.11424 -8.09554,-21.1829 z"
       id="path4105"
       inkscape:connector-curvature="0"
       sodipodi:nodetypes="cccscccccccccc" />
    <g
       id="g4735"
       transform="matrix(1.1859341,-0.03060231,0.03040764,1.1783907,-58.989449,19.088664)">
      <path
         style="fill:#ffffff;fill-opacity:1;stroke:#000000;stroke-width:2.5;stroke-linecap:butt;stroke-linejoin:miter;stroke-miterlimit:4;stroke-opacity:1;stroke-dasharray:none"
         d="m 472.92711,209.36549 c -6.6426,23.32568 0.654,42.63423 8.61685,61.88257 -18.12307,-0.60995 -24.46157,12.58079 -54.10684,7.81931 7.26397,-9.6877 5.88966,-34.6948 3.8619,-43.97181 16.1611,-7.15492 31.49482,-13.1781 41.62809,-25.73007 z"
         id="path4630-8"
         inkscape:connector-curvature="0"
         sodipodi:nodetypes="ccccc"
         inkscape:export-filename="/home/john/TestEngine/res/img/stand.png"
         inkscape:export-xdpi="180"
         inkscape:export-ydpi="180" />
      <path
         style="fill:#ffffff;fill-opacity:1;stroke:#000000;stroke-width:2.5;stroke-linecap:butt;stroke-linejoin:miter;stroke-miterlimit:4;stroke-opacity:1;stroke-dasharray:none"
         d="m 402.66441,213.41526 c 14.78738,25.78075 17.55794,33.7408 26.83383,35.09917 6.22701,0.94484 34.78609,-12.65642 39.93715,-23.27201 12.3469,-18.33526 7.11781,-43.00645 9.33113,-62.12974 -27.60063,-20.31776 -52.64,-14.24781 -77.06727,-1.87181 -6.2545,9.00313 -5.72974,38.88606 0.96516,52.17439 z"
         id="path4794"
         inkscape:connector-curvature="0"
         sodipodi:nodetypes="cccccc"
         inkscape:export-filename="/home/john/TestEngine/res/img/stand.png"
         inkscape:export-xdpi="180"
         inkscape:export-ydpi="180" />
      <path
         style="fill:none;stroke:#000000;stroke-width:2.5;stroke-linecap:butt;stroke-linejoin:miter;stroke-miterlimit:4;stroke-opacity:1;stroke-dasharray:none"
         d="m 427.49016,193.6611 c -0.0406,5.62087 -1.02495,11.20996 -4.85031,16.70345 2.70551,4.55351 5.63649,2.40751 8.48008,2.85829"
         id="path4638-7"
         inkscape:connector-curvature="0"
         sodipodi:nodetypes="ccc"
         inkscape:export-filename="/home/john/TestEngine/res/img/stand.png"
         inkscape:export-xdpi="180"
         inkscape:export-ydpi="180" />
      <g
         id="g4644"
         transform="matrix(0.14663851,0.00493528,-0.00493528,0.14663851,553.9025,102.06075)"
         style="stroke-width:17.03907967;stroke-miterlimit:4;stroke-dasharray:none"
         inkscape:export-filename="/home/john/TestEngine/res/img/stand.png"
         inkscape:export-xdpi="180"
         inkscape:export-ydpi="180">
        <path
           sodipodi:nodetypes="cccc"
           inkscape:connector-curvature="0"
           id="path4640"
           d="m 18.22885,365.42647 c 41.450181,-40.14631 94.95289,-43.22691 158.81344,-14.45358 -25.31279,23.59632 -44.11357,43.15104 -97.453424,44.74754 -19.332804,-2.32102 -36.036048,1.60977 -41.463189,-44.3512"
           style="fill:none;stroke:#000000;stroke-width:17.03907967;stroke-linecap:butt;stroke-linejoin:miter;stroke-miterlimit:4;stroke-opacity:1;stroke-dasharray:none" />
        <path
           sodipodi:nodetypes="cc"
           inkscape:connector-curvature="0"
           id="path4642"
           d="m 123.57143,334.50504 c 2.73917,24.704 -0.16328,40.94556 -5,54.28571"
           style="fill:none;stroke:#000000;stroke-width:17.03907967;stroke-linecap:butt;stroke-linejoin:miter;stroke-miterlimit:4;stroke-opacity:1;stroke-dasharray:none" />
      </g>
      <path
         style="fill:none;stroke:#000000;stroke-width:2.5;stroke-linecap:butt;stroke-linejoin:miter;stroke-miterlimit:4;stroke-opacity:1;stroke-dasharray:none"
         d="m 421.34274,230.21787 c 4.2682,-3.74662 17.88412,-2.40319 21.83795,-0.58806"
         id="path4652"
         inkscape:connector-curvature="0"
         sodipodi:nodetypes="cc"
         inkscape:export-filename="/home/john/TestEngine/res/img/stand.png"
         inkscape:export-xdpi="180"
         inkscape:export-ydpi="180" />
      <path
         style="fill:none;stroke:#000000;stroke-width:1.25;stroke-linecap:butt;stroke-linejoin:miter;stroke-miterlimit:4;stroke-opacity:1;stroke-dasharray:none"
         d="m 435.94806,239.10886 c -4.00022,1.25668 -8.7342,0.49415 -11.80777,-0.51535"
         id="path4654"
         inkscape:connector-curvature="0"
         sodipodi:nodetypes="cc"
         inkscape:export-filename="/home/john/TestEngine/res/img/stand.png"
         inkscape:export-xdpi="180"
         inkscape:export-ydpi="180" />
      <path
         style="fill:#ffffff;fill-opacity:1;stroke:#000000;stroke-width:2.5;stroke-linecap:butt;stroke-linejoin:miter;stroke-miterlimit:4;stroke-opacity:1;stroke-dasharray:none"
         d="m 485.36245,147.46734 c 19.51282,13.42398 14.91902,78.76006 15.14087,127.72442 -2.74388,5.72046 -5.23188,15.4518 -3.74765,21.31458 -5.12416,-10.16164 -17.15806,-11.13683 -18.88679,-25.78515 3.65166,-28.0732 11.73259,-89.68131 -5.56089,-109.11354 z"
         id="path4116"
         inkscape:connector-curvature="0"
         sodipodi:nodetypes="cccccc"
         inkscape:export-filename="/home/john/TestEngine/res/img/stand.png"
         inkscape:export-xdpi="180"
         inkscape:export-ydpi="180" />
      <path
         style="fill:#ffffff;fill-opacity:1;stroke:#000000;stroke-width:2.5;stroke-linecap:butt;stroke-linejoin:miter;stroke-miterlimit:4;stroke-opacity:1;stroke-dasharray:none"
         d="m 440.84052,129.50149 c -20.0966,5.00034 -42.62922,7.39497 -49.80152,26.21987 -0.7002,3.86625 -1.96791,20.07956 -1.43678,30.67767 3.19808,-7.49765 12.38571,-18.63822 14.44244,-22.14602 19.27325,-0.4104 18.36938,-0.50649 34.67988,-10.47915 7.89991,8.43147 9.57976,17.69297 21.94224,20.91554 5.17117,12.87234 21.62495,14.79225 16.56561,25.85005 20.89417,-9.00142 17.29671,-24.17077 8.33364,-50.92721 -11.87102,-14.2701 -20.63229,-18.30499 -44.72551,-20.11075 z"
         id="path4114"
         inkscape:connector-curvature="0"
         sodipodi:nodetypes="ccccccccc"
         inkscape:export-filename="/home/john/TestEngine/res/img/stand.png"
         inkscape:export-xdpi="180"
         inkscape:export-ydpi="180" />
      <g
         id="g4760">
        <path
           inkscape:export-ydpi="180"
           inkscape:export-xdpi="180"
           inkscape:export-filename="/home/john/TestEngine/res/img/stand.png"
           sodipodi:nodetypes="ccccc"
           inkscape:connector-curvature="0"
           id="path4648"
           d="m 399.64614,182.23386 c 7.67475,-3.07923 13.98052,0.33511 20.5549,3.06368 0.33922,1.5107 0.5315,2.98618 -0.29676,4.21685 -5.01917,2.25484 -12.7156,2.94627 -16.34695,0.13202 -1.5875,-1.83976 -1.13007,-6.2647 1.40768,-8.7908"
           style="fill:none;stroke:#000000;stroke-width:2.5;stroke-linecap:butt;stroke-linejoin:miter;stroke-miterlimit:4;stroke-opacity:1;stroke-dasharray:none" />
        <path
           style="fill:none;stroke:#000000;stroke-width:3.17111373;stroke-linecap:butt;stroke-linejoin:miter;stroke-miterlimit:4;stroke-opacity:1;stroke-dasharray:none"
           d="m 538.2537,104.65118 c -1.30442,1.75315 -1.35476,6.41883 -0.281,8.51456 2.00491,0.74126 4.01856,1.2729 6.12786,-0.492 1.60999,-2.3681 0.93494,-3.41564 0.29614,-6.30068 -3.38663,-1.11984 -4.46825,-0.86481 -6.143,-1.72188 z"
           id="path4756"
           inkscape:connector-curvature="0"
           sodipodi:nodetypes="ccccc"
           inkscape:export-filename="/home/john/TestEngine/res/img/stand.png"
           inkscape:export-xdpi="180"
           inkscape:export-ydpi="180" />
      </g>
      <g
         id="g4764"
         transform="matrix(-0.99908934,-0.0429403,-0.04239575,0.99908934,861.90065,17.113704)">
        <path
           style="fill:none;stroke:#000000;stroke-width:2.5;stroke-linecap:butt;stroke-linejoin:miter;stroke-miterlimit:4;stroke-opacity:1;stroke-dasharray:none"
           d="m 400.08064,181.51083 c 7.86989,-2.53167 13.92302,1.31802 20.29176,4.50251 0.23344,1.53088 0.32274,3.01628 -0.58899,4.18566 -5.16354,1.89614 -12.88917,2.04433 -16.31611,-1.01856 -1.45582,-1.94696 -0.69209,-6.32888 2.01495,-8.67024"
           id="path4766"
           inkscape:connector-curvature="0"
           sodipodi:nodetypes="ccccc"
           inkscape:export-filename="/home/john/TestEngine/res/img/stand.png"
           inkscape:export-xdpi="180"
           inkscape:export-ydpi="180" />
        <path
           inkscape:export-ydpi="180"
           inkscape:export-xdpi="180"
           inkscape:export-filename="/home/john/TestEngine/res/img/stand.png"
           sodipodi:nodetypes="ccccc"
           inkscape:connector-curvature="0"
           id="path4768"
           d="m 282.94363,99.133155 c -1.34955,1.728985 -1.22077,6.066855 -0.0682,8.174765 2.11475,0.7709 4.23621,1.33276 6.43107,-0.39542 1.66328,-2.33782 0.81516,-3.07678 0.11014,-5.96549 -3.57061,-1.170175 -4.70377,-0.93256 -6.47306,-1.813855 z"
           style="fill:none;stroke:#000000;stroke-width:3.17111373;stroke-linecap:butt;stroke-linejoin:miter;stroke-miterlimit:4;stroke-opacity:1;stroke-dasharray:none" />
      </g>
    </g>
    <path
       style="fill:#252525;fill-opacity:1;stroke:#000000;stroke-width:3.01124668;stroke-linecap:butt;stroke-linejoin:miter;stroke-miterlimit:4;stroke-opacity:1;stroke-dasharray:none"
       d="m 505.57554,278.53402 -8.65912,11.61969 c -14.20264,29.78257 -26.71922,59.67755 -26.35109,90.4315 2.96885,56.92957 3.07805,121.65609 -4.84259,183.38903 l -11.7214,106.09281 12.19026,-1.0104 72.67274,15.66132 25.7871,-14.14571 -4.68857,-105.58762 -5.15741,-94.97834 2.34428,-150.55076 4.2197,-10.60928 -10.31484,-25.7654 z"
       id="path4103"
       inkscape:connector-curvature="0"
       sodipodi:nodetypes="cccccccccccccc" />
    <g
       id="g4032"
       transform="matrix(1.132155,0,0,1.132155,-54.00575,-92.987257)"
       style="fill:#252525;fill-opacity:1">
      <path
         sodipodi:nodetypes="ccccc"
         inkscape:connector-curvature="0"
         id="path3844"
         d="m 154.03434,400.53408 1.3007,-34.25601 9.10619,-29.48616 22.11454,1.73441 c -22.3655,11.17818 -22.47585,40.68397 -32.52143,62.00776 z"
         style="fill:#252525;fill-opacity:1;stroke:#000000;stroke-width:4.29262924000000012;stroke-linecap:butt;stroke-linejoin:miter;stroke-miterlimit:4;stroke-opacity:1;stroke-dasharray:none" />
      <path
         sodipodi:nodetypes="ccccccccccccc"
         inkscape:connector-curvature="0"
         id="path3836"
         d="m 201.52315,330.74623 c -11.4003,6.63423 -22.87442,13.12152 -31.88786,24.52947 0.0636,6.67144 -1.18033,10.72157 -1.83991,15.94401 -7.45477,16.21847 -14.86527,27.69121 -18.64241,49.0585 -12.75407,24.99672 10.27688,228.90133 3.32297,261.58191 20.02831,9.37834 94.88984,-3.5249 98.73332,-4.02417 -6.55806,-54.88438 -11.6447,-110.31101 -20.39931,-168.63885 0.5185,-30.37783 11.59542,-66.22934 13.02617,-99.34383 0.73082,-9.02938 6.12291,-5.23872 9.81183,-6.13218 11.71133,-7.17414 19.76278,-15.32384 19.2557,-25.75585 0.88607,-8.32288 -0.68463,-15.59246 -5.51933,-21.46316 -16.87484,3.96504 -24.05615,-11.28605 -36.98621,-14.42265 -6.13003,-9.56793 -14.71339,-7.38717 -28.87496,-11.3332 z"
         style="fill:#252525;fill-opacity:1;stroke:#000000;stroke-width:4.29262924;stroke-linecap:butt;stroke-linejoin:miter;stroke-miterlimit:4;stroke-opacity:1;stroke-dasharray:none" />
      <path
         inkscape:connector-curvature="0"
         id="path3838"
         d="m 158.43119,490.80006 -7.35881,11.03822 13.49124,36.18079 15.3309,1.83949"
         style="fill:#252525;fill-opacity:1;stroke:#000000;stroke-width:1.71705103px;stroke-linecap:butt;stroke-linejoin:miter;stroke-opacity:1" />
      <path
         inkscape:connector-curvature="0"
         id="path3840"
         d="m 159.23765,424.8167 0.43387,32.52181 2.16805,4.33624 -0.86751,9.53963 9.97326,8.67231 10.84076,-0.43345"
         style="fill:#252525;fill-opacity:1;stroke:#000000;stroke-width:1.71705102999999992px;stroke-linecap:butt;stroke-linejoin:miter;stroke-opacity:1" />
      <path
         sodipodi:nodetypes="ccccccccccc"
         inkscape:connector-curvature="0"
         id="path3066"
         d="m 180.09742,382.77047 c 1.06496,22.09171 -1.34898,42.68473 3.19488,66.27509 1.01476,44.52144 -2.79653,89.69152 -4.44195,114.44616 2.72621,9.54382 -0.47311,16.55246 -0.1257,22.23246 10.20067,2.78973 16.96695,1.86968 27.16762,1.30403 0.49366,-5.59269 0.1196,-18.93693 2.87731,-23.53649 -3.46062,-51.63114 17.64492,-120.2865 14.37143,-155.08049 0.37078,-10.95863 1.49927,-22.09523 -2.8584,-31.9424 -6.62078,-19.86272 -19.74774,-16.90231 -32.45136,-15.42823 -8.17973,8.1481 -7.20292,14.6269 -7.73439,21.72987 z"
         style="fill:#252525;fill-opacity:1;stroke:#000000;stroke-width:3.78446626999999980;stroke-linecap:butt;stroke-linejoin:miter;stroke-miterlimit:4;stroke-opacity:1;stroke-dasharray:none" />
      <path
         inkscape:connector-curvature="0"
         id="path3842"
         d="m 222.54627,498.53227 11.70775,8.67272"
         style="fill:#252525;fill-opacity:1;stroke:#000000;stroke-width:1.71705102999999992px;stroke-linecap:butt;stroke-linejoin:miter;stroke-opacity:1" />
      <path
         sodipodi:nodetypes="cccc"
         inkscape:connector-curvature="0"
         id="path3848-7"
         d="m 155.67162,517.16901 c -3.63715,4.22554 -2.19613,7.06569 -1.53293,10.11857 2.14646,1.28789 4.29251,2.12785 6.43898,-0.61328 z"
         style="fill:#252525;fill-opacity:1;stroke:#000000;stroke-width:1.71705103px;stroke-linecap:butt;stroke-linejoin:miter;stroke-opacity:1" />
      <path
         inkscape:connector-curvature="0"
         id="path3850"
         d="m 164.1038,507.05063 c -0.46026,1.07336 6.74528,20.23695 6.74528,20.23695 l 4.29293,-0.91983 -7.35881,-20.69679 z"
         style="fill:#252525;fill-opacity:1;stroke:#000000;stroke-width:1.71705103px;stroke-linecap:butt;stroke-linejoin:miter;stroke-opacity:1" />
      <path
         sodipodi:nodetypes="cc"
         inkscape:connector-curvature="0"
         id="path3854"
         d="M 194.47089,339.88336 166.4464,367.2948"
         style="fill:#252525;fill-opacity:1;stroke:#000000;stroke-width:4.29262924000000012;stroke-linecap:butt;stroke-linejoin:miter;stroke-miterlimit:4;stroke-opacity:1;stroke-dasharray:none" />
      <path
         sodipodi:nodetypes="cc"
         inkscape:connector-curvature="0"
         id="path3856"
         d="m 245.52841,403.17069 c -5.56115,-29.17501 -13.98932,-36.26781 -22.98214,-42.56477"
         style="fill:#252525;stroke:#000000;stroke-width:4.29262924000000012;stroke-linecap:butt;stroke-linejoin:miter;stroke-miterlimit:4;stroke-opacity:1;stroke-dasharray:none;fill-opacity:1" />
      <path
         sodipodi:nodetypes="cccccc"
         inkscape:connector-curvature="0"
         id="path3846"
         d="m 188.50285,347.61056 c 8.73795,14.65186 23.71619,17.15156 40.15024,16.81621 l 35.31865,-2.24626 c 4.81028,-2.09341 13.75629,-4.01106 21.40522,-6.18549 4.46005,-9.70982 6.5003,-26.16459 -1.83949,-39.24718 -30.58921,-6.44602 -89.00788,5.16412 -95.03462,30.86272 z"
         style="fill:#baa890;fill-opacity:1;stroke:#000000;stroke-width:4.29262924;stroke-linecap:butt;stroke-linejoin:miter;stroke-miterlimit:4;stroke-opacity:1;stroke-dasharray:none" />
      <path
         style="fill:#baa890;fill-opacity:1;stroke:#000000;stroke-width:2.20817828;stroke-linecap:butt;stroke-linejoin:miter;stroke-miterlimit:4;stroke-opacity:1;stroke-dasharray:none"
         d="m 272.88844,15.089542 c 4.49491,7.53707 12.19986,8.82305 20.65377,8.65052 l 18.16831,-1.15563 c 2.47448,-1.07676 7.07641,-2.06317 11.01119,-3.18187 2.29422,-4.99469 3.34383,-13.4593702 -0.94636,-20.18905818 C 306.03995,-4.1024912 275.98869,1.8699508 272.88844,15.089542 z"
         id="path3846-6"
         inkscape:connector-curvature="0"
         sodipodi:nodetypes="cccccc" />
    </g>
    <path
       style="fill:#252525;fill-opacity:1;stroke:#000000;stroke-width:2.5;stroke-linecap:butt;stroke-linejoin:miter;stroke-miterlimit:4;stroke-opacity:1;stroke-dasharray:none"
       d="m 404.56609,-7.15825 c 1.8011,-8.83812 -1.68979,-6.33624 8.5863,-33.33504 -1.85513,-20.05738 10.04602,-46.0103 16.66752,-69.70052 -4.71259,-37.88072 -7.65915,-75.76144 -3.03046,-113.64216 l 16.66752,-14.64721 15.65736,0 c 1.97614,40.35169 9.95344,81.56068 3.53554,120.71322 L 442.44682,-1.60241 c -12.48446,-1.78072 -18.06177,-0.10787 -37.88073,-5.55584 z"
       id="path4069"
       inkscape:connector-curvature="0"
       sodipodi:nodetypes="ccccccccc" />
    <path
       style="fill:#252525;fill-opacity:1;stroke:#000000;stroke-width:2.5;stroke-linecap:butt;stroke-linejoin:miter;stroke-miterlimit:4;stroke-opacity:1;stroke-dasharray:none"
       d="m 456.59445,-274.86733 c -5.83684,3.13643 -15.71429,20.44719 -23.57143,22.14285 l 1.97698,15 -9.02084,16.38139 c 2.15246,16.41899 1.06919,30.68083 -0.78244,44.43042 l 3.22331,35.51008 c -3.92694,59.71135 -7.45133,160.23116 -11.73159,179.25714 -14.63814,18.15161 -9.04755,51.44696 -18.11701,68.07906 49.65773,0.20836 92.58009,15.40266 140,18.57143 10.24897,-7.32659 20.57243,-14.28074 32.14286,-15 -9.81397,-41.90476 -9.81406,-83.80953 -13.57143,-125.71429 l -5,-120.71428 8.57143,-103.57143 c -2.16103,-13.09456 -4.1965,-26.26236 -17.5,-32.85714 -18.58876,-2.13448 -37.07222,-4.22947 -48.21429,-3.57143 l -8.43056,7.04713 c -13.65054,27.01241 -26.29902,54.27432 -34.95671,83.15904 l 7.0271,-53.72019 c 9.52858,-17.19662 4.12494,-25.73674 -2.04538,-34.42978 z"
       id="path4045"
       inkscape:connector-curvature="0"
       sodipodi:nodetypes="ccccccccccccccccccc" />
    <path
       style="fill:#252525;fill-opacity:1;stroke:#000000;stroke-width:2.5;stroke-linecap:butt;stroke-linejoin:miter;stroke-miterlimit:4;stroke-opacity:1;stroke-dasharray:none"
       d="m 553.57143,-245.49496 c -14.73374,-8.27249 -28.23864,-6.09989 -41.07143,1.78571 -15.88301,45.55656 -0.49408,94.21589 -1.78571,104.64286 l 4.64285,66.07143 c 1.91549,23.45238 -8.33331,46.90476 -12.5,70.35714 l 46.42858,11.07143 c 4.6e-4,-29.38484 9.55523,-57.1773 14.64285,-85.71429 6.93009,-23.88373 5.47217,-48.86177 6.07143,-73.57142 -5.29416,-31.59313 -4.28402,-64.76233 -16.42857,-94.64286 z"
       id="path4047"
       inkscape:connector-curvature="0"
       sodipodi:nodetypes="ccccccccc" />
    <path
       style="fill:#000000;fill-opacity:1;stroke:#000000;stroke-width:2.5;stroke-linecap:butt;stroke-linejoin:miter;stroke-miterlimit:4;stroke-opacity:1;stroke-dasharray:none"
       d="m 507.5,-1.56639 0.71429,6.42857 35.71428,4.28572 -0.35714,-5.71429 z"
       id="path4049"
       inkscape:connector-curvature="0" />
    <path
       style="fill:#b2b2b2;fill-opacity:1;stroke:#000000;stroke-width:2.5;stroke-linecap:butt;stroke-linejoin:miter;stroke-miterlimit:4;stroke-opacity:1;stroke-dasharray:none"
       d="m 510,3.07647 c -1.99246,6.27817 -1.5138,12.22809 -2.85714,18.92857 1.90164,1.41609 2.96522,-0.52008 3.92857,-2.85714 1.47117,4.9858 0.74091,10.70541 7.5,13.92857 1.54759,1.99409 2.39832,4.85925 5.71429,4.64285 2.70609,-0.53124 5.3151,0.0245 6.07142,-1.78571 1.9246,-0.25796 3.14501,-4.03688 4.64286,-6.42857 l 6.07143,-7.14286 2.85714,-20.35714 z"
       id="path4051"
       inkscape:connector-curvature="0"
       sodipodi:nodetypes="cccccccccc" />
    <path
       style="fill:#b2b2b2;fill-opacity:1;stroke:#000000;stroke-width:2.5;stroke-linecap:butt;stroke-linejoin:miter;stroke-miterlimit:4;stroke-opacity:1;stroke-dasharray:none"
       d="m 519.64286,11.29075 -0.17857,21.25"
       id="path4053"
       inkscape:connector-curvature="0" />
    <path
       style="fill:#b2b2b2;fill-opacity:1;stroke:#000000;stroke-width:2.5;stroke-linecap:butt;stroke-linejoin:miter;stroke-miterlimit:4;stroke-opacity:1;stroke-dasharray:none"
       d="m 529.28572,11.6479 -1.96429,22.85714"
       id="path4055"
       inkscape:connector-curvature="0" />
    <path
       style="fill:#b2b2b2;fill-opacity:1;stroke:#000000;stroke-width:2.5;stroke-linecap:butt;stroke-linejoin:miter;stroke-miterlimit:4;stroke-opacity:1;stroke-dasharray:none"
       d="m 535.53572,11.82647 -1.07143,16.42857"
       id="path4057"
       inkscape:connector-curvature="0" />
    <path
       style="fill:#252525;fill-opacity:1;stroke:#000000;stroke-width:2.5;stroke-linecap:butt;stroke-linejoin:miter;stroke-miterlimit:4;stroke-opacity:1;stroke-dasharray:none"
       d="m 486.89353,-92.01107 23.73858,38.3858 2.52538,10.10153 -4.04061,9.59645 -9.59645,-1.51523 -27.27411,-39.39595 z"
       id="path4059"
       inkscape:connector-curvature="0" />
    <path
       style="fill:#252525;fill-opacity:1;stroke:#000000;stroke-width:2.5;stroke-linecap:butt;stroke-linejoin:miter;stroke-miterlimit:4;stroke-opacity:1;stroke-dasharray:none"
       d="m 481.33769,-165.24712 c -1.01015,2.0203 -0.50508,61.6193 -0.50508,61.6193 l -10.6066,-2.52538 2.52538,-58.58885 z"
       id="path4061"
       inkscape:connector-curvature="0" />
    <path
       style="fill:#252525;fill-opacity:1;stroke:#000000;stroke-width:2.5;stroke-linecap:butt;stroke-linejoin:miter;stroke-miterlimit:4;stroke-opacity:1;stroke-dasharray:none"
       d="m 488.91383,-39.48313 -12.6269,156.57364"
       id="path4063"
       inkscape:connector-curvature="0" />
    <path
       style="fill:#252525;fill-opacity:1;stroke:#000000;stroke-width:2.5;stroke-linecap:butt;stroke-linejoin:miter;stroke-miterlimit:4;stroke-opacity:1;stroke-dasharray:none"
       d="m 538.41131,23.14633 c -0.97647,32.82996 -1.67684,65.65991 0,98.48987"
       id="path4065"
       inkscape:connector-curvature="0"
       sodipodi:nodetypes="cc" />
    <path
       style="fill:#252525;fill-opacity:1;stroke:#000000;stroke-width:2.5;stroke-linecap:butt;stroke-linejoin:miter;stroke-miterlimit:4;stroke-opacity:1;stroke-dasharray:none"
       d="m 414.66762,102.4433 38.89087,1.51523 30.80966,6.56599 55.55839,6.06092 21.71828,-8.5863"
       id="path4067"
       inkscape:connector-curvature="0" />
    <path
       style="fill:#252525;fill-opacity:1;stroke:#000000;stroke-width:2.5;stroke-linecap:butt;stroke-linejoin:miter;stroke-miterlimit:4;stroke-opacity:1;stroke-dasharray:none"
       d="m 501.42857,-247.63782 -13.57143,32.85714 -6.42857,72.14286"
       id="path4073"
       inkscape:connector-curvature="0" />
    <path
       style="fill:#252525;fill-opacity:1;stroke:#000000;stroke-width:2.5;stroke-linecap:butt;stroke-linejoin:miter;stroke-miterlimit:4;stroke-opacity:1;stroke-dasharray:none"
       d="m 499.28572,-287.63782 4.28571,21.07143 21.07143,3.92857 L 545,-278.3521 l 13.57143,5.71428 10.35714,-16.07143 -30.35714,-15.35714 L 500,-301.92353 z"
       id="path4075"
       inkscape:connector-curvature="0" />
    <path
       style="fill:none;stroke:#000000;stroke-width:1px;stroke-linecap:butt;stroke-linejoin:miter;stroke-opacity:1"
       d="m 450,-186.92353 20.71429,157.14285 -12.14286,137.14286"
       id="path4099"
       inkscape:connector-curvature="0"
       sodipodi:nodetypes="ccc" />
    <path
       style="fill:#917c6f;stroke:#000000;stroke-width:1px;stroke-linecap:butt;stroke-linejoin:miter;stroke-opacity:1"
       d="m 459.28571,-240.49496 -16.42857,57.85714 c -5.97375,96.54729 -1.50666,199.51971 -23.14285,286.42857"
       id="path4101"
       inkscape:connector-curvature="0"
       sodipodi:nodetypes="ccc" />
    <path
       style="fill:none;stroke:#000000;stroke-width:2.4089973;stroke-linecap:butt;stroke-linejoin:miter;stroke-miterlimit:4;stroke-opacity:1;stroke-dasharray:none"
       d="m 488.22785,395.74133 c 0,4.54683 -0.93771,62.14008 -0.93771,62.14008 l -9.84599,-2.02082 2.81314,-62.64528 z"
       id="path4109"
       inkscape:connector-curvature="0" />
    <path
       style="fill:none;stroke:#000000;stroke-width:2.04764771;stroke-linecap:butt;stroke-linejoin:miter;stroke-miterlimit:4;stroke-opacity:1;stroke-dasharray:none"
       d="m 507.91982,307.83585 -15.0034,50.01519 -5.15742,39.4059"
       id="path4111"
       inkscape:connector-curvature="0" />
    <path
       style="fill:none;stroke:#000000;stroke-width:2.04764771;stroke-linecap:butt;stroke-linejoin:miter;stroke-miterlimit:4;stroke-opacity:1;stroke-dasharray:none"
       d="M 506.51325,365.9343 482.60157,671.07747"
       id="path4115"
       inkscape:connector-curvature="0" />
    <path
       style="fill:#252525;fill-opacity:1;stroke:#000000;stroke-width:2.4089973;stroke-linecap:butt;stroke-linejoin:miter;stroke-miterlimit:4;stroke-opacity:1;stroke-dasharray:none"
       d="m 494.32299,467.98548 -9.37714,4.04164 -5.62627,14.65092 23.91168,36.87987 13.59683,4.04165 4.2197,-9.09368 z"
       id="path4107"
       inkscape:connector-curvature="0" />
    <path
       style="fill:none;stroke:#000000;stroke-width:2.04764771;stroke-linecap:butt;stroke-linejoin:miter;stroke-miterlimit:4;stroke-opacity:1;stroke-dasharray:none"
       d="m 536.98892,376.03837 4.2197,305.64838"
       id="path4117"
       inkscape:connector-curvature="0" />
    <path
       style="fill:#252525;fill-opacity:1;stroke:#000000;stroke-width:2.72952318;stroke-linecap:butt;stroke-linejoin:miter;stroke-miterlimit:4;stroke-opacity:1;stroke-dasharray:none"
       d="m 550.2453,301.19266 c -11.22548,-8.28358 -21.51473,-6.10807 -31.2919,1.7881 -12.1011,45.61759 -0.37643,94.34211 -1.36051,104.78305 l 3.53734,66.15994 c 1.45939,23.4838 -6.34907,46.9676 -9.52362,70.4514 l 35.37345,11.08626 c 3.5e-4,-29.42421 7.28003,-57.2539 11.15624,-85.82912 5.27996,-23.91573 4.16919,-48.92723 4.62576,-73.66999 -4.03357,-31.63545 -3.26395,-64.84908 -12.51676,-94.76964 z"
       id="path4047-5"
       inkscape:connector-curvature="0"
       sodipodi:nodetypes="ccccccccc" />
    <path
       style="fill:#000000;fill-opacity:1;stroke:#000000;stroke-width:3.01124668;stroke-linecap:butt;stroke-linejoin:miter;stroke-miterlimit:4;stroke-opacity:1;stroke-dasharray:none"
       d="m 510.20259,543.31802 0.66307,6.4302 33.15315,4.2868 -0.33153,-5.71573 z"
       id="path4049-0"
       inkscape:connector-curvature="0" />
    <path
       style="fill:#b2b2b2;fill-opacity:1;stroke:#000000;stroke-width:3.01124668;stroke-linecap:butt;stroke-linejoin:miter;stroke-miterlimit:4;stroke-opacity:1;stroke-dasharray:none"
       d="m 512.52331,547.96206 c -1.84957,6.27975 -1.40524,12.23118 -2.65224,18.93335 1.76527,1.41645 2.75257,-0.52021 3.64684,-2.85786 1.36567,4.98706 0.68778,10.70811 6.96216,13.93209 1.43661,1.99459 2.22634,4.86047 5.30451,4.64402 2.51203,-0.53137 4.93395,0.0245 5.63603,-1.78616 1.78658,-0.25803 2.91948,-4.0379 4.30991,-6.4302 l 5.63604,-7.14466 2.65225,-20.36229 z"
       id="path4051-3"
       inkscape:connector-curvature="0"
       sodipodi:nodetypes="cccccccccc" />
    <path
       style="fill:#b2b2b2;fill-opacity:1;stroke:#000000;stroke-width:3.01124668;stroke-linecap:butt;stroke-linejoin:miter;stroke-miterlimit:4;stroke-opacity:1;stroke-dasharray:none"
       d="m 521.47467,556.17841 -0.16577,21.25537"
       id="path4053-0"
       inkscape:connector-curvature="0" />
    <path
       style="fill:#b2b2b2;fill-opacity:1;stroke:#000000;stroke-width:3.01124668;stroke-linecap:butt;stroke-linejoin:miter;stroke-miterlimit:4;stroke-opacity:1;stroke-dasharray:none"
       d="m 530.42602,556.53565 -1.82342,22.86292"
       id="path4055-3"
       inkscape:connector-curvature="0" />
    <path
       style="fill:#b2b2b2;fill-opacity:1;stroke:#000000;stroke-width:3.01124668;stroke-linecap:butt;stroke-linejoin:miter;stroke-miterlimit:4;stroke-opacity:1;stroke-dasharray:none"
       d="m 536.22782,556.71427 -0.99459,16.43272"
       id="path4057-4"
       inkscape:connector-curvature="0" />
    <path
       style="fill:none;stroke:#000000;stroke-width:3.125;stroke-linecap:butt;stroke-linejoin:miter;stroke-miterlimit:4;stroke-opacity:1;stroke-dasharray:none"
       d="m 463.19826,306.36453 c -3.03045,1.01015 -23.41653,10.22376 -23.41653,10.22376 8.04173,19.64736 4.30535,45.42754 3.12684,69.83956"
       id="path4187"
       inkscape:connector-curvature="0"
       sodipodi:nodetypes="ccc" />
    <path
       style="fill:none;stroke:#000000;stroke-width:3.01124668;stroke-linecap:butt;stroke-linejoin:miter;stroke-miterlimit:4;stroke-opacity:1;stroke-dasharray:none"
       d="m 494.6645,295.69607 5.8964,19.77825 -30.51762,69.311"
       id="path4189"
       inkscape:connector-curvature="0"
       sodipodi:nodetypes="ccc" />
    <path
       style="fill:none;stroke:#000000;stroke-width:3.01124668;stroke-linecap:butt;stroke-linejoin:miter;stroke-miterlimit:4;stroke-opacity:1;stroke-dasharray:none"
       d="m 455.87676,663.4994 7.97056,0 77.3613,15.15612 22.97397,-13.1353"
       id="path4191"
       inkscape:connector-curvature="0" />
    <path
       style="fill:none;stroke:#000000;stroke-width:1px;stroke-linecap:butt;stroke-linejoin:miter;stroke-opacity:1"
       d="m 428.48137,332.56573 14.3698,-2.35142"
       id="path4770"
       inkscape:connector-curvature="0"
       sodipodi:nodetypes="cc" />
    <path
       style="fill:none;stroke:#000000;stroke-width:1px;stroke-linecap:butt;stroke-linejoin:miter;stroke-opacity:1"
       d="m 438.14833,322.6375 2.61269,-0.52253"
       id="path4772"
       inkscape:connector-curvature="0"
       sodipodi:nodetypes="cc" />
    <path
       style="fill:none;stroke:#000000;stroke-width:1px;stroke-linecap:butt;stroke-linejoin:miter;stroke-opacity:1"
       d="m 435.27437,313.49308 5.48665,2.09016"
       id="path4774"
       inkscape:connector-curvature="0"
       sodipodi:nodetypes="cc" />
    <path
       style="fill:#8f8f8f;fill-opacity:1;stroke:#000000;stroke-width:1.91411066px;stroke-linecap:butt;stroke-linejoin:miter;stroke-opacity:1"
       d="m 492.23842,491.09804 c -0.20202,1.28579 12.84807,20.00966 12.84807,20.00966 l 4.38491,-2.17317 -13.63696,-20.33813 z"
       id="path3850-7"
       inkscape:connector-curvature="0" />
  </g>
</svg>
