<?xml version="1.0" encoding="UTF-8" standalone="no"?>
<!-- Created with Inkscape (http://www.inkscape.org/) -->

<svg
   xmlns:dc="http://purl.org/dc/elements/1.1/"
   xmlns:cc="http://creativecommons.org/ns#"
   xmlns:rdf="http://www.w3.org/1999/02/22-rdf-syntax-ns#"
   xmlns:svg="http://www.w3.org/2000/svg"
   xmlns="http://www.w3.org/2000/svg"
   xmlns:xlink="http://www.w3.org/1999/xlink"
   xmlns:sodipodi="http://sodipodi.sourceforge.net/DTD/sodipodi-0.dtd"
   xmlns:inkscape="http://www.inkscape.org/namespaces/inkscape"
   width="744.09448819"
   height="1052.3622047"
   id="svg2"
   version="1.1"
   inkscape:version="0.48.4 r9939"
   sodipodi:docname="New document 1">
  <defs
     id="defs4" />
  <sodipodi:namedview
     id="base"
     pagecolor="#ffffff"
     bordercolor="#666666"
     borderopacity="1.0"
     inkscape:pageopacity="0.0"
     inkscape:pageshadow="2"
     inkscape:zoom="1.4"
     inkscape:cx="496.17706"
     inkscape:cy="661.91783"
     inkscape:document-units="px"
     inkscape:current-layer="layer1"
     showgrid="false"
     inkscape:window-width="1918"
     inkscape:window-height="1078"
     inkscape:window-x="0"
     inkscape:window-y="0"
     inkscape:window-maximized="0" />
  <metadata
     id="metadata7">
    <rdf:RDF>
      <cc:Work
         rdf:about="">
        <dc:format>image/svg+xml</dc:format>
        <dc:type
           rdf:resource="http://purl.org/dc/dcmitype/StillImage" />
        <dc:title></dc:title>
      </cc:Work>
    </rdf:RDF>
  </metadata>
  <g
     inkscape:label="Layer 1"
     inkscape:groupmode="layer"
     id="layer1">
    <image
       y="228.36217"
       x="493"
       id="image3063"
       xlink:href="file:///home/john/Pictures/kensington.jpg"
       height="420"
       width="280" />
    <path
       style="fill:#252525;stroke:#000000;stroke-width:2.50000000000000000;stroke-linecap:butt;stroke-linejoin:miter;stroke-miterlimit:4;stroke-opacity:1;stroke-dasharray:none;fill-opacity:1"
       d="m 382.34274,380.86328 0.75761,-19.95051 5.30331,-17.1726 12.87944,1.01015 c -13.02551,6.51007 -13.08986,23.69405 -18.94036,36.11296 z"
       id="path3844"
       inkscape:connector-curvature="0"
       sodipodi:nodetypes="ccccc" />
    <path
       style="fill:#252525;fill-opacity:1;stroke:#000000;stroke-width:2.50000000000000000;stroke-linecap:butt;stroke-linejoin:miter;stroke-miterlimit:4;stroke-opacity:1;stroke-dasharray:none"
       d="m 410,340.21932 c -6.63958,3.8637 -13.32191,7.6419 -18.57143,14.28572 0.038,3.88554 -0.68738,6.24428 -1.07143,9.28571 -4.34156,9.44562 -8.65745,16.12719 -10.85714,28.57143 -7.42789,14.55784 -2.78943,133.31053 -6.83931,152.34367 11.6644,5.46171 59.92236,-2.05294 62.16074,-2.34366 -3.81932,-31.96429 2.99223,-65.71429 -4.67857,-98.21429 0.30204,-17.69185 3.66667,-38.57143 4.5,-57.85715 0.42545,-5.25858 3.56586,-3.05103 5.71428,-3.57143 6.82049,-4.17803 11.50965,-8.92441 11.21429,-15 0.51617,-4.84707 -0.39865,-9.08085 -3.21429,-12.5 -9.82786,2.3092 -15.11244,0.0405 -22.64285,-1.78571 -3.5702,-5.57229 -7.46666,-10.9162 -15.71429,-13.21429 z"
       id="path3836"
       inkscape:connector-curvature="0"
       sodipodi:nodetypes="ccccccccccccc" />
    <path
       style="fill:#252525;stroke:#000000;stroke-width:1px;stroke-linecap:butt;stroke-linejoin:miter;stroke-opacity:1;fill-opacity:1"
       d="m 381.78571,433.43361 -4.28571,6.42857 7.85714,21.07143 8.92857,1.07143"
       id="path3838"
       inkscape:connector-curvature="0" />
    <path
       style="fill:#252525;stroke:#000000;stroke-width:1px;stroke-linecap:butt;stroke-linejoin:miter;stroke-opacity:1;fill-opacity:1"
       d="m 385.3732,395.00541 0.25253,18.94036 1.2627,2.52538 -0.50508,5.55584 5.80838,5.05077 6.31345,-0.25254"
       id="path3840"
       inkscape:connector-curvature="0" />
    <path
       style="fill:#252525;fill-opacity:1;stroke:#000000;stroke-width:2.50000000000000000;stroke-linecap:butt;stroke-linejoin:miter;stroke-miterlimit:4;stroke-opacity:1;stroke-dasharray:none"
       d="m 396.0485,370.63612 c 0.79971,12.83735 -1.01315,24.80385 2.39912,38.51206 0.76226,25.87109 -2.10016,52.11926 -3.3358,66.50396 2.04736,5.54587 -0.35522,9.61847 -0.0938,12.91929 7.66032,1.62105 15.32065,1.08631 22.98097,0.75761 0.37067,-3.24975 0.0902,-11.004 2.16077,-13.6769 l 8.2136,-90.11627 c 0.27845,-6.36791 1.12612,-12.83931 -2.14658,-18.56155 -4.97194,-11.54208 -14.82999,-9.82187 -24.36993,-8.96511 -6.14275,4.7348 -5.4093,8.49959 -5.80838,12.62691 z"
       id="path3066"
       inkscape:connector-curvature="0"
       sodipodi:nodetypes="cccccccccc" />
    <path
       style="fill:#baa890;stroke:#000000;stroke-width:2.50000000000000000;stroke-linecap:butt;stroke-linejoin:miter;stroke-opacity:1;fill-opacity:1;stroke-miterlimit:4;stroke-dasharray:none"
       d="m 405.72387,347.83632 c 5.08894,8.53313 13.81214,9.98906 23.38327,9.79372 l 20.56935,-1.30835 c 2.80149,-1.21906 8.01159,-2.33583 12.46637,-3.60237 2.59741,-5.65476 3.78573,-15.23809 -1.07143,-22.85714 -17.81491,-3.75422 -51.83759,3.00751 -55.34756,17.97414 z"
       id="path3846"
       inkscape:connector-curvature="0"
       sodipodi:nodetypes="cccccc" />
    <path
       style="fill:#252525;stroke:#000000;stroke-width:1px;stroke-linecap:butt;stroke-linejoin:miter;stroke-opacity:1;fill-opacity:1"
       d="m 422.24376,437.9369 6.81853,5.05076"
       id="path3842"
       inkscape:connector-curvature="0" />
    <path
       style="fill:#000000;stroke:#000000;stroke-width:1px;stroke-linecap:butt;stroke-linejoin:miter;stroke-opacity:1;fill-opacity:1"
       d="m 380.17857,448.79075 c -2.1184,2.46086 -1.27894,4.11504 -0.89285,5.89286 1.25,0.75008 2.5,1.23928 3.75,-0.35714 z"
       id="path3848"
       inkscape:connector-curvature="0"
       sodipodi:nodetypes="cccc" />
    <path
       style="fill:#8f8f8f;stroke:#000000;stroke-width:1px;stroke-linecap:butt;stroke-linejoin:miter;stroke-opacity:1;fill-opacity:1"
       d="m 385.08929,442.8979 c -0.26786,0.625 3.92857,11.78571 3.92857,11.78571 l 2.5,-0.53571 -4.28572,-12.05358 z"
       id="path3850"
       inkscape:connector-curvature="0" />
    <path
       style="fill:none;stroke:#000000;stroke-width:1px;stroke-linecap:butt;stroke-linejoin:miter;stroke-opacity:1"
       d="m 800.40301,377.44884 c -1.54257,5.37011 -2.54645,11.54075 -14.46428,11.42857"
       id="path3852"
       inkscape:connector-curvature="0"
       sodipodi:nodetypes="cc" />
    <path
       style="fill:#252525;stroke:#000000;stroke-width:2.5;stroke-linecap:butt;stroke-linejoin:miter;stroke-opacity:1;fill-opacity:1;stroke-miterlimit:4;stroke-dasharray:none"
       d="m 405.89286,345.54075 -16.32143,15.96429"
       id="path3854"
       inkscape:connector-curvature="0"
       sodipodi:nodetypes="cc" />
    <path
       style="fill:none;stroke:#000000;stroke-width:2.5;stroke-linecap:butt;stroke-linejoin:miter;stroke-miterlimit:4;stroke-opacity:1;stroke-dasharray:none"
       d="M 435.62828,382.39881 C 432.38963,365.4076 427.48101,361.2767 422.24376,357.60947"
       id="path3856"
       inkscape:connector-curvature="0"
       sodipodi:nodetypes="cc" />
  </g>
</svg>
