<?xml version="1.0" encoding="UTF-8" standalone="no"?>
<!-- Created with Inkscape (http://www.inkscape.org/) -->

<svg
   xmlns:dc="http://purl.org/dc/elements/1.1/"
   xmlns:cc="http://creativecommons.org/ns#"
   xmlns:rdf="http://www.w3.org/1999/02/22-rdf-syntax-ns#"
   xmlns:svg="http://www.w3.org/2000/svg"
   xmlns="http://www.w3.org/2000/svg"
   xmlns:sodipodi="http://sodipodi.sourceforge.net/DTD/sodipodi-0.dtd"
   xmlns:inkscape="http://www.inkscape.org/namespaces/inkscape"
   width="744.09448819"
   height="1052.3622047"
   id="svg5172"
   version="1.1"
   inkscape:version="0.48.4 r9939"
   sodipodi:docname="parts.svg">
  <defs
     id="defs5174" />
  <sodipodi:namedview
     id="base"
     pagecolor="#ffffff"
     bordercolor="#666666"
     borderopacity="1.0"
     inkscape:pageopacity="0.0"
     inkscape:pageshadow="2"
     inkscape:zoom="0.12374369"
     inkscape:cx="-444.60784"
     inkscape:cy="388.75662"
     inkscape:document-units="px"
     inkscape:current-layer="layer1"
     showgrid="false"
     inkscape:window-width="1918"
     inkscape:window-height="1078"
     inkscape:window-x="0"
     inkscape:window-y="0"
     inkscape:window-maximized="0" />
  <metadata
     id="metadata5177">
    <rdf:RDF>
      <cc:Work
         rdf:about="">
        <dc:format>image/svg+xml</dc:format>
        <dc:type
           rdf:resource="http://purl.org/dc/dcmitype/StillImage" />
      </cc:Work>
    </rdf:RDF>
  </metadata>
  <g
     inkscape:label="Layer 1"
     inkscape:groupmode="layer"
     id="layer1">
    <path
       style="fill:#252525;fill-opacity:1;stroke:#000000;stroke-width:2.5;stroke-linecap:butt;stroke-linejoin:miter;stroke-miterlimit:4;stroke-opacity:1;stroke-dasharray:none"
       d="m 331.33867,494.81383 0.75761,-19.95051 5.30331,-17.1726 12.87944,1.01015 c -13.02551,6.51007 -13.08986,23.69405 -18.94036,36.11296 z"
       id="path3844"
       inkscape:connector-curvature="0"
       sodipodi:nodetypes="ccccc" />
    <path
       style="fill:#0a0a0a;fill-opacity:1;stroke:#000000;stroke-width:2.5;stroke-linecap:butt;stroke-linejoin:miter;stroke-miterlimit:4;stroke-opacity:1;stroke-dasharray:none"
       d="m 339.19102,804.71724 c -2.92125,2.9795 -18.3173,5.9117 -21.91725,7.6445 -10.58207,5.0937 -8.57446,12.4253 -1.21149,16.1653 l 61.71428,0 c -0.8534,-13.7945 -2.23901,-36.5112 -2.42857,-56.0714 l -33.92857,0.7142 c 1.13955,10.4762 9.2799,19.8096 -2.2284,31.5474 z"
       id="path3897"
       inkscape:connector-curvature="0"
       sodipodi:nodetypes="csccccc" />
    <path
       style="fill:#505050;fill-opacity:1;stroke:#000000;stroke-width:2.5;stroke-linecap:butt;stroke-linejoin:miter;stroke-miterlimit:4;stroke-opacity:1;stroke-dasharray:none"
       d="m 339.63371,636.63416 -2.86498,130.16988 c -4.58037,0.86005 -2.83374,18.14867 -3.77788,27.223 l 49.57143,0 c 6.00304,1.23265 1.48503,-32.00191 -3.98207,-29.4038 l -5.37507,-127.98908 z"
       id="path3895"
       inkscape:connector-curvature="0"
       sodipodi:nodetypes="ccccccc" />
    <path
       style="fill:#252525;fill-opacity:1;stroke:#000000;stroke-width:2.5;stroke-linecap:butt;stroke-linejoin:miter;stroke-miterlimit:4;stroke-opacity:1;stroke-dasharray:none"
       d="m 362.49085,442.16987 c -6.63958,3.8637 -13.32191,7.6419 -18.57143,14.28572 0.038,3.88554 -0.68738,6.24428 -1.07143,9.28571 -4.34156,9.44562 -8.65745,16.12719 -10.85714,28.57143 -7.42789,14.55784 -1.718,138.31053 -6.83931,152.34371 11.6644,5.4617 59.92236,-2.053 62.16074,-2.3437 -6.67646,-23.39286 -1.00777,-65.71429 -8.67857,-98.21429 0.30204,-17.69185 7.66667,-38.57143 8.5,-57.85715 0.42545,-5.25858 3.56586,-3.05103 5.71428,-3.57143 6.82049,-4.17803 7.50965,-8.92441 7.21429,-15 0.51617,-4.84707 -0.39865,-9.08085 -3.21429,-12.5 -9.82786,2.3092 -11.11244,0.0405 -18.64285,-1.78571 -3.5702,-5.57229 -7.46666,-10.9162 -15.71429,-13.21429 z"
       id="path3836"
       inkscape:connector-curvature="0"
       sodipodi:nodetypes="ccccccccccccc" />
    <path
       style="fill:#252525;fill-opacity:1;stroke:#000000;stroke-width:1px;stroke-linecap:butt;stroke-linejoin:miter;stroke-opacity:1"
       d="m 336.27656,535.38416 -6.28571,6.42857 7.85714,21.07143 8.92857,1.07143 z"
       id="path3838"
       inkscape:connector-curvature="0"
       sodipodi:nodetypes="ccccc" />
    <path
       style="fill:#252525;fill-opacity:1;stroke:#000000;stroke-width:1px;stroke-linecap:butt;stroke-linejoin:miter;stroke-opacity:1"
       d="m 337.86405,496.95596 0.25253,18.94036 1.2627,2.52538 -0.50508,5.55584 5.80838,5.05077 6.31345,-0.25254"
       id="path3840"
       inkscape:connector-curvature="0" />
    <path
       style="fill:#252525;fill-opacity:1;stroke:#000000;stroke-width:2.5;stroke-linecap:butt;stroke-linejoin:miter;stroke-miterlimit:4;stroke-opacity:1;stroke-dasharray:none"
       d="m 348.53935,472.58667 c 0.79971,12.83735 -1.01315,24.80385 2.39912,38.51206 0.76226,25.87109 -2.10016,52.11926 -3.3358,66.50396 2.04736,5.54587 -0.35522,9.61847 -0.0938,12.91929 7.66032,1.62105 15.32065,1.08631 22.98097,0.75761 0.37067,-3.24975 0.0902,-11.004 2.16077,-13.6769 l 8.2136,-90.11627 c 0.27845,-6.36791 1.12612,-12.83931 -2.14658,-18.56155 -4.97194,-11.54208 -14.82999,-9.82187 -24.36993,-8.96511 -6.14275,4.7348 -5.4093,8.49959 -5.80838,12.62691 z"
       id="path3066"
       inkscape:connector-curvature="0"
       sodipodi:nodetypes="cccccccccc" />
    <path
       style="fill:none;stroke:#000000;stroke-width:1px;stroke-linecap:butt;stroke-linejoin:miter;stroke-opacity:1"
       d="m 348.45034,455.79225 c -0.30605,-3.87914 0.88923,-8.17516 -1.51523,-12.35408 -7.18468,0.37767 -9.13831,3.06635 -13.13198,1.76778 -2.71735,-2.81478 -1.22041,-8.48301 -2.13777,-12.02566 -8.3612,1.59096 -0.45989,-8.17478 -1.35393,-13.8779 -1.87475,-5.12229 -3.06334,-11.25329 -1.53876,-13.5533 1.64216,-8.34933 20.76295,-19.33448 37.43656,-10.06092 17.83779,20.11541 13.93587,35.77685 17.11168,53.53809 z"
       id="path3877"
       inkscape:connector-curvature="0"
       sodipodi:nodetypes="ccccccccc" />
    <path
       style="fill:#baa890;fill-opacity:1;stroke:#000000;stroke-width:2.17137671;stroke-linecap:butt;stroke-linejoin:miter;stroke-miterlimit:4;stroke-opacity:1;stroke-dasharray:none"
       d="m 358.05041,451.55951 c 4.5918,7.13415 12.46284,8.35139 21.09898,8.18807 l 14.55994,-1.09385 c 2.52782,-1.0192 7.22895,-1.95288 11.24855,-3.01177 2.34366,-4.72768 3.4159,-12.73986 -0.96677,-19.1098 -16.07459,-3.13872 -42.77361,2.51444 -45.9407,15.02735 z"
       id="path3846"
       inkscape:connector-curvature="0"
       sodipodi:nodetypes="cccccc" />
    <path
       style="fill:#000000;fill-opacity:1;stroke:#000000;stroke-width:1px;stroke-linecap:butt;stroke-linejoin:miter;stroke-opacity:1"
       d="m 332.66942,550.7413 c -2.1184,2.46086 -1.27894,4.11504 -0.89285,5.89286 1.25,0.75008 2.5,1.23928 3.75,-0.35714 z"
       id="path3848"
       inkscape:connector-curvature="0"
       sodipodi:nodetypes="cccc" />
    <path
       style="fill:#8f8f8f;fill-opacity:1;stroke:#000000;stroke-width:1px;stroke-linecap:butt;stroke-linejoin:miter;stroke-opacity:1"
       d="m 337.58014,544.84845 c -0.26786,0.625 3.92857,11.78571 3.92857,11.78571 l 2.5,-0.53571 -4.28572,-12.05358 z"
       id="path3850"
       inkscape:connector-curvature="0" />
    <path
       style="fill:none;stroke:#000000;stroke-width:0.40000001px;stroke-linecap:butt;stroke-linejoin:miter;stroke-opacity:1"
       d="m 84.116294,463.17705 c -0.617028,2.14805 -1.01858,4.6163 -5.785712,4.57143"
       id="path3852"
       inkscape:connector-curvature="0"
       sodipodi:nodetypes="cc" />
    <path
       style="fill:#252525;fill-opacity:1;stroke:#000000;stroke-width:2.5;stroke-linecap:butt;stroke-linejoin:miter;stroke-miterlimit:4;stroke-opacity:1;stroke-dasharray:none"
       d="m 358.38371,447.4913 -16.32143,15.96429"
       id="path3854"
       inkscape:connector-curvature="0"
       sodipodi:nodetypes="cc" />
    <path
       style="fill:none;stroke:#000000;stroke-width:2.5;stroke-linecap:butt;stroke-linejoin:miter;stroke-miterlimit:4;stroke-opacity:1;stroke-dasharray:none"
       d="m 388.11913,484.34936 c -3.23865,-16.99121 -8.14727,-21.12211 -13.38452,-24.78934"
       id="path3856"
       inkscape:connector-curvature="0"
       sodipodi:nodetypes="cc" />
    <path
       style="fill:none;stroke:#000000;stroke-width:1px;stroke-linecap:butt;stroke-linejoin:miter;stroke-opacity:1"
       d="m 330.2676,402.99147 c 8.79674,5.17703 13.06861,18.95967 26.66308,16.30901 2.73196,7.61701 1.90219,21.33985 8.81852,21.78364"
       id="path3879"
       inkscape:connector-curvature="0"
       sodipodi:nodetypes="ccc" />
    <path
       style="fill:none;stroke:#000000;stroke-width:1px;stroke-linecap:butt;stroke-linejoin:miter;stroke-opacity:1"
       d="m 352.7638,430.53843 c 2.13887,10.56999 -0.92243,9.4617 -5.30331,12.39467"
       id="path3881"
       inkscape:connector-curvature="0"
       sodipodi:nodetypes="cc" />
    <path
       style="fill:#ffffff;fill-opacity:1;stroke:#000000;stroke-width:1px;stroke-linecap:butt;stroke-linejoin:miter;stroke-opacity:1"
       d="m 352.51126,431.29605 c 2.25434,-1.05416 5.25501,-1.78846 5.3033,-3.78807 1.43624,-4.04321 0.17082,-6.73558 -0.25254,-9.84899 -3.59363,0.24339 -5.03518,1.71654 -6.31345,3.28299 0.17244,2.20837 0.58973,3.92707 1.23835,5.18308 0.68333,1.72366 0.52661,3.44733 0.0243,5.17099 z"
       id="path3885"
       inkscape:connector-curvature="0"
       sodipodi:nodetypes="cccccc" />
    <path
       style="fill:none;stroke:#000000;stroke-width:1px;stroke-linecap:butt;stroke-linejoin:miter;stroke-opacity:1"
       d="m 329.81981,418.57752 c 1.97441,-0.2581 4.17453,-2.24996 6.06092,-1.67213"
       id="path3887"
       inkscape:connector-curvature="0"
       sodipodi:nodetypes="cc" />
    <path
       style="fill:none;stroke:#000000;stroke-width:1px;stroke-linecap:butt;stroke-linejoin:miter;stroke-opacity:1"
       d="m 303.85815,406.14053 c 2.14668,-0.61762 3.94575,-1.04859 4.66453,-0.71428 0.20047,2.26747 -2.42345,3.65773 -4.29207,3.57143"
       id="path3889"
       inkscape:connector-curvature="0"
       sodipodi:nodetypes="ccc" />
    <path
       style="fill:none;stroke:#000000;stroke-width:1px;stroke-linecap:butt;stroke-linejoin:miter;stroke-opacity:1"
       d="m 358.56228,646.45554 c -6.29923,48.0371 -0.82913,97.5452 -0.35714,146.4286"
       id="path3901"
       inkscape:connector-curvature="0"
       sodipodi:nodetypes="cc" />
    <path
       style="fill:#505050;fill-opacity:1;stroke:#000000;stroke-width:1px;stroke-linecap:butt;stroke-linejoin:miter;stroke-opacity:1"
       d="m 339.63371,647.52704 20.35714,24.2857 -5.71428,11.0714 -14.64286,-23.6428 z"
       id="path3899"
       inkscape:connector-curvature="0"
       sodipodi:nodetypes="ccccc" />
    <path
       sodipodi:nodetypes="ccc"
       inkscape:connector-curvature="0"
       id="path3905"
       d="m 303.80969,406.96817 c 1.45442,-0.28718 1.60191,-0.35365 2.08889,-0.1982 0.13586,1.05433 -0.61517,1.29899 -1.88119,1.25885"
       style="fill:#000000;fill-opacity:1;stroke:#000000;stroke-width:0.56127906px;stroke-linecap:butt;stroke-linejoin:miter;stroke-opacity:1" />
    <path
       style="fill:none;stroke:#000000;stroke-width:1px;stroke-linecap:butt;stroke-linejoin:miter;stroke-opacity:1"
       d="m 331.91049,433.10737 c -1.67515,-0.81632 -2.44222,-0.2705 -3.66071,-0.40183"
       id="path3907"
       inkscape:connector-curvature="0"
       sodipodi:nodetypes="cc" />
    <path
       style="fill:none;stroke:#000000;stroke-width:1px;stroke-linecap:butt;stroke-linejoin:miter;stroke-opacity:1"
       d="m 332.31228,438.77702 c 2.42652,-1.41091 1.53636,-0.77187 4.39286,-0.89286"
       id="path3909"
       inkscape:connector-curvature="0"
       sodipodi:nodetypes="cc" />
    <path
       style="fill:none;stroke:#000000;stroke-width:1px;stroke-linecap:butt;stroke-linejoin:miter;stroke-opacity:1"
       d="m 330.65284,419.81239 c 1.32779,-0.75012 2.65854,-1.49729 4.4796,-1.75415 l -0.40945,3.0402 c -1.46913,0.91157 -2.90073,1.44786 -4.28571,1.51786 z"
       id="path3911"
       inkscape:connector-curvature="0"
       sodipodi:nodetypes="ccccc" />
    <path
       style="fill:none;stroke:#000000;stroke-width:0.5;stroke-linecap:butt;stroke-linejoin:miter;stroke-miterlimit:4;stroke-opacity:1;stroke-dasharray:none"
       d="m 333.5709,418.60601 c -0.41097,1.02155 -0.0867,2.37716 -2.96732,2.84105"
       id="path3913"
       inkscape:connector-curvature="0"
       sodipodi:nodetypes="cc" />
    <path
       inkscape:export-ydpi="180"
       inkscape:export-xdpi="180"
       inkscape:export-filename="/home/john/TestEngine/res/img/stand.png"
       sodipodi:nodetypes="ccccc"
       inkscape:connector-curvature="0"
       id="path4630"
       d="m 162.01612,216.69557 c -6.6426,23.32568 0.22278,34.82903 8.18563,54.07737 -18.12307,-0.60995 -7.27816,18.30372 -53.18006,0.2113 7.26397,-9.6877 6.61218,-18.21291 4.58442,-27.48992 16.1611,-7.15492 27.74695,-17.01556 40.41001,-26.79875 z"
       style="fill:#ffffff;fill-opacity:1;stroke:#000000;stroke-width:2.5;stroke-linecap:butt;stroke-linejoin:miter;stroke-miterlimit:4;stroke-opacity:1;stroke-dasharray:none" />
    <path
       inkscape:export-ydpi="180"
       inkscape:export-xdpi="180"
       inkscape:export-filename="/home/john/TestEngine/res/img/stand.png"
       sodipodi:nodetypes="cccccc"
       inkscape:connector-curvature="0"
       id="path4794"
       d="m 92.971498,211.634 c 14.787382,25.78075 17.699152,30.35045 26.975042,31.70882 6.22701,0.94484 28.45741,-14.18569 42.19926,-24.6607 4.79873,-18.53128 4.63714,-38.22942 6.92781,-57.3507 -27.60063,-20.31776 -52.64,-14.24781 -77.067268,-1.87181 -6.2545,9.00313 -4.217136,39.61539 0.965156,52.17439 z"
       style="fill:#ffffff;fill-opacity:1;stroke:#000000;stroke-width:2.5;stroke-linecap:butt;stroke-linejoin:miter;stroke-miterlimit:4;stroke-opacity:1;stroke-dasharray:none" />
    <path
       inkscape:export-ydpi="180"
       inkscape:export-xdpi="180"
       inkscape:export-filename="/home/john/TestEngine/res/img/stand.png"
       sodipodi:nodetypes="ccc"
       inkscape:connector-curvature="0"
       id="path4638"
       d="m 117.79725,191.87984 c -0.0406,5.62087 -1.02495,11.20996 -4.85031,16.70345 2.70551,4.55351 5.63649,2.40751 8.48008,2.85829"
       style="fill:none;stroke:#000000;stroke-width:2.5;stroke-linecap:butt;stroke-linejoin:miter;stroke-miterlimit:4;stroke-opacity:1;stroke-dasharray:none" />
    <g
       inkscape:export-ydpi="180"
       inkscape:export-xdpi="180"
       inkscape:export-filename="/home/john/TestEngine/res/img/stand.png"
       style="stroke-width:17.03907967;stroke-miterlimit:4;stroke-dasharray:none"
       transform="matrix(0.14663851,0.00493528,-0.00493528,0.14663851,125.37998,127.21112)"
       id="g4644">
      <path
         style="fill:none;stroke:#000000;stroke-width:17.03907967;stroke-linecap:butt;stroke-linejoin:miter;stroke-miterlimit:4;stroke-opacity:1;stroke-dasharray:none"
         d="m 18.22885,365.42647 c 41.450181,-40.14631 94.95289,-43.22691 158.81344,-14.45358 -25.31279,23.59632 -44.11357,43.15104 -97.453424,44.74754 -19.332804,-2.32102 -36.036048,1.60977 -41.463189,-44.3512"
         id="path4640"
         inkscape:connector-curvature="0"
         sodipodi:nodetypes="cccc" />
      <path
         style="fill:none;stroke:#000000;stroke-width:17.03907967;stroke-linecap:butt;stroke-linejoin:miter;stroke-miterlimit:4;stroke-opacity:1;stroke-dasharray:none"
         d="m 123.57143,334.50504 c 2.73917,24.704 -0.16328,40.94556 -5,54.28571"
         id="path4642"
         inkscape:connector-curvature="0"
         sodipodi:nodetypes="cc" />
    </g>
    <path
       inkscape:export-ydpi="180"
       inkscape:export-xdpi="180"
       inkscape:export-filename="/home/john/TestEngine/res/img/stand.png"
       sodipodi:nodetypes="ccccc"
       inkscape:connector-curvature="0"
       id="path4648"
       d="m 90.09445,177.06224 c 7.674744,-3.07923 13.98052,0.33511 20.5549,3.06368 0.33922,1.5107 0.5315,2.98618 -0.29676,4.21685 -5.01917,2.25484 -12.7156,2.94627 -16.346948,0.13202 -1.5875,-1.83976 -1.130072,-6.2647 1.407672,-8.7908"
       style="fill:none;stroke:#000000;stroke-width:2.5;stroke-linecap:butt;stroke-linejoin:miter;stroke-miterlimit:4;stroke-opacity:1;stroke-dasharray:none" />
    <path
       inkscape:export-ydpi="180"
       inkscape:export-xdpi="180"
       inkscape:export-filename="/home/john/TestEngine/res/img/stand.png"
       sodipodi:nodetypes="cc"
       inkscape:connector-curvature="0"
       id="path4650"
       d="m 106.1493,178.5127 c 0.26101,2.01046 0.80031,5.5508 -0.85281,7.49683"
       style="fill:none;stroke:#000000;stroke-width:2.5;stroke-linecap:butt;stroke-linejoin:miter;stroke-miterlimit:4;stroke-opacity:1;stroke-dasharray:none" />
    <path
       inkscape:export-ydpi="180"
       inkscape:export-xdpi="180"
       inkscape:export-filename="/home/john/TestEngine/res/img/stand.png"
       sodipodi:nodetypes="cc"
       inkscape:connector-curvature="0"
       id="path4652"
       d="m 111.64983,228.43661 c 4.2682,-3.74662 16.94862,-1.11163 20.90245,0.7035"
       style="fill:none;stroke:#000000;stroke-width:2.5;stroke-linecap:butt;stroke-linejoin:miter;stroke-miterlimit:4;stroke-opacity:1;stroke-dasharray:none" />
    <path
       inkscape:export-ydpi="180"
       inkscape:export-xdpi="180"
       inkscape:export-filename="/home/john/TestEngine/res/img/stand.png"
       sodipodi:nodetypes="cc"
       inkscape:connector-curvature="0"
       id="path4654"
       d="m 126.25515,237.3276 c -4.00022,1.25668 -8.7342,0.49415 -11.80777,-0.51535"
       style="fill:none;stroke:#000000;stroke-width:1.25;stroke-linecap:butt;stroke-linejoin:miter;stroke-miterlimit:4;stroke-opacity:1;stroke-dasharray:none" />
    <path
       inkscape:export-ydpi="180"
       inkscape:export-xdpi="180"
       inkscape:export-filename="/home/john/TestEngine/res/img/stand.png"
       sodipodi:nodetypes="cccccc"
       inkscape:connector-curvature="0"
       id="path4798"
       d="m 133.51554,137.6636 c -0.32534,2.79239 -0.69458,6.06315 0.58155,8.20277 -3.68616,2.79235 -7.32089,6.25141 -11.36771,4.3701 1.63001,-1.25405 4.36519,-1.49435 4.35966,-4.24861 0.23551,-1.12334 -0.0664,-2.08742 -0.43449,-3.03188 2.59903,-1.8566 4.63466,-3.54623 6.86099,-5.29238 z"
       style="fill:none;stroke:#000000;stroke-width:2.5;stroke-linecap:butt;stroke-linejoin:miter;stroke-miterlimit:4;stroke-opacity:1;stroke-dasharray:none" />
    <path
       inkscape:export-ydpi="180"
       inkscape:export-xdpi="180"
       inkscape:export-filename="/home/john/TestEngine/res/img/stand.png"
       sodipodi:nodetypes="cccccc"
       inkscape:connector-curvature="0"
       id="path4116"
       d="m 175.66954,145.68608 c 19.51282,13.42398 14.91902,78.76006 15.14087,127.72442 -2.74388,5.72046 -5.23188,15.4518 -3.74765,21.31458 -5.12416,-10.16164 -8.7315,-10.918 -10.46023,-25.56632 6.22332,-26.83636 1.16472,-97.98906 -13.98745,-109.33237 z"
       style="fill:#ffffff;fill-opacity:1;stroke:#000000;stroke-width:2.5;stroke-linecap:butt;stroke-linejoin:miter;stroke-miterlimit:4;stroke-opacity:1;stroke-dasharray:none" />
    <path
       inkscape:export-ydpi="180"
       inkscape:export-xdpi="180"
       inkscape:export-filename="/home/john/TestEngine/res/img/stand.png"
       sodipodi:nodetypes="ccccccccc"
       inkscape:connector-curvature="0"
       id="path4114"
       d="m 131.14761,127.72023 c -20.0966,5.00034 -42.62922,7.39497 -49.80152,26.21987 -0.700204,3.86625 -1.967908,20.07956 -1.436784,30.67767 3.19808,-7.49765 12.385708,-18.63822 14.442444,-22.14602 19.27325,-0.4104 18.36938,-0.50649 34.67988,-10.47915 7.89991,8.43147 9.57976,17.69297 21.94224,20.91554 5.17117,12.87234 15.68513,15.57866 10.62579,26.63646 20.89417,-9.00142 23.23653,-24.95718 14.27346,-51.71362 -11.87102,-14.2701 -20.63229,-18.30499 -44.72551,-20.11075 z"
       style="fill:#ffffff;fill-opacity:1;stroke:#000000;stroke-width:2.5;stroke-linecap:butt;stroke-linejoin:miter;stroke-miterlimit:4;stroke-opacity:1;stroke-dasharray:none" />
    <path
       sodipodi:nodetypes="ccccccccccc"
       inkscape:connector-curvature="0"
       id="path4800"
       d="m 1040.7152,-46.298218 0,12.12183 -35.3554,22.22336 39.5963,400.849148 1.155,116.1459 89.7243,-26.5283 31.3113,-77.3144 -62.5515,-98.99766 12.8916,-309.1039276 -61.6193,-10.1015204 z"
       style="fill:none;stroke:#000000;stroke-width:1px;stroke-linecap:butt;stroke-linejoin:miter;stroke-opacity:1" />
    <path
       inkscape:export-ydpi="180"
       inkscape:export-xdpi="180"
       inkscape:export-filename="/home/john/TestEngine/res/img/stand.png"
       style="fill:none;stroke:#000000;stroke-width:2.5;stroke-linecap:butt;stroke-linejoin:miter;stroke-miterlimit:4;stroke-opacity:1;stroke-dasharray:none"
       d="m 99.875978,362.82602 c 1.111432,5.89169 1.575502,9.45059 0.818472,13.72959 0.37466,6.87121 -3.103612,12.85358 -3.191044,18.71689 -4.083944,2.45748 -6.87378,1.07553 -9.870728,0.30808 -3.408688,-5.11076 -2.512728,-15.31702 -2.271128,-17.74824 -0.280168,-2.22709 2.173244,-10.14756 3.253916,-15.25726 z"
       id="path6425"
       inkscape:connector-curvature="0"
       sodipodi:nodetypes="ccccccc" />
    <path
       inkscape:export-ydpi="180"
       inkscape:export-xdpi="180"
       inkscape:export-filename="/home/john/TestEngine/res/img/stand.png"
       style="fill:#ffffff;fill-opacity:1;stroke:#000000;stroke-width:2;stroke-linecap:butt;stroke-linejoin:miter;stroke-miterlimit:4;stroke-opacity:1;stroke-dasharray:none"
       d="m 100.18916,468.72994 3.98056,9.13904 -2.39951,20.3308 c -5.332564,-1.77636 -15.173096,5.95312 -18.473412,2.48384 -4.609688,-4.84564 -2.087068,-1.47324 -5.950676,-3.87756 l -0.799232,-18.72316 5.938012,-9.9488 z"
       id="path5577"
       inkscape:connector-curvature="0"
       sodipodi:nodetypes="cccscccc" />
    <path
       style="fill:#c1c1c1;fill-opacity:1;stroke:#000000;stroke-width:2.5;stroke-linecap:butt;stroke-linejoin:miter;stroke-miterlimit:4;stroke-opacity:1;stroke-dasharray:none"
       d="m 137.92448,464.56806 c 1.05484,19.96236 15.24696,36.27972 3.5269,75.52569 -9.60268,37.13176 -6.34446,39.90536 -6.68442,72.0578 2.99048,20.47872 -17.38302,90.05191 -6.66688,127.37567 l -24.52174,5.685 c 2.01336,-27.83728 5.32404,-81.58783 -4.128198,-128.99615 -3.14148,-37.16016 -5.0561,-64.5314 -6.31546,-82.84916 -3.80682,-21.49461 0.4068,-27.87033 1.61476,-51.87801 z"
       id="path4128"
       inkscape:connector-curvature="0"
       sodipodi:nodetypes="ccccccccc" />
    <path
       sodipodi:nodetypes="ccccccccc"
       inkscape:connector-curvature="0"
       id="path3812"
       d="m 183.70666,463.80506 c 1.05484,19.95884 10.98566,34.63864 -0.7344,73.88457 -9.60268,37.13176 -0.3462,36.62448 -0.68682,68.78392 -0.33384,23.34796 -11.35648,90.05191 -0.21006,127.37567 l -24.52174,5.678 c 2.01406,-27.83728 -0.35746,-81.58783 -9.8097,-128.99615 -7.1996,-32.084 -2.46832,-54.15432 -11.337,-90.73781 -1.29638,-13.24304 -9.14832,-30.02068 -6.1476,-43.98344 z"
       style="fill:#c1c1c1;fill-opacity:1;stroke:#000000;stroke-width:2.5;stroke-linecap:butt;stroke-linejoin:miter;stroke-miterlimit:4;stroke-opacity:1;stroke-dasharray:none" />
    <path
       inkscape:export-ydpi="180"
       inkscape:export-xdpi="180"
       inkscape:export-filename="/home/john/TestEngine/res/img/stand.png"
       style="fill:#202020;fill-opacity:1;stroke:#000000;stroke-width:2.5;stroke-linecap:butt;stroke-linejoin:miter;stroke-miterlimit:4;stroke-opacity:1;stroke-dasharray:none"
       d="m 85.864362,268.97591 c -12.11806,82.50538 0.89422,125.89451 -7.662476,203.50847 l 22.708834,1.7894 c 5.23322,-80.45584 17.26799,-131.98324 14.47758,-212.70906 -11.12911,-5.70619 -19.825634,-3.20698 -29.523938,7.41119 z"
       id="path4893"
       inkscape:connector-curvature="0"
       sodipodi:nodetypes="ccccc" />
    <path
       inkscape:export-ydpi="180"
       inkscape:export-xdpi="180"
       inkscape:export-filename="/home/john/TestEngine/res/img/stand.png"
       style="fill:#adadad;fill-opacity:1;stroke:#000000;stroke-width:2.5;stroke-linecap:butt;stroke-linejoin:miter;stroke-miterlimit:4;stroke-opacity:1;stroke-dasharray:none"
       d="M 93.059082,478.36302 118.33023,268.86865 c 7.38677,12.63484 32.9748,4.84862 31.3138,0.5331 -3.5574,-9.24258 14.89234,233.15707 10.00906,207.83107 -23.30091,12.15844 -46.15316,9.8814 -66.594008,1.1302 z"
       id="path3013"
       inkscape:connector-curvature="0"
       sodipodi:nodetypes="ccscc" />
    <path
       inkscape:export-ydpi="180"
       inkscape:export-xdpi="180"
       inkscape:export-filename="/home/john/TestEngine/res/img/stand.png"
       sodipodi:nodetypes="sccccs"
       inkscape:connector-curvature="0"
       id="path4897"
       d="m 108.94874,316.02536 c -3.74443,-0.1692 -7.13617,1.93162 -9.164858,7.83574 -3.21358,18.25386 19.948878,51.07384 24.733828,55.8711 6.34689,-6.52096 32.80494,-33.46567 32.10444,-51.98702 -3.68843,-18.72272 -24.662,-6.39595 -28.70904,2.27738 -1.90492,-6.15203 -11.26388,-13.6495 -18.96437,-13.9972 z"
       style="fill:#ff1541;fill-opacity:1;stroke:#000000;stroke-width:1.36576343;stroke-linecap:butt;stroke-linejoin:miter;stroke-miterlimit:4;stroke-opacity:1;stroke-dasharray:none" />
    <path
       style="fill:#161616;fill-opacity:1;stroke:#000000;stroke-width:2.5;stroke-linecap:butt;stroke-linejoin:miter;stroke-miterlimit:4;stroke-opacity:1;stroke-dasharray:none"
       d="M 98.573622,503.29954 C 91.613118,501.09178 89.52813,492.20958 83.025858,486.74462 93.81113,443.91814 99.31549,396.45423 86.227146,328.15179 c 8.378964,-18.52586 2.247076,-44.43094 15.618144,-68.65668 5.80596,-5.59651 22.08389,-13.82247 19.93205,-1.88703 -13.35408,10.96727 0.5769,242.61274 -23.203718,245.69146 z"
       id="path3015"
       inkscape:connector-curvature="0"
       sodipodi:nodetypes="cccccc"
       inkscape:export-filename="/home/john/TestEngine/res/img/stand.png"
       inkscape:export-xdpi="180"
       inkscape:export-ydpi="180" />
    <path
       sodipodi:nodetypes="cccccccc"
       inkscape:connector-curvature="0"
       id="path3814"
       d="m 189.17454,657.67887 c -3.78164,25.12787 -3.9036,54.20419 -8.16688,78.96471 -0.0799,17.6898 3.86264,17.19352 4.89476,28.66352 -12.28924,3.38824 -4.18273,4.05024 -30.67397,10.60464 -5.68106,-0.70332 -40.42724,6.91556 -31.23988,-10.22716 -3.95551,-28.57128 27.14104,-17.84356 32.00162,-24.22244 1.73594,-23.30332 -7.43229,-43.47724 -6.74495,-73.76759 19.9351,1.074 26.77846,-2.61024 39.9293,-10.01568 z"
       style="fill:#000000;fill-opacity:1;stroke:#000000;stroke-width:2.5;stroke-linecap:butt;stroke-linejoin:miter;stroke-miterlimit:4;stroke-opacity:1;stroke-dasharray:none" />
    <path
       inkscape:export-ydpi="180"
       inkscape:export-xdpi="180"
       inkscape:export-filename="/home/john/TestEngine/res/img/stand.png"
       sodipodi:nodetypes="cccccsscc"
       inkscape:connector-curvature="0"
       id="path3009"
       d="m 139.90348,321.31417 c -0.51078,20.42198 6.48046,134.24141 2.07972,182.72121 19.45733,8.15572 56.70989,-9.0516 54.93587,-18.7454 -5.26075,-20.04808 -6.34726,-121.35624 -6.64747,-135.56526 -1.59167,-24.54839 -14.86473,-57.24863 -14.51412,-66.6538 0.11351,-11.38891 -1.32532,-18.05454 -3.4229,-19.69164 -5.28265,-4.12218 -7.69397,-5.34327 -8.376,-9.52826 -1.48229,-9.0966 -15.93097,4.69363 -15.93097,4.69363 -9.1266,20.4581 -8.63504,55.66346 -8.12413,62.76952 z"
       style="fill:#161616;fill-opacity:1;stroke:#000000;stroke-width:2.5;stroke-linecap:butt;stroke-linejoin:miter;stroke-miterlimit:4;stroke-opacity:1;stroke-dasharray:none" />
    <path
       sodipodi:nodetypes="ccccc"
       inkscape:connector-curvature="0"
       id="path4823"
       d="m 1232.6114,-336.22644 c -18.8562,-3.44799 -37.7123,-18.61674 -56.5685,0 -16.4258,146.80884 -12.8968,289.577072 -24.3452,434.365602 l 83.9442,5.050798 z"
       style="fill:none;stroke:#000000;stroke-width:2;stroke-linecap:butt;stroke-linejoin:miter;stroke-miterlimit:4;stroke-opacity:1;stroke-dasharray:none" />
    <path
       sodipodi:nodetypes="ccccccccc"
       inkscape:connector-curvature="0"
       id="path3814-2-6"
       d="m 137.35717,663.68683 c -3.30424,21.95599 -4.5307,35.87083 -2.52908,57.73239 3.93248,14.94932 1.02552,20.394 4.48918,29.83648 -15.12568,-1.63688 -36.2657,4.67008 -65.835404,5.66884 -4.95338,0.69096 -9.59178,-12.43456 -5.98076,-23.5568 7.98112,-7.39384 15.43402,-6.48624 24.13448,-8.52212 6.43604,-2.22596 9.099844,-4.47568 11.760044,-10.96236 0.89796,-20.6736 -7.772604,-23.7672 -7.171824,-50.23863 z"
       style="fill:#000000;fill-opacity:1;stroke:#000000;stroke-width:2.5;stroke-linecap:butt;stroke-linejoin:miter;stroke-miterlimit:4;stroke-opacity:1;stroke-dasharray:none" />
    <path
       inkscape:export-ydpi="180"
       inkscape:export-xdpi="180"
       inkscape:export-filename="/home/john/TestEngine/res/img/stand.png"
       sodipodi:nodetypes="cccscccc"
       inkscape:connector-curvature="0"
       id="path5575"
       d="m 182.21962,481.09618 3.98056,9.13904 -2.39952,20.33084 c -5.33257,-1.77632 -15.17309,5.95308 -18.47341,2.4838 -4.60968,-4.8456 -2.08707,-1.4732 -5.95067,-3.87756 l -0.79923,-18.7232 5.938,-9.94872 z"
       style="fill:#ffffff;fill-opacity:1;stroke:#000000;stroke-width:2;stroke-linecap:butt;stroke-linejoin:miter;stroke-miterlimit:4;stroke-opacity:1;stroke-dasharray:none" />
    <path
       inkscape:export-ydpi="180"
       inkscape:export-xdpi="180"
       inkscape:export-filename="/home/john/TestEngine/res/img/stand.png"
       sodipodi:nodetypes="ccccc"
       inkscape:connector-curvature="0"
       id="path4846"
       d="m 190.20213,272.26296 c 6.54331,83.13344 -9.55194,131.34627 -6.23306,209.36006 l -22.77776,0.2584 c 0.18816,-80.62568 -8.36161,-132.64571 -0.14984,-213.00125 11.48758,-4.94501 20.08949,-4.63278 29.16066,3.38279 z"
       style="fill:#202020;fill-opacity:1;stroke:#000000;stroke-width:2.5;stroke-linecap:butt;stroke-linejoin:miter;stroke-miterlimit:4;stroke-opacity:1;stroke-dasharray:none" />
    <path
       style="fill:none;stroke:#000000;stroke-width:2.5;stroke-linecap:butt;stroke-linejoin:miter;stroke-miterlimit:4;stroke-opacity:1;stroke-dasharray:none"
       d="m 336.78571,767.00504 c 28.16152,6.46171 30.78765,0.15573 41.42858,-2.14286"
       id="path5368"
       inkscape:connector-curvature="0"
       sodipodi:nodetypes="cc" />
  </g>
</svg>
