<?xml version="1.0" standalone="no"?>
<!DOCTYPE svg PUBLIC "-//W3C//DTD SVG 1.1//EN" 
  "http://www.w3.org/Graphics/SVG/1.1/DTD/svg11.dtd">
<svg width="1024" height="1024" viewBox="0 0 1024 1024"
     xmlns="http://www.w3.org/2000/svg" version="1.1">
<desc>'store.blend', Cube, (Blender 2.71 (sub 0))</desc>
<polygon stroke="black" stroke-width="1" fill="grey" fill-opacity="0.25" points="290.041,80.562 415.670,80.562 415.670,44.451 290.041,44.451 " />
<polygon stroke="black" stroke-width="1" fill="grey" fill-opacity="0.25" points="389.459,79.419 415.670,79.419 415.670,43.504 389.459,43.504 " />
<polygon stroke="black" stroke-width="1" fill="grey" fill-opacity="0.25" points="290.041,78.516 415.670,78.516 415.670,43.454 290.041,43.454 " />
<polygon stroke="black" stroke-width="1" fill="grey" fill-opacity="0.25" points="187.072,159.807 17.041,159.807 17.041,229.325 187.072,229.325 " />
<polygon stroke="black" stroke-width="1" fill="grey" fill-opacity="0.25" points="290.041,68.160 415.670,68.160 415.670,44.481 290.041,44.481 " />
<polygon stroke="black" stroke-width="1" fill="grey" fill-opacity="0.25" points="290.041,79.142 415.670,79.142 415.670,43.931 290.041,43.931 " />
<polygon stroke="black" stroke-width="1" fill="grey" fill-opacity="0.25" points="290.041,140.656 415.670,140.656 415.670,80.562 290.041,80.562 " />
<polygon stroke="black" stroke-width="1" fill="grey" fill-opacity="0.25" points="389.459,139.563 415.670,139.563 415.670,79.419 389.459,79.419 " />
<polygon stroke="black" stroke-width="1" fill="grey" fill-opacity="0.25" points="290.041,144.206 415.670,144.206 415.670,78.516 290.041,78.516 " />
<polygon stroke="black" stroke-width="1" fill="grey" fill-opacity="0.25" points="290.041,79.419 380.530,79.419 380.530,43.504 290.041,43.504 " />
<polygon stroke="black" stroke-width="1" fill="grey" fill-opacity="0.25" points="187.072,159.807 17.041,159.807 17.041,229.325 187.072,229.325 " />
<polygon stroke="black" stroke-width="1" fill="grey" fill-opacity="0.25" points="290.041,171.671 415.670,171.671 415.670,140.953 290.041,140.953 " />
<polygon stroke="black" stroke-width="1" fill="grey" fill-opacity="0.25" points="290.041,104.884 415.670,104.884 415.670,79.142 290.041,79.142 " />
<polygon stroke="black" stroke-width="1" fill="grey" fill-opacity="0.25" points="290.041,139.563 380.530,139.563 380.530,79.419 290.041,79.419 " />
<polygon stroke="black" stroke-width="1" fill="grey" fill-opacity="0.25" points="384.039,79.419 385.340,79.419 385.340,43.504 384.039,43.504 " />
<polygon stroke="black" stroke-width="1" fill="grey" fill-opacity="0.25" points="290.041,112.349 415.670,112.349 415.670,101.740 290.041,101.740 " />
<polygon stroke="black" stroke-width="1" fill="grey" fill-opacity="0.25" points="384.039,139.563 385.340,139.563 385.340,79.419 384.039,79.419 " />
<polygon stroke="black" stroke-width="1" fill="grey" fill-opacity="0.25" points="697.623,391.690 615.407,391.690 615.407,457.359 697.623,457.359 " />
<polygon stroke="black" stroke-width="1" fill="grey" fill-opacity="0.25" points="290.041,135.105 415.670,135.105 415.670,114.430 290.041,114.430 " />
<polygon stroke="black" stroke-width="1" fill="grey" fill-opacity="0.25" points="697.623,260.013 615.407,260.013 615.407,391.690 697.623,391.690 " />
<polygon stroke="black" stroke-width="1" fill="grey" fill-opacity="0.25" points="385.340,79.419 388.158,79.419 388.158,43.504 385.340,43.504 " />
<polygon stroke="black" stroke-width="1" fill="grey" fill-opacity="0.25" points="290.041,101.740 415.670,101.740 415.670,78.766 290.041,78.766 " />
<polygon stroke="black" stroke-width="1" fill="grey" fill-opacity="0.25" points="385.340,139.563 388.158,139.563 388.158,79.419 385.340,79.419 " />
<polygon stroke="black" stroke-width="1" fill="grey" fill-opacity="0.25" points="187.072,159.807 17.041,159.807 17.041,229.325 187.072,229.325 " />
<polygon stroke="black" stroke-width="1" fill="grey" fill-opacity="0.25" points="290.041,144.649 415.670,144.649 415.670,135.105 290.041,135.105 " />
<polygon stroke="black" stroke-width="1" fill="grey" fill-opacity="0.25" points="187.072,159.807 17.041,159.807 17.041,229.325 187.072,229.325 " />
<polygon stroke="black" stroke-width="1" fill="grey" fill-opacity="0.25" points="290.041,114.430 415.670,114.430 415.670,104.884 290.041,104.884 " />
<polygon stroke="black" stroke-width="1" fill="grey" fill-opacity="0.25" points="380.530,79.419 384.039,79.419 384.039,43.504 380.530,43.504 " />
<polygon stroke="black" stroke-width="1" fill="grey" fill-opacity="0.25" points="290.041,140.953 415.670,140.953 415.670,112.349 290.041,112.349 " />
<polygon stroke="black" stroke-width="1" fill="grey" fill-opacity="0.25" points="380.530,139.563 384.039,139.563 384.039,79.419 380.530,79.419 " />
<polygon stroke="black" stroke-width="1" fill="grey" fill-opacity="0.25" points="388.158,79.419 389.459,79.419 389.459,43.504 388.158,43.504 " />
<polygon stroke="black" stroke-width="1" fill="grey" fill-opacity="0.25" points="290.041,78.766 415.670,78.766 415.670,68.160 290.041,68.160 " />
<polygon stroke="black" stroke-width="1" fill="grey" fill-opacity="0.25" points="388.158,139.563 389.459,139.563 389.459,79.419 388.158,79.419 " />
<polygon stroke="black" stroke-width="1" fill="grey" fill-opacity="0.25" points="187.072,159.807 17.041,159.807 17.041,229.325 187.072,229.325 " />
<polygon stroke="black" stroke-width="1" fill="grey" fill-opacity="0.25" points="290.041,165.959 415.670,165.959 415.670,144.649 290.041,144.649 " />
<polygon stroke="black" stroke-width="1" fill="grey" fill-opacity="0.25" points="290.041,148.873 415.670,148.873 415.670,140.656 290.041,140.656 " />
<polygon stroke="black" stroke-width="1" fill="grey" fill-opacity="0.25" points="389.459,147.788 415.670,147.788 415.670,139.563 389.459,139.563 " />
<polygon stroke="black" stroke-width="1" fill="grey" fill-opacity="0.25" points="290.041,153.189 415.670,153.189 415.670,144.206 290.041,144.206 " />
<polygon stroke="black" stroke-width="1" fill="grey" fill-opacity="0.25" points="437.721,817.817 249.742,817.817 249.742,821.473 437.721,821.473 " />
<polygon stroke="black" stroke-width="1" fill="grey" fill-opacity="0.25" points="290.041,147.788 380.530,147.788 380.530,139.563 290.041,139.563 " />
<polygon stroke="black" stroke-width="1" fill="grey" fill-opacity="0.25" points="613.584,817.817 437.721,817.817 437.721,821.473 613.584,821.473 " />
<polygon stroke="black" stroke-width="1" fill="grey" fill-opacity="0.25" points="384.039,147.788 385.340,147.788 385.340,139.563 384.039,139.563 " />
<polygon stroke="black" stroke-width="1" fill="grey" fill-opacity="0.25" points="569.400,875.335 628.310,875.335 628.310,849.384 569.400,849.384 " />
<polygon stroke="black" stroke-width="1" fill="grey" fill-opacity="0.25" points="385.340,147.788 388.158,147.788 388.158,139.563 385.340,139.563 " />
<polygon stroke="black" stroke-width="1" fill="grey" fill-opacity="0.25" points="779.707,817.817 769.628,817.817 745.853,821.473 779.707,821.473 " />
<polygon stroke="black" stroke-width="1" fill="grey" fill-opacity="0.25" points="628.310,875.335 655.513,875.335 655.513,849.384 628.310,849.384 " />
<polygon stroke="black" stroke-width="1" fill="grey" fill-opacity="0.25" points="380.530,147.788 384.039,147.788 384.039,139.563 380.530,139.563 " />
<polygon stroke="black" stroke-width="1" fill="grey" fill-opacity="0.25" points="388.158,147.788 389.459,147.788 389.459,139.563 388.158,139.563 " />
<polygon stroke="black" stroke-width="1" fill="grey" fill-opacity="0.25" points="927.343,817.817 779.707,817.817 779.707,821.473 927.343,821.473 " />
<polygon stroke="black" stroke-width="1" fill="grey" fill-opacity="0.25" points="290.041,173.582 415.670,173.582 415.670,148.873 290.041,148.873 " />
<polygon stroke="black" stroke-width="1" fill="grey" fill-opacity="0.25" points="389.459,173.450 415.670,173.450 415.670,147.788 389.459,147.788 " />
<polygon stroke="black" stroke-width="1" fill="grey" fill-opacity="0.25" points="290.041,173.581 415.670,173.581 415.670,153.189 290.041,153.189 " />
<polygon stroke="black" stroke-width="1" fill="grey" fill-opacity="0.25" points="437.721,772.113 249.742,772.113 249.742,817.817 437.721,817.817 " />
<polygon stroke="black" stroke-width="1" fill="grey" fill-opacity="0.25" points="290.041,173.450 380.530,173.450 380.530,147.788 290.041,147.788 " />
<polygon stroke="black" stroke-width="1" fill="grey" fill-opacity="0.25" points="613.584,772.113 437.721,772.113 437.721,817.817 613.584,817.817 " />
<polygon stroke="black" stroke-width="1" fill="grey" fill-opacity="0.25" points="384.039,173.450 385.340,173.450 385.340,147.788 384.039,147.788 " />
<polygon stroke="black" stroke-width="1" fill="grey" fill-opacity="0.25" points="769.628,772.113 623.692,772.113 623.692,817.817 769.628,817.817 " />
<polygon stroke="black" stroke-width="1" fill="grey" fill-opacity="0.25" points="385.340,173.450 388.158,173.450 388.158,147.788 385.340,147.788 " />
<polygon stroke="black" stroke-width="1" fill="grey" fill-opacity="0.25" points="779.707,772.113 769.628,772.113 769.628,817.817 779.707,817.817 " />
<polygon stroke="black" stroke-width="1" fill="grey" fill-opacity="0.25" points="623.692,772.113 613.584,772.113 613.584,817.817 623.692,817.817 " />
<polygon stroke="black" stroke-width="1" fill="grey" fill-opacity="0.25" points="380.530,173.450 384.039,173.450 384.039,147.788 380.530,147.788 " />
<polygon stroke="black" stroke-width="1" fill="grey" fill-opacity="0.25" points="388.158,173.450 389.459,173.450 389.459,147.788 388.158,147.788 " />
<polygon stroke="black" stroke-width="1" fill="grey" fill-opacity="0.25" points="927.343,772.113 779.707,772.113 779.707,817.817 927.343,817.817 " />
<polygon stroke="black" stroke-width="1" fill="grey" fill-opacity="0.25" points="187.072,23.737 17.041,23.737 32.083,31.642 167.202,31.642 " />
<polygon stroke="black" stroke-width="1" fill="grey" fill-opacity="0.25" points="17.041,23.737 17.041,159.807 32.083,150.837 32.083,31.642 " />
<polygon stroke="black" stroke-width="1" fill="grey" fill-opacity="0.25" points="17.041,159.807 187.072,159.807 167.202,150.837 32.083,150.837 " />
<polygon stroke="black" stroke-width="1" fill="grey" fill-opacity="0.25" points="187.072,159.807 187.072,23.737 167.202,31.642 167.202,150.837 " />
<polygon stroke="black" stroke-width="1" fill="grey" fill-opacity="0.25" points="187.072,23.737 17.041,23.737 32.083,31.642 167.202,31.642 " />
<polygon stroke="black" stroke-width="1" fill="grey" fill-opacity="0.25" points="17.041,23.737 17.041,159.807 32.083,150.837 32.083,31.642 " />
<polygon stroke="black" stroke-width="1" fill="grey" fill-opacity="0.25" points="17.041,159.807 187.072,159.807 167.202,150.837 32.083,150.837 " />
<polygon stroke="black" stroke-width="1" fill="grey" fill-opacity="0.25" points="187.072,159.807 187.072,23.737 167.202,31.642 167.202,150.837 " />
<polygon stroke="black" stroke-width="1" fill="grey" fill-opacity="0.25" points="187.072,23.737 17.041,23.737 32.083,31.642 167.202,31.642 " />
<polygon stroke="black" stroke-width="1" fill="grey" fill-opacity="0.25" points="17.041,23.737 17.041,159.807 32.083,150.837 32.083,31.642 " />
<polygon stroke="black" stroke-width="1" fill="grey" fill-opacity="0.25" points="17.041,159.807 187.072,159.807 167.202,150.837 32.083,150.837 " />
<polygon stroke="black" stroke-width="1" fill="grey" fill-opacity="0.25" points="187.072,159.807 187.072,23.737 167.202,31.642 167.202,150.837 " />
<polygon stroke="black" stroke-width="1" fill="grey" fill-opacity="0.25" points="187.072,23.737 17.041,23.737 32.083,31.642 167.202,31.642 " />
<polygon stroke="black" stroke-width="1" fill="grey" fill-opacity="0.25" points="17.041,23.737 17.041,159.807 32.083,150.837 32.083,31.642 " />
<polygon stroke="black" stroke-width="1" fill="grey" fill-opacity="0.25" points="17.041,159.807 187.072,159.807 167.202,150.837 32.083,150.837 " />
<polygon stroke="black" stroke-width="1" fill="grey" fill-opacity="0.25" points="187.072,159.807 187.072,23.737 167.202,31.642 167.202,150.837 " />
<polygon stroke="black" stroke-width="1" fill="grey" fill-opacity="0.25" points="187.072,23.737 17.041,23.737 32.083,31.642 167.202,31.642 " />
<polygon stroke="black" stroke-width="1" fill="grey" fill-opacity="0.25" points="17.041,23.737 17.041,159.807 32.083,150.837 32.083,31.642 " />
<polygon stroke="black" stroke-width="1" fill="grey" fill-opacity="0.25" points="17.041,159.807 187.072,159.807 167.202,150.837 32.083,150.837 " />
<polygon stroke="black" stroke-width="1" fill="grey" fill-opacity="0.25" points="187.072,159.807 187.072,23.737 167.202,31.642 167.202,150.837 " />
<polygon stroke="black" stroke-width="1" fill="grey" fill-opacity="0.25" points="167.202,31.642 32.083,31.642 32.083,150.837 167.202,150.837 " />
<polygon stroke="black" stroke-width="1" fill="grey" fill-opacity="0.25" points="32.083,31.642 32.083,31.642 167.202,31.642 167.202,31.642 " />
<polygon stroke="black" stroke-width="1" fill="grey" fill-opacity="0.25" points="32.083,150.837 32.083,150.837 32.083,31.642 32.083,31.642 " />
<polygon stroke="black" stroke-width="1" fill="grey" fill-opacity="0.25" points="167.202,150.837 167.202,150.837 32.083,150.837 32.083,150.837 " />
<polygon stroke="black" stroke-width="1" fill="grey" fill-opacity="0.25" points="167.202,31.642 167.202,31.642 167.202,150.837 167.202,150.837 " />
<polygon stroke="black" stroke-width="1" fill="grey" fill-opacity="0.25" points="167.202,31.642 32.083,31.642 32.083,150.837 167.202,150.837 " />
<polygon stroke="black" stroke-width="1" fill="grey" fill-opacity="0.25" points="32.083,31.642 32.083,31.642 167.202,31.642 167.202,31.642 " />
<polygon stroke="black" stroke-width="1" fill="grey" fill-opacity="0.25" points="32.083,150.837 32.083,150.837 32.083,31.642 32.083,31.642 " />
<polygon stroke="black" stroke-width="1" fill="grey" fill-opacity="0.25" points="167.202,150.837 167.202,150.837 32.083,150.837 32.083,150.837 " />
<polygon stroke="black" stroke-width="1" fill="grey" fill-opacity="0.25" points="167.202,31.642 167.202,31.642 167.202,150.837 167.202,150.837 " />
<polygon stroke="black" stroke-width="1" fill="grey" fill-opacity="0.25" points="167.202,31.642 32.083,31.642 32.083,150.837 167.202,150.837 " />
<polygon stroke="black" stroke-width="1" fill="grey" fill-opacity="0.25" points="32.083,31.642 32.083,31.642 167.202,31.642 167.202,31.642 " />
<polygon stroke="black" stroke-width="1" fill="grey" fill-opacity="0.25" points="32.083,150.837 32.083,150.837 32.083,31.642 32.083,31.642 " />
<polygon stroke="black" stroke-width="1" fill="grey" fill-opacity="0.25" points="167.202,150.837 167.202,150.837 32.083,150.837 32.083,150.837 " />
<polygon stroke="black" stroke-width="1" fill="grey" fill-opacity="0.25" points="167.202,31.642 167.202,31.642 167.202,150.837 167.202,150.837 " />
<polygon stroke="black" stroke-width="1" fill="grey" fill-opacity="0.25" points="167.202,31.642 32.083,31.642 32.083,150.837 167.202,150.837 " />
<polygon stroke="black" stroke-width="1" fill="grey" fill-opacity="0.25" points="32.083,31.642 32.083,31.642 167.202,31.642 167.202,31.642 " />
<polygon stroke="black" stroke-width="1" fill="grey" fill-opacity="0.25" points="32.083,150.837 32.083,150.837 32.083,31.642 32.083,31.642 " />
<polygon stroke="black" stroke-width="1" fill="grey" fill-opacity="0.25" points="167.202,150.837 167.202,150.837 32.083,150.837 32.083,150.837 " />
<polygon stroke="black" stroke-width="1" fill="grey" fill-opacity="0.25" points="167.202,31.642 167.202,31.642 167.202,150.837 167.202,150.837 " />
<polygon stroke="black" stroke-width="1" fill="grey" fill-opacity="0.25" points="167.202,31.642 32.083,31.642 32.083,150.837 167.202,150.837 " />
<polygon stroke="black" stroke-width="1" fill="grey" fill-opacity="0.25" points="32.083,31.642 32.083,31.642 167.202,31.642 167.202,31.642 " />
<polygon stroke="black" stroke-width="1" fill="grey" fill-opacity="0.25" points="32.083,150.837 32.083,150.837 32.083,31.642 32.083,31.642 " />
<polygon stroke="black" stroke-width="1" fill="grey" fill-opacity="0.25" points="167.202,150.837 167.202,150.837 32.083,150.837 32.083,150.837 " />
<polygon stroke="black" stroke-width="1" fill="grey" fill-opacity="0.25" points="167.202,31.642 167.202,31.642 167.202,150.837 167.202,150.837 " />

</svg>
