<?xml version="1.0" standalone="no"?>
<!DOCTYPE svg PUBLIC "-//W3C//DTD SVG 1.1//EN" 
  "http://www.w3.org/Graphics/SVG/1.1/DTD/svg11.dtd">
<svg width="1024" height="1024" viewBox="0 0 1024 1024"
     xmlns="http://www.w3.org/2000/svg" version="1.1">
<desc>'dumpster.blend', Cube.002, (Blender 2.71 (sub 0))</desc>
<polygon stroke="black" stroke-width="1" fill="rgb(204, 204, 204)" fill-opacity="1" points="572.210,338.514 963.742,339.242 996.365,324.645 592.522,324.645 " />
<polygon stroke="black" stroke-width="1" fill="rgb(204, 204, 204)" fill-opacity="1" points="963.742,339.242 572.210,338.514 572.210,354.167 963.742,354.163 " />
<polygon stroke="black" stroke-width="1" fill="rgb(204, 204, 204)" fill-opacity="1" points="963.742,339.242 963.742,354.163 996.365,354.158 996.365,324.645 " />
<polygon stroke="black" stroke-width="1" fill="rgb(204, 204, 204)" fill-opacity="1" points="572.210,338.514 592.522,324.645 996.365,324.645 963.742,339.242 " />
<polygon stroke="black" stroke-width="1" fill="rgb(204, 204, 204)" fill-opacity="1" points="963.742,339.242 963.742,354.163 572.210,354.167 572.210,338.514 " />
<polygon stroke="black" stroke-width="1" fill="rgb(204, 204, 204)" fill-opacity="1" points="963.742,339.242 996.365,324.645 996.365,354.158 963.742,354.163 " />
<polygon stroke="black" stroke-width="1" fill="rgb(204, 204, 204)" fill-opacity="1" points="572.210,338.514 592.522,324.645 996.365,324.645 963.742,339.242 " />
<polygon stroke="black" stroke-width="1" fill="rgb(204, 204, 204)" fill-opacity="1" points="963.742,339.242 963.742,354.163 572.210,354.167 572.210,338.514 " />
<polygon stroke="black" stroke-width="1" fill="rgb(204, 204, 204)" fill-opacity="1" points="963.742,339.242 996.365,324.645 996.365,354.158 963.742,354.163 " />
<polygon stroke="black" stroke-width="1" fill="rgb(204, 204, 204)" fill-opacity="1" points="572.210,338.514 963.742,339.242 996.365,324.645 592.522,324.645 " />
<polygon stroke="black" stroke-width="1" fill="rgb(204, 204, 204)" fill-opacity="1" points="963.742,339.242 572.210,338.514 572.210,354.167 963.742,354.163 " />
<polygon stroke="black" stroke-width="1" fill="rgb(204, 204, 204)" fill-opacity="1" points="963.742,339.242 963.742,354.163 996.365,354.158 996.365,324.645 " />
<polygon stroke="black" stroke-width="1" fill="rgb(204, 204, 204)" fill-opacity="1" points="572.210,338.514 963.742,339.242 996.365,324.645 592.522,324.645 " />
<polygon stroke="black" stroke-width="1" fill="rgb(204, 204, 204)" fill-opacity="1" points="963.742,339.242 572.210,338.514 572.210,354.167 963.742,354.163 " />
<polygon stroke="black" stroke-width="1" fill="rgb(204, 204, 204)" fill-opacity="1" points="963.742,339.242 963.742,354.163 996.365,354.158 996.365,324.645 " />
<polygon stroke="black" stroke-width="1" fill="rgb(204, 204, 204)" fill-opacity="1" points="572.210,338.514 592.522,324.645 996.365,324.645 963.742,339.242 " />
<polygon stroke="black" stroke-width="1" fill="rgb(204, 204, 204)" fill-opacity="1" points="963.742,339.242 963.742,354.163 572.210,354.167 572.210,338.514 " />
<polygon stroke="black" stroke-width="1" fill="rgb(204, 204, 204)" fill-opacity="1" points="963.742,339.242 996.365,324.645 996.365,354.158 963.742,354.163 " />
<polygon stroke="black" stroke-width="1" fill="rgb(204, 204, 204)" fill-opacity="1" points="572.210,338.514 592.522,324.645 996.365,324.645 963.742,339.242 " />
<polygon stroke="black" stroke-width="1" fill="rgb(204, 204, 204)" fill-opacity="1" points="963.742,339.242 963.742,354.163 572.210,354.167 572.210,338.514 " />
<polygon stroke="black" stroke-width="1" fill="rgb(204, 204, 204)" fill-opacity="1" points="963.742,339.242 996.365,324.645 996.365,354.158 963.742,354.163 " />
<polygon stroke="black" stroke-width="1" fill="rgb(204, 204, 204)" fill-opacity="1" points="572.210,338.514 963.742,339.242 996.365,324.645 592.522,324.645 " />
<polygon stroke="black" stroke-width="1" fill="rgb(204, 204, 204)" fill-opacity="1" points="963.742,339.242 572.210,338.514 572.210,354.167 963.742,354.163 " />
<polygon stroke="black" stroke-width="1" fill="rgb(204, 204, 204)" fill-opacity="1" points="963.742,339.242 963.742,354.163 996.365,354.158 996.365,324.645 " />
<polygon stroke="black" stroke-width="1" fill="rgb(204, 204, 204)" fill-opacity="1" points="572.210,338.514 963.742,339.242 996.365,324.645 592.522,324.645 " />
<polygon stroke="black" stroke-width="1" fill="rgb(204, 204, 204)" fill-opacity="1" points="963.742,339.242 572.210,338.514 572.210,354.167 963.742,354.163 " />
<polygon stroke="black" stroke-width="1" fill="rgb(204, 204, 204)" fill-opacity="1" points="963.742,339.242 963.742,354.163 996.365,354.158 996.365,324.645 " />
<polygon stroke="black" stroke-width="1" fill="rgb(204, 204, 204)" fill-opacity="1" points="572.210,338.514 592.522,324.645 996.365,324.645 963.742,339.242 " />
<polygon stroke="black" stroke-width="1" fill="rgb(204, 204, 204)" fill-opacity="1" points="963.742,339.242 963.742,354.163 572.210,354.167 572.210,338.514 " />
<polygon stroke="black" stroke-width="1" fill="rgb(204, 204, 204)" fill-opacity="1" points="963.742,339.242 996.365,324.645 996.365,354.158 963.742,354.163 " />
<polygon stroke="black" stroke-width="1" fill="rgb(204, 204, 204)" fill-opacity="1" points="572.210,338.514 592.522,324.645 996.365,324.645 963.742,339.242 " />
<polygon stroke="black" stroke-width="1" fill="rgb(204, 204, 204)" fill-opacity="1" points="963.742,339.242 963.742,354.163 572.210,354.167 572.210,338.514 " />
<polygon stroke="black" stroke-width="1" fill="rgb(204, 204, 204)" fill-opacity="1" points="963.742,339.242 996.365,324.645 996.365,354.158 963.742,354.163 " />
<polygon stroke="black" stroke-width="1" fill="rgb(204, 204, 204)" fill-opacity="1" points="572.210,338.514 963.742,339.242 996.365,324.645 592.522,324.645 " />
<polygon stroke="black" stroke-width="1" fill="rgb(204, 204, 204)" fill-opacity="1" points="963.742,339.242 572.210,338.514 572.210,354.167 963.742,354.163 " />
<polygon stroke="black" stroke-width="1" fill="rgb(204, 204, 204)" fill-opacity="1" points="963.742,339.242 963.742,354.163 996.365,354.158 996.365,324.645 " />
<polygon stroke="black" stroke-width="1" fill="rgb(204, 204, 204)" fill-opacity="1" points="572.210,338.514 963.742,339.242 996.365,324.645 592.522,324.645 " />
<polygon stroke="black" stroke-width="1" fill="rgb(204, 204, 204)" fill-opacity="1" points="963.742,339.242 572.210,338.514 572.210,354.167 963.742,354.163 " />
<polygon stroke="black" stroke-width="1" fill="rgb(204, 204, 204)" fill-opacity="1" points="963.742,339.242 963.742,354.163 996.365,354.158 996.365,324.645 " />
<polygon stroke="black" stroke-width="1" fill="rgb(204, 204, 204)" fill-opacity="1" points="572.210,338.514 592.522,324.645 996.365,324.645 963.742,339.242 " />
<polygon stroke="black" stroke-width="1" fill="rgb(204, 204, 204)" fill-opacity="1" points="963.742,339.242 963.742,354.163 572.210,354.167 572.210,338.514 " />
<polygon stroke="black" stroke-width="1" fill="rgb(204, 204, 204)" fill-opacity="1" points="963.742,339.242 996.365,324.645 996.365,354.158 963.742,354.163 " />
<polygon stroke="black" stroke-width="1" fill="rgb(204, 204, 204)" fill-opacity="1" points="572.210,338.514 592.522,324.645 996.365,324.645 963.742,339.242 " />
<polygon stroke="black" stroke-width="1" fill="rgb(204, 204, 204)" fill-opacity="1" points="963.742,339.242 963.742,354.163 572.210,354.167 572.210,338.514 " />
<polygon stroke="black" stroke-width="1" fill="rgb(204, 204, 204)" fill-opacity="1" points="963.742,339.242 996.365,324.645 996.365,354.158 963.742,354.163 " />
<polygon stroke="black" stroke-width="1" fill="rgb(204, 204, 204)" fill-opacity="1" points="572.210,338.514 963.742,339.242 996.365,324.645 592.522,324.645 " />
<polygon stroke="black" stroke-width="1" fill="rgb(204, 204, 204)" fill-opacity="1" points="963.742,339.242 572.210,338.514 572.210,354.167 963.742,354.163 " />
<polygon stroke="black" stroke-width="1" fill="rgb(204, 204, 204)" fill-opacity="1" points="963.742,339.242 963.742,354.163 996.365,354.158 996.365,324.645 " />
<polygon stroke="black" stroke-width="1" fill="rgb(204, 204, 204)" fill-opacity="1" points="572.210,338.514 963.742,339.242 996.365,324.645 592.522,324.645 " />
<polygon stroke="black" stroke-width="1" fill="rgb(204, 204, 204)" fill-opacity="1" points="963.742,339.242 572.210,338.514 572.210,354.167 963.742,354.163 " />
<polygon stroke="black" stroke-width="1" fill="rgb(204, 204, 204)" fill-opacity="1" points="963.742,339.242 963.742,354.163 996.365,354.158 996.365,324.645 " />
<polygon stroke="black" stroke-width="1" fill="rgb(204, 204, 204)" fill-opacity="1" points="572.210,338.514 592.522,324.645 996.365,324.645 963.742,339.242 " />
<polygon stroke="black" stroke-width="1" fill="rgb(204, 204, 204)" fill-opacity="1" points="963.742,339.242 963.742,354.163 572.210,354.167 572.210,338.514 " />
<polygon stroke="black" stroke-width="1" fill="rgb(204, 204, 204)" fill-opacity="1" points="963.742,339.242 996.365,324.645 996.365,354.158 963.742,354.163 " />
<polygon stroke="black" stroke-width="1" fill="rgb(204, 204, 204)" fill-opacity="1" points="572.210,338.514 592.522,324.645 996.365,324.645 963.742,339.242 " />
<polygon stroke="black" stroke-width="1" fill="rgb(204, 204, 204)" fill-opacity="1" points="963.742,339.242 963.742,354.163 572.210,354.167 572.210,338.514 " />
<polygon stroke="black" stroke-width="1" fill="rgb(204, 204, 204)" fill-opacity="1" points="963.742,339.242 996.365,324.645 996.365,354.158 963.742,354.163 " />
<polygon stroke="black" stroke-width="1" fill="rgb(204, 204, 204)" fill-opacity="1" points="572.210,338.514 963.742,339.242 996.365,324.645 592.522,324.645 " />
<polygon stroke="black" stroke-width="1" fill="rgb(204, 204, 204)" fill-opacity="1" points="963.742,339.242 572.210,338.514 572.210,354.167 963.742,354.163 " />
<polygon stroke="black" stroke-width="1" fill="rgb(204, 204, 204)" fill-opacity="1" points="963.742,339.242 963.742,354.163 996.365,354.158 996.365,324.645 " />
<polygon stroke="black" stroke-width="1" fill="rgb(204, 204, 204)" fill-opacity="1" points="572.210,338.514 963.742,339.242 996.365,324.645 592.522,324.645 " />
<polygon stroke="black" stroke-width="1" fill="rgb(204, 204, 204)" fill-opacity="1" points="963.742,339.242 572.210,338.514 572.210,354.167 963.742,354.163 " />
<polygon stroke="black" stroke-width="1" fill="rgb(204, 204, 204)" fill-opacity="1" points="963.742,339.242 963.742,354.163 996.365,354.158 996.365,324.645 " />
<polygon stroke="black" stroke-width="1" fill="rgb(204, 204, 204)" fill-opacity="1" points="572.210,338.514 592.522,324.645 996.365,324.645 963.742,339.242 " />
<polygon stroke="black" stroke-width="1" fill="rgb(204, 204, 204)" fill-opacity="1" points="963.742,339.242 963.742,354.163 572.210,354.167 572.210,338.514 " />
<polygon stroke="black" stroke-width="1" fill="rgb(204, 204, 204)" fill-opacity="1" points="963.742,339.242 996.365,324.645 996.365,354.158 963.742,354.163 " />
<polygon stroke="black" stroke-width="1" fill="rgb(204, 204, 204)" fill-opacity="1" points="572.210,338.514 592.522,324.645 996.365,324.645 963.742,339.242 " />
<polygon stroke="black" stroke-width="1" fill="rgb(204, 204, 204)" fill-opacity="1" points="963.742,339.242 963.742,354.163 572.210,354.167 572.210,338.514 " />
<polygon stroke="black" stroke-width="1" fill="rgb(204, 204, 204)" fill-opacity="1" points="963.742,339.242 996.365,324.645 996.365,354.158 963.742,354.163 " />
<polygon stroke="black" stroke-width="1" fill="rgb(204, 204, 204)" fill-opacity="1" points="572.210,338.514 963.742,339.242 996.365,324.645 592.522,324.645 " />
<polygon stroke="black" stroke-width="1" fill="rgb(204, 204, 204)" fill-opacity="1" points="963.742,339.242 572.210,338.514 572.210,354.167 963.742,354.163 " />
<polygon stroke="black" stroke-width="1" fill="rgb(204, 204, 204)" fill-opacity="1" points="963.742,339.242 963.742,354.163 996.365,354.158 996.365,324.645 " />
<polygon stroke="black" stroke-width="1" fill="rgb(204, 204, 204)" fill-opacity="1" points="572.210,338.514 963.742,339.242 996.365,324.645 592.522,324.645 " />
<polygon stroke="black" stroke-width="1" fill="rgb(204, 204, 204)" fill-opacity="1" points="963.742,339.242 572.210,338.514 572.210,354.167 963.742,354.163 " />
<polygon stroke="black" stroke-width="1" fill="rgb(204, 204, 204)" fill-opacity="1" points="963.742,339.242 963.742,354.163 996.365,354.158 996.365,324.645 " />
<polygon stroke="black" stroke-width="1" fill="rgb(204, 204, 204)" fill-opacity="1" points="572.210,338.514 592.522,324.645 996.365,324.645 963.742,339.242 " />
<polygon stroke="black" stroke-width="1" fill="rgb(204, 204, 204)" fill-opacity="1" points="963.742,339.242 963.742,354.163 572.210,354.167 572.210,338.514 " />
<polygon stroke="black" stroke-width="1" fill="rgb(204, 204, 204)" fill-opacity="1" points="963.742,339.242 996.365,324.645 996.365,354.158 963.742,354.163 " />
<polygon stroke="black" stroke-width="1" fill="rgb(204, 204, 204)" fill-opacity="1" points="572.210,338.514 592.522,324.645 996.365,324.645 963.742,339.242 " />
<polygon stroke="black" stroke-width="1" fill="rgb(204, 204, 204)" fill-opacity="1" points="963.742,339.242 963.742,354.163 572.210,354.167 572.210,338.514 " />
<polygon stroke="black" stroke-width="1" fill="rgb(204, 204, 204)" fill-opacity="1" points="963.742,339.242 996.365,324.645 996.365,354.158 963.742,354.163 " />
<polygon stroke="black" stroke-width="1" fill="rgb(204, 204, 204)" fill-opacity="1" points="572.210,338.514 963.742,339.242 996.365,324.645 592.522,324.645 " />
<polygon stroke="black" stroke-width="1" fill="rgb(204, 204, 204)" fill-opacity="1" points="963.742,339.242 572.210,338.514 572.210,354.167 963.742,354.163 " />
<polygon stroke="black" stroke-width="1" fill="rgb(204, 204, 204)" fill-opacity="1" points="963.742,339.242 963.742,354.163 996.365,354.158 996.365,324.645 " />
<polygon stroke="black" stroke-width="1" fill="rgb(204, 204, 204)" fill-opacity="1" points="572.210,338.514 963.742,339.242 996.365,324.645 592.522,324.645 " />
<polygon stroke="black" stroke-width="1" fill="rgb(204, 204, 204)" fill-opacity="1" points="963.742,339.242 572.210,338.514 572.210,354.167 963.742,354.163 " />
<polygon stroke="black" stroke-width="1" fill="rgb(204, 204, 204)" fill-opacity="1" points="963.742,339.242 963.742,354.163 996.365,354.158 996.365,324.645 " />
<polygon stroke="black" stroke-width="1" fill="rgb(204, 204, 204)" fill-opacity="1" points="572.210,338.514 592.522,324.645 996.365,324.645 963.742,339.242 " />
<polygon stroke="black" stroke-width="1" fill="rgb(204, 204, 204)" fill-opacity="1" points="963.742,339.242 963.742,354.163 572.210,354.167 572.210,338.514 " />
<polygon stroke="black" stroke-width="1" fill="rgb(204, 204, 204)" fill-opacity="1" points="963.742,339.242 996.365,324.645 996.365,354.158 963.742,354.163 " />
<polygon stroke="black" stroke-width="1" fill="rgb(204, 204, 204)" fill-opacity="1" points="572.210,338.514 592.522,324.645 996.365,324.645 963.742,339.242 " />
<polygon stroke="black" stroke-width="1" fill="rgb(204, 204, 204)" fill-opacity="1" points="963.742,339.242 963.742,354.163 572.210,354.167 572.210,338.514 " />
<polygon stroke="black" stroke-width="1" fill="rgb(204, 204, 204)" fill-opacity="1" points="963.742,339.242 996.365,324.645 996.365,354.158 963.742,354.163 " />
<polygon stroke="black" stroke-width="1" fill="rgb(204, 204, 204)" fill-opacity="1" points="572.210,338.514 963.742,339.242 996.365,324.645 592.522,324.645 " />
<polygon stroke="black" stroke-width="1" fill="rgb(204, 204, 204)" fill-opacity="1" points="963.742,339.242 572.210,338.514 572.210,354.167 963.742,354.163 " />
<polygon stroke="black" stroke-width="1" fill="rgb(204, 204, 204)" fill-opacity="1" points="963.742,339.242 963.742,354.163 996.365,354.158 996.365,324.645 " />
<polygon stroke="black" stroke-width="1" fill="rgb(204, 204, 204)" fill-opacity="1" points="572.210,338.514 963.742,339.242 996.365,324.645 592.522,324.645 " />
<polygon stroke="black" stroke-width="1" fill="rgb(204, 204, 204)" fill-opacity="1" points="963.742,339.242 572.210,338.514 572.210,354.167 963.742,354.163 " />
<polygon stroke="black" stroke-width="1" fill="rgb(204, 204, 204)" fill-opacity="1" points="963.742,339.242 963.742,354.163 996.365,354.158 996.365,324.645 " />
<polygon stroke="black" stroke-width="1" fill="rgb(204, 204, 204)" fill-opacity="1" points="572.210,338.514 592.522,324.645 996.365,324.645 963.742,339.242 " />
<polygon stroke="black" stroke-width="1" fill="rgb(204, 204, 204)" fill-opacity="1" points="963.742,339.242 963.742,354.163 572.210,354.167 572.210,338.514 " />
<polygon stroke="black" stroke-width="1" fill="rgb(204, 204, 204)" fill-opacity="1" points="963.742,339.242 996.365,324.645 996.365,354.158 963.742,354.163 " />
<polygon stroke="black" stroke-width="1" fill="rgb(204, 204, 204)" fill-opacity="1" points="572.210,338.514 592.522,324.645 996.365,324.645 963.742,339.242 " />
<polygon stroke="black" stroke-width="1" fill="rgb(204, 204, 204)" fill-opacity="1" points="963.742,339.242 963.742,354.163 572.210,354.167 572.210,338.514 " />
<polygon stroke="black" stroke-width="1" fill="rgb(204, 204, 204)" fill-opacity="1" points="963.742,339.242 996.365,324.645 996.365,354.158 963.742,354.163 " />
<polygon stroke="black" stroke-width="1" fill="rgb(204, 204, 204)" fill-opacity="1" points="572.210,338.514 963.742,339.242 996.365,324.645 592.522,324.645 " />
<polygon stroke="black" stroke-width="1" fill="rgb(204, 204, 204)" fill-opacity="1" points="963.742,339.242 572.210,338.514 572.210,354.167 963.742,354.163 " />
<polygon stroke="black" stroke-width="1" fill="rgb(204, 204, 204)" fill-opacity="1" points="963.742,339.242 963.742,354.163 996.365,354.158 996.365,324.645 " />
<polygon stroke="black" stroke-width="1" fill="rgb(204, 204, 204)" fill-opacity="1" points="572.210,338.514 963.742,339.242 996.365,324.645 592.522,324.645 " />
<polygon stroke="black" stroke-width="1" fill="rgb(204, 204, 204)" fill-opacity="1" points="963.742,339.242 572.210,338.514 572.210,354.167 963.742,354.163 " />
<polygon stroke="black" stroke-width="1" fill="rgb(204, 204, 204)" fill-opacity="1" points="963.742,339.242 963.742,354.163 996.365,354.158 996.365,324.645 " />
<polygon stroke="black" stroke-width="1" fill="rgb(204, 204, 204)" fill-opacity="1" points="572.210,338.514 592.522,324.645 996.365,324.645 963.742,339.242 " />
<polygon stroke="black" stroke-width="1" fill="rgb(204, 204, 204)" fill-opacity="1" points="963.742,339.242 963.742,354.163 572.210,354.167 572.210,338.514 " />
<polygon stroke="black" stroke-width="1" fill="rgb(204, 204, 204)" fill-opacity="1" points="963.742,339.242 996.365,324.645 996.365,354.158 963.742,354.163 " />
<polygon stroke="black" stroke-width="1" fill="rgb(204, 204, 204)" fill-opacity="1" points="572.210,338.514 592.522,324.645 996.365,324.645 963.742,339.242 " />
<polygon stroke="black" stroke-width="1" fill="rgb(204, 204, 204)" fill-opacity="1" points="963.742,339.242 963.742,354.163 572.210,354.167 572.210,338.514 " />
<polygon stroke="black" stroke-width="1" fill="rgb(204, 204, 204)" fill-opacity="1" points="963.742,339.242 996.365,324.645 996.365,354.158 963.742,354.163 " />
<polygon stroke="black" stroke-width="1" fill="rgb(204, 204, 204)" fill-opacity="1" points="572.210,338.514 963.742,339.242 996.365,324.645 592.522,324.645 " />
<polygon stroke="black" stroke-width="1" fill="rgb(204, 204, 204)" fill-opacity="1" points="963.742,339.242 572.210,338.514 572.210,354.167 963.742,354.163 " />
<polygon stroke="black" stroke-width="1" fill="rgb(204, 204, 204)" fill-opacity="1" points="963.742,339.242 963.742,354.163 996.365,354.158 996.365,324.645 " />
<polygon stroke="black" stroke-width="1" fill="rgb(204, 204, 204)" fill-opacity="1" points="572.210,338.514 963.742,339.242 996.365,324.645 592.522,324.645 " />
<polygon stroke="black" stroke-width="1" fill="rgb(204, 204, 204)" fill-opacity="1" points="963.742,339.242 572.210,338.514 572.210,354.167 963.742,354.163 " />
<polygon stroke="black" stroke-width="1" fill="rgb(204, 204, 204)" fill-opacity="1" points="963.742,339.242 963.742,354.163 996.365,354.158 996.365,324.645 " />
<polygon stroke="black" stroke-width="1" fill="rgb(204, 204, 204)" fill-opacity="1" points="572.210,338.514 592.522,324.645 996.365,324.645 963.742,339.242 " />
<polygon stroke="black" stroke-width="1" fill="rgb(204, 204, 204)" fill-opacity="1" points="963.742,339.242 963.742,354.163 572.210,354.167 572.210,338.514 " />
<polygon stroke="black" stroke-width="1" fill="rgb(204, 204, 204)" fill-opacity="1" points="963.742,339.242 996.365,324.645 996.365,354.158 963.742,354.163 " />
<polygon stroke="black" stroke-width="1" fill="rgb(204, 204, 204)" fill-opacity="1" points="572.210,338.514 592.522,324.645 996.365,324.645 963.742,339.242 " />
<polygon stroke="black" stroke-width="1" fill="rgb(204, 204, 204)" fill-opacity="1" points="963.742,339.242 963.742,354.163 572.210,354.167 572.210,338.514 " />
<polygon stroke="black" stroke-width="1" fill="rgb(204, 204, 204)" fill-opacity="1" points="963.742,339.242 996.365,324.645 996.365,354.158 963.742,354.163 " />
<polygon stroke="black" stroke-width="1" fill="rgb(204, 204, 204)" fill-opacity="1" points="572.210,338.514 963.742,339.242 996.365,324.645 592.522,324.645 " />
<polygon stroke="black" stroke-width="1" fill="rgb(204, 204, 204)" fill-opacity="1" points="963.742,339.242 572.210,338.514 572.210,354.167 963.742,354.163 " />
<polygon stroke="black" stroke-width="1" fill="rgb(204, 204, 204)" fill-opacity="1" points="963.742,339.242 963.742,354.163 996.365,354.158 996.365,324.645 " />
<polygon stroke="black" stroke-width="1" fill="rgb(204, 204, 204)" fill-opacity="1" points="572.210,338.514 963.742,339.242 996.365,324.645 592.522,324.645 " />
<polygon stroke="black" stroke-width="1" fill="rgb(204, 204, 204)" fill-opacity="1" points="963.742,339.242 572.210,338.514 572.210,354.167 963.742,354.163 " />
<polygon stroke="black" stroke-width="1" fill="rgb(204, 204, 204)" fill-opacity="1" points="963.742,339.242 963.742,354.163 996.365,354.158 996.365,324.645 " />
<polygon stroke="black" stroke-width="1" fill="rgb(204, 204, 204)" fill-opacity="1" points="572.210,338.514 592.522,324.645 996.365,324.645 963.742,339.242 " />
<polygon stroke="black" stroke-width="1" fill="rgb(204, 204, 204)" fill-opacity="1" points="963.742,339.242 963.742,354.163 572.210,354.167 572.210,338.514 " />
<polygon stroke="black" stroke-width="1" fill="rgb(204, 204, 204)" fill-opacity="1" points="963.742,339.242 996.365,324.645 996.365,354.158 963.742,354.163 " />
<polygon stroke="black" stroke-width="1" fill="rgb(204, 204, 204)" fill-opacity="1" points="572.210,338.514 592.522,324.645 996.365,324.645 963.742,339.242 " />
<polygon stroke="black" stroke-width="1" fill="rgb(204, 204, 204)" fill-opacity="1" points="963.742,339.242 963.742,354.163 572.210,354.167 572.210,338.514 " />
<polygon stroke="black" stroke-width="1" fill="rgb(204, 204, 204)" fill-opacity="1" points="963.742,339.242 996.365,324.645 996.365,354.158 963.742,354.163 " />
<polygon stroke="black" stroke-width="1" fill="rgb(204, 204, 204)" fill-opacity="1" points="572.210,338.514 963.742,339.242 996.365,324.645 592.522,324.645 " />
<polygon stroke="black" stroke-width="1" fill="rgb(204, 204, 204)" fill-opacity="1" points="963.742,339.242 572.210,338.514 572.210,354.167 963.742,354.163 " />
<polygon stroke="black" stroke-width="1" fill="rgb(204, 204, 204)" fill-opacity="1" points="963.742,339.242 963.742,354.163 996.365,354.158 996.365,324.645 " />
<polygon stroke="black" stroke-width="1" fill="rgb(204, 204, 204)" fill-opacity="1" points="405.591,749.496 405.591,749.496 405.591,749.496 405.591,749.496 " />
<polygon stroke="black" stroke-width="1" fill="rgb(204, 204, 204)" fill-opacity="1" points="405.591,749.496 405.591,749.496 405.591,749.496 405.591,749.496 " />
<polygon stroke="black" stroke-width="1" fill="rgb(204, 204, 204)" fill-opacity="1" points="405.591,749.496 405.591,749.496 405.591,749.496 405.591,749.496 " />
<polygon stroke="black" stroke-width="1" fill="rgb(204, 204, 204)" fill-opacity="1" points="405.591,749.496 405.591,749.496 405.591,749.496 405.591,749.496 " />
<polygon stroke="black" stroke-width="1" fill="rgb(204, 204, 204)" fill-opacity="1" points="405.591,749.496 405.591,749.496 405.591,749.496 405.591,749.496 " />
<polygon stroke="black" stroke-width="1" fill="rgb(204, 204, 204)" fill-opacity="1" points="405.591,749.496 405.591,749.496 405.591,749.496 405.591,749.496 " />
<polygon stroke="black" stroke-width="1" fill="rgb(204, 204, 204)" fill-opacity="1" points="405.591,749.496 405.591,749.496 405.591,749.496 405.591,749.496 " />
<polygon stroke="black" stroke-width="1" fill="rgb(204, 204, 204)" fill-opacity="1" points="405.591,749.496 405.591,749.496 405.591,749.496 405.591,749.496 " />
<polygon stroke="black" stroke-width="1" fill="rgb(204, 204, 204)" fill-opacity="1" points="405.591,749.496 405.591,749.496 405.591,749.496 405.591,749.496 " />
<polygon stroke="black" stroke-width="1" fill="rgb(204, 204, 204)" fill-opacity="1" points="405.591,749.496 405.591,749.496 405.591,749.496 405.591,749.496 " />
<polygon stroke="black" stroke-width="1" fill="rgb(204, 204, 204)" fill-opacity="1" points="405.591,749.496 405.591,749.496 405.591,749.496 405.591,749.496 " />
<polygon stroke="black" stroke-width="1" fill="rgb(204, 204, 204)" fill-opacity="1" points="405.591,749.496 405.591,749.496 405.591,749.496 405.591,749.496 " />
<polygon stroke="black" stroke-width="1" fill="rgb(204, 204, 204)" fill-opacity="1" points="395.945,802.068 395.945,882.291 401.965,882.291 401.965,802.068 " />
<polygon stroke="black" stroke-width="1" fill="rgb(204, 204, 204)" fill-opacity="1" points="405.591,749.496 405.591,749.496 405.591,749.496 405.591,749.496 " />
<polygon stroke="black" stroke-width="1" fill="rgb(204, 204, 204)" fill-opacity="1" points="405.591,749.496 405.591,749.496 405.591,749.496 405.591,749.496 " />
<polygon stroke="black" stroke-width="1" fill="rgb(204, 204, 204)" fill-opacity="1" points="59.325,215.802 59.325,132.093 49.874,132.093 48.068,215.802 " />
<polygon stroke="black" stroke-width="1" fill="rgb(204, 204, 204)" fill-opacity="1" points="405.591,749.496 405.591,749.496 405.591,749.496 405.591,749.496 " />
<polygon stroke="black" stroke-width="1" fill="rgb(204, 204, 204)" fill-opacity="1" points="405.591,749.496 405.591,749.496 405.591,749.496 405.591,749.496 " />
<polygon stroke="black" stroke-width="1" fill="rgb(204, 204, 204)" fill-opacity="1" points="405.591,749.496 405.591,749.496 405.591,749.496 405.591,749.496 " />
<polygon stroke="black" stroke-width="1" fill="rgb(204, 204, 204)" fill-opacity="1" points="405.591,749.496 405.591,749.496 405.591,749.496 405.591,749.496 " />
<polygon stroke="black" stroke-width="1" fill="rgb(204, 204, 204)" fill-opacity="1" points="405.591,749.496 405.591,749.496 405.591,749.496 405.591,749.496 " />
<polygon stroke="black" stroke-width="1" fill="rgb(204, 204, 204)" fill-opacity="1" points="405.591,749.496 405.591,749.496 405.591,749.496 405.591,749.496 " />
<polygon stroke="black" stroke-width="1" fill="rgb(204, 204, 204)" fill-opacity="1" points="395.945,715.781 395.945,632.073 70.777,530.562 70.777,641.042 " />
<polygon stroke="black" stroke-width="1" fill="rgb(204, 204, 204)" fill-opacity="1" points="405.591,749.496 405.591,749.496 405.591,749.496 405.591,749.496 " />
<polygon stroke="black" stroke-width="1" fill="rgb(204, 204, 204)" fill-opacity="1" points="405.591,749.496 405.591,749.496 405.591,749.496 405.591,749.496 " />
<polygon stroke="black" stroke-width="1" fill="rgb(204, 204, 204)" fill-opacity="1" points="49.874,132.093 47.883,114.296 36.116,114.296 40.083,132.093 " />
<polygon stroke="black" stroke-width="1" fill="rgb(204, 204, 204)" fill-opacity="1" points="407.714,632.073 405.259,614.276 58.944,507.366 61.411,530.562 " />
<polygon stroke="black" stroke-width="1" fill="rgb(204, 204, 204)" fill-opacity="1" points="405.591,749.496 405.591,749.496 405.591,749.496 405.591,749.496 " />
<polygon stroke="black" stroke-width="1" fill="rgb(204, 204, 204)" fill-opacity="1" points="405.591,749.496 405.591,749.496 405.591,749.496 405.591,749.496 " />
<polygon stroke="black" stroke-width="1" fill="rgb(204, 204, 204)" fill-opacity="1" points="405.591,749.496 405.591,749.496 405.591,749.496 405.591,749.496 " />
<polygon stroke="black" stroke-width="1" fill="rgb(204, 204, 204)" fill-opacity="1" points="405.591,749.496 405.591,749.496 405.591,749.496 405.591,749.496 " />
<polygon stroke="black" stroke-width="1" fill="rgb(204, 204, 204)" fill-opacity="1" points="405.591,749.496 405.591,749.496 405.591,749.496 405.591,749.496 " />
<polygon stroke="black" stroke-width="1" fill="rgb(204, 204, 204)" fill-opacity="1" points="405.591,749.496 405.591,749.496 405.591,749.496 405.591,749.496 " />
<polygon stroke="black" stroke-width="1" fill="rgb(204, 204, 204)" fill-opacity="1" points="405.591,749.496 405.591,749.496 405.591,749.496 405.591,749.496 " />
<polygon stroke="black" stroke-width="1" fill="rgb(204, 204, 204)" fill-opacity="1" points="311.486,132.093 311.486,114.296 47.883,114.296 49.874,132.093 " />
<polygon stroke="black" stroke-width="1" fill="rgb(204, 204, 204)" fill-opacity="1" points="405.591,749.496 405.591,749.496 405.591,749.496 405.591,749.496 " />
<polygon stroke="black" stroke-width="1" fill="rgb(204, 204, 204)" fill-opacity="1" points="311.486,215.802 311.486,132.093 59.325,132.093 59.325,215.802 " />
<polygon stroke="black" stroke-width="1" fill="rgb(204, 204, 204)" fill-opacity="1" points="405.591,749.496 405.591,749.496 405.591,749.496 405.591,749.496 " />
<polygon stroke="black" stroke-width="1" fill="rgb(204, 204, 204)" fill-opacity="1" points="405.591,749.496 405.591,749.496 405.591,749.496 405.591,749.496 " />
<polygon stroke="black" stroke-width="1" fill="rgb(204, 204, 204)" fill-opacity="1" points="405.591,749.496 405.591,749.496 405.591,749.496 405.591,749.496 " />
<polygon stroke="black" stroke-width="1" fill="rgb(204, 204, 204)" fill-opacity="1" points="405.591,749.496 405.591,749.496 405.591,749.496 405.591,749.496 " />
<polygon stroke="black" stroke-width="1" fill="rgb(204, 204, 204)" fill-opacity="1" points="405.591,749.496 405.591,749.496 405.591,749.496 405.591,749.496 " />
<polygon stroke="black" stroke-width="1" fill="rgb(204, 204, 204)" fill-opacity="1" points="405.591,749.496 405.591,749.496 405.591,749.496 405.591,749.496 " />
<polygon stroke="black" stroke-width="1" fill="rgb(204, 204, 204)" fill-opacity="1" points="405.591,749.496 405.591,749.496 405.591,749.496 405.591,749.496 " />
<polygon stroke="black" stroke-width="1" fill="rgb(204, 204, 204)" fill-opacity="1" points="405.591,749.496 405.591,749.496 405.591,749.496 405.591,749.496 " />
<polygon stroke="black" stroke-width="1" fill="rgb(204, 204, 204)" fill-opacity="1" points="405.591,749.496 405.591,749.496 405.591,749.496 405.591,749.496 " />
<polygon stroke="black" stroke-width="1" fill="rgb(204, 204, 204)" fill-opacity="1" points="405.591,749.496 405.591,749.496 405.591,749.496 405.591,749.496 " />
<polygon stroke="black" stroke-width="1" fill="rgb(204, 204, 204)" fill-opacity="1" points="405.591,749.496 405.591,749.496 405.591,749.496 405.591,749.496 " />
<polygon stroke="black" stroke-width="1" fill="rgb(204, 204, 204)" fill-opacity="1" points="405.591,749.496 405.591,749.496 405.591,749.496 405.591,749.496 " />
<polygon stroke="black" stroke-width="1" fill="rgb(204, 204, 204)" fill-opacity="1" points="405.591,749.496 405.591,749.496 405.591,749.496 405.591,749.496 " />
<polygon stroke="black" stroke-width="1" fill="rgb(204, 204, 204)" fill-opacity="1" points="405.591,749.496 405.591,749.496 405.591,749.496 405.591,749.496 " />
<polygon stroke="black" stroke-width="1" fill="rgb(204, 204, 204)" fill-opacity="1" points="405.591,749.496 405.591,749.496 405.591,749.496 405.591,749.496 " />
<polygon stroke="black" stroke-width="1" fill="rgb(204, 204, 204)" fill-opacity="1" points="405.591,749.496 405.591,749.496 405.591,749.496 405.591,749.496 " />
<polygon stroke="black" stroke-width="1" fill="rgb(204, 204, 204)" fill-opacity="1" points="405.591,749.496 405.591,749.496 405.591,749.496 405.591,749.496 " />
<polygon stroke="black" stroke-width="1" fill="rgb(204, 204, 204)" fill-opacity="1" points="395.945,632.073 395.945,715.781 401.964,715.781 401.964,632.073 " />
<polygon stroke="black" stroke-width="1" fill="rgb(204, 204, 204)" fill-opacity="1" points="59.325,221.392 59.325,215.802 48.068,215.802 48.068,221.392 " />
<polygon stroke="black" stroke-width="1" fill="rgb(204, 204, 204)" fill-opacity="1" points="405.591,749.496 405.591,749.496 405.591,749.496 405.591,749.496 " />
<polygon stroke="black" stroke-width="1" fill="rgb(204, 204, 204)" fill-opacity="1" points="395.945,721.372 395.945,715.781 70.777,641.042 70.777,648.900 " />
<polygon stroke="black" stroke-width="1" fill="rgb(204, 204, 204)" fill-opacity="1" points="311.486,221.392 311.486,215.802 59.325,215.802 59.325,221.392 " />
<polygon stroke="black" stroke-width="1" fill="rgb(204, 204, 204)" fill-opacity="1" points="405.591,749.496 405.591,749.496 405.591,749.496 405.591,749.496 " />
<polygon stroke="black" stroke-width="1" fill="rgb(204, 204, 204)" fill-opacity="1" points="395.945,787.657 395.945,794.046 401.965,794.046 401.965,787.657 " />
<polygon stroke="black" stroke-width="1" fill="rgb(204, 204, 204)" fill-opacity="1" points="405.591,749.496 405.591,749.496 405.591,749.496 405.591,749.496 " />
<polygon stroke="black" stroke-width="1" fill="rgb(204, 204, 204)" fill-opacity="1" points="59.325,302.088 59.325,294.066 48.068,294.066 48.068,302.088 " />
<polygon stroke="black" stroke-width="1" fill="rgb(204, 204, 204)" fill-opacity="1" points="405.591,749.496 405.591,749.496 405.591,749.496 405.591,749.496 " />
<polygon stroke="black" stroke-width="1" fill="rgb(204, 204, 204)" fill-opacity="1" points="395.945,802.068 395.945,794.046 70.777,751.057 70.777,762.987 " />
<polygon stroke="black" stroke-width="1" fill="rgb(204, 204, 204)" fill-opacity="1" points="311.486,302.088 311.486,294.066 59.325,294.066 59.325,302.088 " />
<polygon stroke="black" stroke-width="1" fill="rgb(204, 204, 204)" fill-opacity="1" points="405.591,749.496 405.591,749.496 405.591,749.496 405.591,749.496 " />
<polygon stroke="black" stroke-width="1" fill="rgb(204, 204, 204)" fill-opacity="1" points="405.591,749.496 405.591,749.496 405.591,749.496 405.591,749.496 " />
<polygon stroke="black" stroke-width="1" fill="rgb(204, 204, 204)" fill-opacity="1" points="59.325,227.381 59.325,221.392 48.068,221.392 48.068,227.381 " />
<polygon stroke="black" stroke-width="1" fill="rgb(204, 204, 204)" fill-opacity="1" points="405.591,749.496 405.591,749.496 405.591,749.496 405.591,749.496 " />
<polygon stroke="black" stroke-width="1" fill="rgb(204, 204, 204)" fill-opacity="1" points="395.945,727.361 395.945,721.372 70.777,648.900 70.777,657.320 " />
<polygon stroke="black" stroke-width="1" fill="rgb(204, 204, 204)" fill-opacity="1" points="311.486,227.381 311.486,221.392 59.325,221.392 59.325,227.381 " />
<polygon stroke="black" stroke-width="1" fill="rgb(204, 204, 204)" fill-opacity="1" points="405.591,749.496 405.591,749.496 405.591,749.496 405.591,749.496 " />
<polygon stroke="black" stroke-width="1" fill="rgb(204, 204, 204)" fill-opacity="1" points="395.945,715.781 395.945,721.372 401.964,721.372 401.964,715.781 " />
<polygon stroke="black" stroke-width="1" fill="rgb(204, 204, 204)" fill-opacity="1" points="395.945,727.361 395.945,787.657 401.965,787.657 401.964,727.361 " />
<polygon stroke="black" stroke-width="1" fill="rgb(204, 204, 204)" fill-opacity="1" points="405.591,749.496 405.591,749.496 405.591,749.496 405.591,749.496 " />
<polygon stroke="black" stroke-width="1" fill="rgb(204, 204, 204)" fill-opacity="1" points="59.325,294.066 59.325,287.677 48.068,287.677 48.068,294.066 " />
<polygon stroke="black" stroke-width="1" fill="rgb(204, 204, 204)" fill-opacity="1" points="405.591,749.496 405.591,749.496 405.591,749.496 405.591,749.496 " />
<polygon stroke="black" stroke-width="1" fill="rgb(204, 204, 204)" fill-opacity="1" points="395.945,794.046 395.945,787.657 70.777,742.076 70.777,751.057 " />
<polygon stroke="black" stroke-width="1" fill="rgb(204, 204, 204)" fill-opacity="1" points="311.486,294.066 311.486,287.677 59.325,287.677 59.325,294.066 " />
<polygon stroke="black" stroke-width="1" fill="rgb(204, 204, 204)" fill-opacity="1" points="405.591,749.496 405.591,749.496 405.591,749.496 405.591,749.496 " />
<polygon stroke="black" stroke-width="1" fill="rgb(204, 204, 204)" fill-opacity="1" points="395.945,794.046 395.945,802.068 401.965,802.068 401.965,794.046 " />
<polygon stroke="black" stroke-width="1" fill="rgb(204, 204, 204)" fill-opacity="1" points="405.591,749.496 405.591,749.496 405.591,749.496 405.591,749.496 " />
<polygon stroke="black" stroke-width="1" fill="rgb(204, 204, 204)" fill-opacity="1" points="59.325,382.312 59.325,302.088 48.068,302.088 48.068,382.312 " />
<polygon stroke="black" stroke-width="1" fill="rgb(204, 204, 204)" fill-opacity="1" points="405.591,749.496 405.591,749.496 405.591,749.496 405.591,749.496 " />
<polygon stroke="black" stroke-width="1" fill="rgb(204, 204, 204)" fill-opacity="1" points="395.945,882.291 395.945,802.068 70.777,762.987 70.777,882.291 " />
<polygon stroke="black" stroke-width="1" fill="rgb(204, 204, 204)" fill-opacity="1" points="311.486,382.312 311.486,302.088 59.325,302.088 59.325,382.312 " />
<polygon stroke="black" stroke-width="1" fill="rgb(204, 204, 204)" fill-opacity="1" points="405.591,749.496 405.591,749.496 405.591,749.496 405.591,749.496 " />
<polygon stroke="black" stroke-width="1" fill="rgb(204, 204, 204)" fill-opacity="1" points="405.591,749.496 405.591,749.496 405.591,749.496 405.591,749.496 " />
<polygon stroke="black" stroke-width="1" fill="rgb(204, 204, 204)" fill-opacity="1" points="405.591,749.496 405.591,749.496 405.591,749.496 405.591,749.496 " />
<polygon stroke="black" stroke-width="1" fill="rgb(204, 204, 204)" fill-opacity="1" points="405.591,749.496 405.591,749.496 405.591,749.496 405.591,749.496 " />
<polygon stroke="black" stroke-width="1" fill="rgb(204, 204, 204)" fill-opacity="1" points="405.591,749.496 405.591,749.496 405.591,749.496 405.591,749.496 " />
<polygon stroke="black" stroke-width="1" fill="rgb(204, 204, 204)" fill-opacity="1" points="405.591,749.496 405.591,749.496 405.591,749.496 405.591,749.496 " />
<polygon stroke="black" stroke-width="1" fill="rgb(204, 204, 204)" fill-opacity="1" points="405.591,749.496 405.591,749.496 405.591,749.496 405.591,749.496 " />
<polygon stroke="black" stroke-width="1" fill="rgb(204, 204, 204)" fill-opacity="1" points="59.325,287.677 59.325,227.381 48.068,227.381 48.068,287.677 " />
<polygon stroke="black" stroke-width="1" fill="rgb(204, 204, 204)" fill-opacity="1" points="405.591,749.496 405.591,749.496 405.591,749.496 405.591,749.496 " />
<polygon stroke="black" stroke-width="1" fill="rgb(204, 204, 204)" fill-opacity="1" points="395.945,787.657 395.945,727.361 70.777,657.320 70.777,742.076 " />
<polygon stroke="black" stroke-width="1" fill="rgb(204, 204, 204)" fill-opacity="1" points="311.486,287.677 311.486,227.381 59.325,227.381 59.325,287.677 " />
<polygon stroke="black" stroke-width="1" fill="rgb(204, 204, 204)" fill-opacity="1" points="405.591,749.496 405.591,749.496 405.591,749.496 405.591,749.496 " />
<polygon stroke="black" stroke-width="1" fill="rgb(204, 204, 204)" fill-opacity="1" points="395.945,721.372 395.945,727.361 401.964,727.361 401.964,721.372 " />
<polygon stroke="black" stroke-width="1" fill="rgb(204, 204, 204)" fill-opacity="1" points="405.591,749.496 405.591,749.496 405.591,749.496 405.591,749.496 " />
<polygon stroke="black" stroke-width="1" fill="rgb(204, 204, 204)" fill-opacity="1" points="405.591,749.496 405.591,749.496 405.591,749.496 405.591,749.496 " />
<polygon stroke="black" stroke-width="1" fill="rgb(204, 204, 204)" fill-opacity="1" points="405.591,749.496 405.591,749.496 405.591,749.496 405.591,749.496 " />
<polygon stroke="black" stroke-width="1" fill="rgb(204, 204, 204)" fill-opacity="1" points="405.591,749.496 405.591,749.496 405.591,749.496 405.591,749.496 " />
<polygon stroke="black" stroke-width="1" fill="rgb(204, 204, 204)" fill-opacity="1" points="405.591,749.496 405.591,749.496 405.591,749.496 405.591,749.496 " />
<polygon stroke="black" stroke-width="1" fill="rgb(204, 204, 204)" fill-opacity="1" points="405.591,749.496 405.591,749.496 405.591,749.496 405.591,749.496 " />
<polygon stroke="black" stroke-width="1" fill="rgb(204, 204, 204)" fill-opacity="1" points="405.591,749.496 405.591,749.496 405.591,749.496 405.591,749.496 " />
<polygon stroke="black" stroke-width="1" fill="rgb(204, 204, 204)" fill-opacity="1" points="405.591,749.496 405.591,749.496 405.591,749.496 405.591,749.496 " />
<polygon stroke="black" stroke-width="1" fill="rgb(204, 204, 204)" fill-opacity="1" points="405.591,749.496 405.591,749.496 405.591,749.496 405.591,749.496 " />
<polygon stroke="black" stroke-width="1" fill="rgb(204, 204, 204)" fill-opacity="1" points="405.591,749.496 405.591,749.496 405.591,749.496 405.591,749.496 " />
<polygon stroke="black" stroke-width="1" fill="rgb(204, 204, 204)" fill-opacity="1" points="405.591,749.496 405.591,749.496 405.591,749.496 405.591,749.496 " />
<polygon stroke="black" stroke-width="1" fill="rgb(204, 204, 204)" fill-opacity="1" points="405.591,749.496 405.591,749.496 405.591,749.496 405.591,749.496 " />
<polygon stroke="black" stroke-width="1" fill="rgb(204, 204, 204)" fill-opacity="1" points="395.945,802.068 401.965,802.068 401.965,882.291 395.945,882.291 " />
<polygon stroke="black" stroke-width="1" fill="rgb(204, 204, 204)" fill-opacity="1" points="405.591,749.496 405.591,749.496 405.591,749.496 405.591,749.496 " />
<polygon stroke="black" stroke-width="1" fill="rgb(204, 204, 204)" fill-opacity="1" points="405.591,749.496 405.591,749.496 405.591,749.496 405.591,749.496 " />
<polygon stroke="black" stroke-width="1" fill="rgb(204, 204, 204)" fill-opacity="1" points="59.325,215.802 48.068,215.802 49.874,132.093 59.325,132.093 " />
<polygon stroke="black" stroke-width="1" fill="rgb(204, 204, 204)" fill-opacity="1" points="405.591,749.496 405.591,749.496 405.591,749.496 405.591,749.496 " />
<polygon stroke="black" stroke-width="1" fill="rgb(204, 204, 204)" fill-opacity="1" points="405.591,749.496 405.591,749.496 405.591,749.496 405.591,749.496 " />
<polygon stroke="black" stroke-width="1" fill="rgb(204, 204, 204)" fill-opacity="1" points="405.591,749.496 405.591,749.496 405.591,749.496 405.591,749.496 " />
<polygon stroke="black" stroke-width="1" fill="rgb(204, 204, 204)" fill-opacity="1" points="405.591,749.496 405.591,749.496 405.591,749.496 405.591,749.496 " />
<polygon stroke="black" stroke-width="1" fill="rgb(204, 204, 204)" fill-opacity="1" points="405.591,749.496 405.591,749.496 405.591,749.496 405.591,749.496 " />
<polygon stroke="black" stroke-width="1" fill="rgb(204, 204, 204)" fill-opacity="1" points="405.591,749.496 405.591,749.496 405.591,749.496 405.591,749.496 " />
<polygon stroke="black" stroke-width="1" fill="rgb(204, 204, 204)" fill-opacity="1" points="395.945,715.781 70.777,641.042 70.777,530.562 395.945,632.073 " />
<polygon stroke="black" stroke-width="1" fill="rgb(204, 204, 204)" fill-opacity="1" points="405.591,749.496 405.591,749.496 405.591,749.496 405.591,749.496 " />
<polygon stroke="black" stroke-width="1" fill="rgb(204, 204, 204)" fill-opacity="1" points="405.591,749.496 405.591,749.496 405.591,749.496 405.591,749.496 " />
<polygon stroke="black" stroke-width="1" fill="rgb(204, 204, 204)" fill-opacity="1" points="49.874,132.093 40.083,132.093 36.116,114.296 47.883,114.296 " />
<polygon stroke="black" stroke-width="1" fill="rgb(204, 204, 204)" fill-opacity="1" points="407.714,632.073 61.411,530.562 58.944,507.366 405.259,614.276 " />
<polygon stroke="black" stroke-width="1" fill="rgb(204, 204, 204)" fill-opacity="1" points="405.591,749.496 405.591,749.496 405.591,749.496 405.591,749.496 " />
<polygon stroke="black" stroke-width="1" fill="rgb(204, 204, 204)" fill-opacity="1" points="405.591,749.496 405.591,749.496 405.591,749.496 405.591,749.496 " />
<polygon stroke="black" stroke-width="1" fill="rgb(204, 204, 204)" fill-opacity="1" points="405.591,749.496 405.591,749.496 405.591,749.496 405.591,749.496 " />
<polygon stroke="black" stroke-width="1" fill="rgb(204, 204, 204)" fill-opacity="1" points="405.591,749.496 405.591,749.496 405.591,749.496 405.591,749.496 " />
<polygon stroke="black" stroke-width="1" fill="rgb(204, 204, 204)" fill-opacity="1" points="405.591,749.496 405.591,749.496 405.591,749.496 405.591,749.496 " />
<polygon stroke="black" stroke-width="1" fill="rgb(204, 204, 204)" fill-opacity="1" points="405.591,749.496 405.591,749.496 405.591,749.496 405.591,749.496 " />
<polygon stroke="black" stroke-width="1" fill="rgb(204, 204, 204)" fill-opacity="1" points="405.591,749.496 405.591,749.496 405.591,749.496 405.591,749.496 " />
<polygon stroke="black" stroke-width="1" fill="rgb(204, 204, 204)" fill-opacity="1" points="311.486,132.093 49.874,132.093 47.883,114.296 311.486,114.296 " />
<polygon stroke="black" stroke-width="1" fill="rgb(204, 204, 204)" fill-opacity="1" points="405.591,749.496 405.591,749.496 405.591,749.496 405.591,749.496 " />
<polygon stroke="black" stroke-width="1" fill="rgb(204, 204, 204)" fill-opacity="1" points="311.486,215.802 59.325,215.802 59.325,132.093 311.486,132.093 " />
<polygon stroke="black" stroke-width="1" fill="rgb(204, 204, 204)" fill-opacity="1" points="405.591,749.496 405.591,749.496 405.591,749.496 405.591,749.496 " />
<polygon stroke="black" stroke-width="1" fill="rgb(204, 204, 204)" fill-opacity="1" points="405.591,749.496 405.591,749.496 405.591,749.496 405.591,749.496 " />
<polygon stroke="black" stroke-width="1" fill="rgb(204, 204, 204)" fill-opacity="1" points="405.591,749.496 405.591,749.496 405.591,749.496 405.591,749.496 " />
<polygon stroke="black" stroke-width="1" fill="rgb(204, 204, 204)" fill-opacity="1" points="405.591,749.496 405.591,749.496 405.591,749.496 405.591,749.496 " />
<polygon stroke="black" stroke-width="1" fill="rgb(204, 204, 204)" fill-opacity="1" points="405.591,749.496 405.591,749.496 405.591,749.496 405.591,749.496 " />
<polygon stroke="black" stroke-width="1" fill="rgb(204, 204, 204)" fill-opacity="1" points="405.591,749.496 405.591,749.496 405.591,749.496 405.591,749.496 " />
<polygon stroke="black" stroke-width="1" fill="rgb(204, 204, 204)" fill-opacity="1" points="405.591,749.496 405.591,749.496 405.591,749.496 405.591,749.496 " />
<polygon stroke="black" stroke-width="1" fill="rgb(204, 204, 204)" fill-opacity="1" points="405.591,749.496 405.591,749.496 405.591,749.496 405.591,749.496 " />
<polygon stroke="black" stroke-width="1" fill="rgb(204, 204, 204)" fill-opacity="1" points="405.591,749.496 405.591,749.496 405.591,749.496 405.591,749.496 " />
<polygon stroke="black" stroke-width="1" fill="rgb(204, 204, 204)" fill-opacity="1" points="405.591,749.496 405.591,749.496 405.591,749.496 405.591,749.496 " />
<polygon stroke="black" stroke-width="1" fill="rgb(204, 204, 204)" fill-opacity="1" points="405.591,749.496 405.591,749.496 405.591,749.496 405.591,749.496 " />
<polygon stroke="black" stroke-width="1" fill="rgb(204, 204, 204)" fill-opacity="1" points="405.591,749.496 405.591,749.496 405.591,749.496 405.591,749.496 " />
<polygon stroke="black" stroke-width="1" fill="rgb(204, 204, 204)" fill-opacity="1" points="405.591,749.496 405.591,749.496 405.591,749.496 405.591,749.496 " />
<polygon stroke="black" stroke-width="1" fill="rgb(204, 204, 204)" fill-opacity="1" points="405.591,749.496 405.591,749.496 405.591,749.496 405.591,749.496 " />
<polygon stroke="black" stroke-width="1" fill="rgb(204, 204, 204)" fill-opacity="1" points="405.591,749.496 405.591,749.496 405.591,749.496 405.591,749.496 " />
<polygon stroke="black" stroke-width="1" fill="rgb(204, 204, 204)" fill-opacity="1" points="405.591,749.496 405.591,749.496 405.591,749.496 405.591,749.496 " />
<polygon stroke="black" stroke-width="1" fill="rgb(204, 204, 204)" fill-opacity="1" points="405.591,749.496 405.591,749.496 405.591,749.496 405.591,749.496 " />
<polygon stroke="black" stroke-width="1" fill="rgb(204, 204, 204)" fill-opacity="1" points="395.945,632.073 401.964,632.073 401.964,715.781 395.945,715.781 " />
<polygon stroke="black" stroke-width="1" fill="rgb(204, 204, 204)" fill-opacity="1" points="59.325,221.392 48.068,221.392 48.068,215.802 59.325,215.802 " />
<polygon stroke="black" stroke-width="1" fill="rgb(204, 204, 204)" fill-opacity="1" points="405.591,749.496 405.591,749.496 405.591,749.496 405.591,749.496 " />
<polygon stroke="black" stroke-width="1" fill="rgb(204, 204, 204)" fill-opacity="1" points="395.945,721.372 70.777,648.900 70.777,641.042 395.945,715.781 " />
<polygon stroke="black" stroke-width="1" fill="rgb(204, 204, 204)" fill-opacity="1" points="311.486,221.392 59.325,221.392 59.325,215.802 311.486,215.802 " />
<polygon stroke="black" stroke-width="1" fill="rgb(204, 204, 204)" fill-opacity="1" points="405.591,749.496 405.591,749.496 405.591,749.496 405.591,749.496 " />
<polygon stroke="black" stroke-width="1" fill="rgb(204, 204, 204)" fill-opacity="1" points="395.945,787.657 401.965,787.657 401.965,794.046 395.945,794.046 " />
<polygon stroke="black" stroke-width="1" fill="rgb(204, 204, 204)" fill-opacity="1" points="405.591,749.496 405.591,749.496 405.591,749.496 405.591,749.496 " />
<polygon stroke="black" stroke-width="1" fill="rgb(204, 204, 204)" fill-opacity="1" points="59.325,302.088 48.068,302.088 48.068,294.066 59.325,294.066 " />
<polygon stroke="black" stroke-width="1" fill="rgb(204, 204, 204)" fill-opacity="1" points="405.591,749.496 405.591,749.496 405.591,749.496 405.591,749.496 " />
<polygon stroke="black" stroke-width="1" fill="rgb(204, 204, 204)" fill-opacity="1" points="395.945,802.068 70.777,762.987 70.777,751.057 395.945,794.046 " />
<polygon stroke="black" stroke-width="1" fill="rgb(204, 204, 204)" fill-opacity="1" points="311.486,302.088 59.325,302.088 59.325,294.066 311.486,294.066 " />
<polygon stroke="black" stroke-width="1" fill="rgb(204, 204, 204)" fill-opacity="1" points="405.591,749.496 405.591,749.496 405.591,749.496 405.591,749.496 " />
<polygon stroke="black" stroke-width="1" fill="rgb(204, 204, 204)" fill-opacity="1" points="405.591,749.496 405.591,749.496 405.591,749.496 405.591,749.496 " />
<polygon stroke="black" stroke-width="1" fill="rgb(204, 204, 204)" fill-opacity="1" points="59.325,227.381 48.068,227.381 48.068,221.392 59.325,221.392 " />
<polygon stroke="black" stroke-width="1" fill="rgb(204, 204, 204)" fill-opacity="1" points="405.591,749.496 405.591,749.496 405.591,749.496 405.591,749.496 " />
<polygon stroke="black" stroke-width="1" fill="rgb(204, 204, 204)" fill-opacity="1" points="395.945,727.361 70.777,657.320 70.777,648.900 395.945,721.372 " />
<polygon stroke="black" stroke-width="1" fill="rgb(204, 204, 204)" fill-opacity="1" points="311.486,227.381 59.325,227.381 59.325,221.392 311.486,221.392 " />
<polygon stroke="black" stroke-width="1" fill="rgb(204, 204, 204)" fill-opacity="1" points="405.591,749.496 405.591,749.496 405.591,749.496 405.591,749.496 " />
<polygon stroke="black" stroke-width="1" fill="rgb(204, 204, 204)" fill-opacity="1" points="395.945,715.781 401.964,715.781 401.964,721.372 395.945,721.372 " />
<polygon stroke="black" stroke-width="1" fill="rgb(204, 204, 204)" fill-opacity="1" points="395.945,727.361 401.964,727.361 401.965,787.657 395.945,787.657 " />
<polygon stroke="black" stroke-width="1" fill="rgb(204, 204, 204)" fill-opacity="1" points="405.591,749.496 405.591,749.496 405.591,749.496 405.591,749.496 " />
<polygon stroke="black" stroke-width="1" fill="rgb(204, 204, 204)" fill-opacity="1" points="59.325,294.066 48.068,294.066 48.068,287.677 59.325,287.677 " />
<polygon stroke="black" stroke-width="1" fill="rgb(204, 204, 204)" fill-opacity="1" points="405.591,749.496 405.591,749.496 405.591,749.496 405.591,749.496 " />
<polygon stroke="black" stroke-width="1" fill="rgb(204, 204, 204)" fill-opacity="1" points="395.945,794.046 70.777,751.057 70.777,742.076 395.945,787.657 " />
<polygon stroke="black" stroke-width="1" fill="rgb(204, 204, 204)" fill-opacity="1" points="311.486,294.066 59.325,294.066 59.325,287.677 311.486,287.677 " />
<polygon stroke="black" stroke-width="1" fill="rgb(204, 204, 204)" fill-opacity="1" points="405.591,749.496 405.591,749.496 405.591,749.496 405.591,749.496 " />
<polygon stroke="black" stroke-width="1" fill="rgb(204, 204, 204)" fill-opacity="1" points="395.945,794.046 401.965,794.046 401.965,802.068 395.945,802.068 " />
<polygon stroke="black" stroke-width="1" fill="rgb(204, 204, 204)" fill-opacity="1" points="405.591,749.496 405.591,749.496 405.591,749.496 405.591,749.496 " />
<polygon stroke="black" stroke-width="1" fill="rgb(204, 204, 204)" fill-opacity="1" points="59.325,382.312 48.068,382.312 48.068,302.088 59.325,302.088 " />
<polygon stroke="black" stroke-width="1" fill="rgb(204, 204, 204)" fill-opacity="1" points="405.591,749.496 405.591,749.496 405.591,749.496 405.591,749.496 " />
<polygon stroke="black" stroke-width="1" fill="rgb(204, 204, 204)" fill-opacity="1" points="395.945,882.291 70.777,882.291 70.777,762.987 395.945,802.068 " />
<polygon stroke="black" stroke-width="1" fill="rgb(204, 204, 204)" fill-opacity="1" points="311.486,382.312 59.325,382.312 59.325,302.088 311.486,302.088 " />
<polygon stroke="black" stroke-width="1" fill="rgb(204, 204, 204)" fill-opacity="1" points="405.591,749.496 405.591,749.496 405.591,749.496 405.591,749.496 " />
<polygon stroke="black" stroke-width="1" fill="rgb(204, 204, 204)" fill-opacity="1" points="405.591,749.496 405.591,749.496 405.591,749.496 405.591,749.496 " />
<polygon stroke="black" stroke-width="1" fill="rgb(204, 204, 204)" fill-opacity="1" points="405.591,749.496 405.591,749.496 405.591,749.496 405.591,749.496 " />
<polygon stroke="black" stroke-width="1" fill="rgb(204, 204, 204)" fill-opacity="1" points="405.591,749.496 405.591,749.496 405.591,749.496 405.591,749.496 " />
<polygon stroke="black" stroke-width="1" fill="rgb(204, 204, 204)" fill-opacity="1" points="405.591,749.496 405.591,749.496 405.591,749.496 405.591,749.496 " />
<polygon stroke="black" stroke-width="1" fill="rgb(204, 204, 204)" fill-opacity="1" points="405.591,749.496 405.591,749.496 405.591,749.496 405.591,749.496 " />
<polygon stroke="black" stroke-width="1" fill="rgb(204, 204, 204)" fill-opacity="1" points="405.591,749.496 405.591,749.496 405.591,749.496 405.591,749.496 " />
<polygon stroke="black" stroke-width="1" fill="rgb(204, 204, 204)" fill-opacity="1" points="59.325,287.677 48.068,287.677 48.068,227.381 59.325,227.381 " />
<polygon stroke="black" stroke-width="1" fill="rgb(204, 204, 204)" fill-opacity="1" points="405.591,749.496 405.591,749.496 405.591,749.496 405.591,749.496 " />
<polygon stroke="black" stroke-width="1" fill="rgb(204, 204, 204)" fill-opacity="1" points="395.945,787.657 70.777,742.076 70.777,657.320 395.945,727.361 " />
<polygon stroke="black" stroke-width="1" fill="rgb(204, 204, 204)" fill-opacity="1" points="311.486,287.677 59.325,287.677 59.325,227.381 311.486,227.381 " />
<polygon stroke="black" stroke-width="1" fill="rgb(204, 204, 204)" fill-opacity="1" points="405.591,749.496 405.591,749.496 405.591,749.496 405.591,749.496 " />
<polygon stroke="black" stroke-width="1" fill="rgb(204, 204, 204)" fill-opacity="1" points="395.945,721.372 401.964,721.372 401.964,727.361 395.945,727.361 " />
<polygon stroke="black" stroke-width="1" fill="rgb(204, 204, 204)" fill-opacity="1" points="591.373,743.433 591.373,894.509 701.492,894.509 701.492,743.433 " />
<polygon stroke="black" stroke-width="1" fill="rgb(204, 204, 204)" fill-opacity="1" points="771.403,911.937 841.598,911.937 857.666,896.607 755.335,833.710 " />
<polygon stroke="black" stroke-width="1" fill="rgb(204, 204, 204)" fill-opacity="1" points="771.403,1004.203 771.403,911.937 755.335,833.710 755.335,1004.203 " />
<polygon stroke="black" stroke-width="1" fill="rgb(204, 204, 204)" fill-opacity="1" points="591.373,649.004 591.373,743.433 701.492,743.433 701.492,649.004 " />
<polygon stroke="black" stroke-width="1" fill="rgb(204, 204, 204)" fill-opacity="1" points="841.598,911.937 841.598,1004.203 857.666,1004.203 857.666,896.607 " />
<polygon stroke="black" stroke-width="1" fill="rgb(204, 204, 204)" fill-opacity="1" points="591.373,894.509 591.373,988.938 701.492,988.938 701.492,894.509 " />
<polygon stroke="black" stroke-width="1" fill="rgb(204, 204, 204)" fill-opacity="1" points="496.409,588.067 496.409,588.067 496.409,588.067 496.409,588.067 " />
<polygon stroke="black" stroke-width="1" fill="rgb(204, 204, 204)" fill-opacity="1" points="750.537,695.018 973.360,695.018 973.360,632.120 750.537,632.120 " />
<polygon stroke="black" stroke-width="1" fill="rgb(204, 204, 204)" fill-opacity="1" points="750.537,695.018 750.537,802.616 973.360,802.616 973.360,695.018 " />
<polygon stroke="black" stroke-width="1" fill="rgb(204, 204, 204)" fill-opacity="1" points="591.373,743.433 701.492,743.433 701.492,894.509 591.373,894.509 " />
<polygon stroke="black" stroke-width="1" fill="rgb(204, 204, 204)" fill-opacity="1" points="771.403,911.937 755.335,833.710 857.666,896.607 841.598,911.937 " />
<polygon stroke="black" stroke-width="1" fill="rgb(204, 204, 204)" fill-opacity="1" points="771.403,1004.203 755.335,1004.203 755.335,833.710 771.403,911.937 " />
<polygon stroke="black" stroke-width="1" fill="rgb(204, 204, 204)" fill-opacity="1" points="591.373,649.004 701.492,649.004 701.492,743.433 591.373,743.433 " />
<polygon stroke="black" stroke-width="1" fill="rgb(204, 204, 204)" fill-opacity="1" points="841.598,911.937 857.666,896.607 857.666,1004.203 841.598,1004.203 " />
<polygon stroke="black" stroke-width="1" fill="rgb(204, 204, 204)" fill-opacity="1" points="591.373,894.509 701.492,894.509 701.492,988.938 591.373,988.938 " />
<polygon stroke="black" stroke-width="1" fill="rgb(204, 204, 204)" fill-opacity="1" points="496.409,588.067 496.409,588.067 496.409,588.067 496.409,588.067 " />
<polygon stroke="black" stroke-width="1" fill="rgb(204, 204, 204)" fill-opacity="1" points="750.537,695.018 750.537,632.120 973.360,632.120 973.360,695.018 " />
<polygon stroke="black" stroke-width="1" fill="rgb(204, 204, 204)" fill-opacity="1" points="750.537,695.018 973.360,695.018 973.360,802.616 750.537,802.616 " />
<polygon stroke="black" stroke-width="1" fill="rgb(204, 204, 204)" fill-opacity="1" points="591.373,743.433 701.492,743.433 701.492,894.509 591.373,894.509 " />
<polygon stroke="black" stroke-width="1" fill="rgb(204, 204, 204)" fill-opacity="1" points="771.403,911.937 755.335,833.710 857.666,896.607 841.598,911.937 " />
<polygon stroke="black" stroke-width="1" fill="rgb(204, 204, 204)" fill-opacity="1" points="771.403,1004.203 755.335,1004.203 755.335,833.710 771.403,911.937 " />
<polygon stroke="black" stroke-width="1" fill="rgb(204, 204, 204)" fill-opacity="1" points="591.373,649.004 701.492,649.004 701.492,743.433 591.373,743.433 " />
<polygon stroke="black" stroke-width="1" fill="rgb(204, 204, 204)" fill-opacity="1" points="841.598,911.937 857.666,896.607 857.666,1004.203 841.598,1004.203 " />
<polygon stroke="black" stroke-width="1" fill="rgb(204, 204, 204)" fill-opacity="1" points="591.373,894.509 701.492,894.509 701.492,988.938 591.373,988.938 " />
<polygon stroke="black" stroke-width="1" fill="rgb(204, 204, 204)" fill-opacity="1" points="496.409,588.067 496.409,588.067 496.409,588.067 496.409,588.067 " />
<polygon stroke="black" stroke-width="1" fill="rgb(204, 204, 204)" fill-opacity="1" points="750.537,695.018 750.537,632.120 973.360,632.120 973.360,695.018 " />
<polygon stroke="black" stroke-width="1" fill="rgb(204, 204, 204)" fill-opacity="1" points="750.537,695.018 973.360,695.018 973.360,802.616 750.537,802.616 " />
<polygon stroke="black" stroke-width="1" fill="rgb(204, 204, 204)" fill-opacity="1" points="591.373,743.433 591.373,894.509 701.492,894.509 701.492,743.433 " />
<polygon stroke="black" stroke-width="1" fill="rgb(204, 204, 204)" fill-opacity="1" points="771.403,911.937 841.598,911.937 857.666,896.607 755.335,833.710 " />
<polygon stroke="black" stroke-width="1" fill="rgb(204, 204, 204)" fill-opacity="1" points="771.403,1004.203 771.403,911.937 755.335,833.710 755.335,1004.203 " />
<polygon stroke="black" stroke-width="1" fill="rgb(204, 204, 204)" fill-opacity="1" points="591.373,649.004 591.373,743.433 701.492,743.433 701.492,649.004 " />
<polygon stroke="black" stroke-width="1" fill="rgb(204, 204, 204)" fill-opacity="1" points="841.598,911.937 841.598,1004.203 857.666,1004.203 857.666,896.607 " />
<polygon stroke="black" stroke-width="1" fill="rgb(204, 204, 204)" fill-opacity="1" points="591.373,894.509 591.373,988.938 701.492,988.938 701.492,894.509 " />
<polygon stroke="black" stroke-width="1" fill="rgb(204, 204, 204)" fill-opacity="1" points="496.409,588.067 496.409,588.067 496.409,588.067 496.409,588.067 " />
<polygon stroke="black" stroke-width="1" fill="rgb(204, 204, 204)" fill-opacity="1" points="750.537,695.018 973.360,695.018 973.360,632.120 750.537,632.120 " />
<polygon stroke="black" stroke-width="1" fill="rgb(204, 204, 204)" fill-opacity="1" points="750.537,695.018 750.537,802.616 973.360,802.616 973.360,695.018 " />
<polygon stroke="black" stroke-width="1" fill="rgb(204, 204, 204)" fill-opacity="1" points="591.373,743.433 701.492,743.433 701.492,894.509 591.373,894.509 " />
<polygon stroke="black" stroke-width="1" fill="rgb(204, 204, 204)" fill-opacity="1" points="771.403,911.937 755.335,833.710 857.666,896.607 841.598,911.937 " />
<polygon stroke="black" stroke-width="1" fill="rgb(204, 204, 204)" fill-opacity="1" points="771.403,1004.203 755.335,1004.203 755.335,833.710 771.403,911.937 " />
<polygon stroke="black" stroke-width="1" fill="rgb(204, 204, 204)" fill-opacity="1" points="591.373,649.004 701.492,649.004 701.492,743.433 591.373,743.433 " />
<polygon stroke="black" stroke-width="1" fill="rgb(204, 204, 204)" fill-opacity="1" points="841.598,911.937 857.666,896.607 857.666,1004.203 841.598,1004.203 " />
<polygon stroke="black" stroke-width="1" fill="rgb(204, 204, 204)" fill-opacity="1" points="591.373,894.509 701.492,894.509 701.492,988.938 591.373,988.938 " />
<polygon stroke="black" stroke-width="1" fill="rgb(204, 204, 204)" fill-opacity="1" points="496.409,588.067 496.409,588.067 496.409,588.067 496.409,588.067 " />
<polygon stroke="black" stroke-width="1" fill="rgb(204, 204, 204)" fill-opacity="1" points="750.537,695.018 750.537,632.120 973.360,632.120 973.360,695.018 " />
<polygon stroke="black" stroke-width="1" fill="rgb(204, 204, 204)" fill-opacity="1" points="750.537,695.018 973.360,695.018 973.360,802.616 750.537,802.616 " />
<polygon stroke="black" stroke-width="1" fill="rgb(204, 204, 204)" fill-opacity="1" points="591.373,743.433 591.373,894.509 701.492,894.509 701.492,743.433 " />
<polygon stroke="black" stroke-width="1" fill="rgb(204, 204, 204)" fill-opacity="1" points="771.403,911.937 841.598,911.937 857.666,896.607 755.335,833.710 " />
<polygon stroke="black" stroke-width="1" fill="rgb(204, 204, 204)" fill-opacity="1" points="771.403,1004.203 771.403,911.937 755.335,833.710 755.335,1004.203 " />
<polygon stroke="black" stroke-width="1" fill="rgb(204, 204, 204)" fill-opacity="1" points="591.373,649.004 591.373,743.433 701.492,743.433 701.492,649.004 " />
<polygon stroke="black" stroke-width="1" fill="rgb(204, 204, 204)" fill-opacity="1" points="841.598,911.937 841.598,1004.203 857.666,1004.203 857.666,896.607 " />
<polygon stroke="black" stroke-width="1" fill="rgb(204, 204, 204)" fill-opacity="1" points="591.373,894.509 591.373,988.938 701.492,988.938 701.492,894.509 " />
<polygon stroke="black" stroke-width="1" fill="rgb(204, 204, 204)" fill-opacity="1" points="496.409,588.067 496.409,588.067 496.409,588.067 496.409,588.067 " />
<polygon stroke="black" stroke-width="1" fill="rgb(204, 204, 204)" fill-opacity="1" points="750.537,695.018 973.360,695.018 973.360,632.120 750.537,632.120 " />
<polygon stroke="black" stroke-width="1" fill="rgb(204, 204, 204)" fill-opacity="1" points="750.537,695.018 750.537,802.616 973.360,802.616 973.360,695.018 " />
<polygon stroke="black" stroke-width="1" fill="rgb(204, 204, 204)" fill-opacity="1" points="591.373,743.433 591.373,894.509 701.492,894.509 701.492,743.433 " />
<polygon stroke="black" stroke-width="1" fill="rgb(204, 204, 204)" fill-opacity="1" points="771.403,911.937 841.598,911.937 857.666,896.607 755.335,833.710 " />
<polygon stroke="black" stroke-width="1" fill="rgb(204, 204, 204)" fill-opacity="1" points="771.403,1004.203 771.403,911.937 755.335,833.710 755.335,1004.203 " />
<polygon stroke="black" stroke-width="1" fill="rgb(204, 204, 204)" fill-opacity="1" points="591.373,649.004 591.373,743.433 701.492,743.433 701.492,649.004 " />
<polygon stroke="black" stroke-width="1" fill="rgb(204, 204, 204)" fill-opacity="1" points="841.598,911.937 841.598,1004.203 857.666,1004.203 857.666,896.607 " />
<polygon stroke="black" stroke-width="1" fill="rgb(204, 204, 204)" fill-opacity="1" points="591.373,894.509 591.373,988.938 701.492,988.938 701.492,894.509 " />
<polygon stroke="black" stroke-width="1" fill="rgb(204, 204, 204)" fill-opacity="1" points="496.409,588.067 496.409,588.067 496.409,588.067 496.409,588.067 " />
<polygon stroke="black" stroke-width="1" fill="rgb(204, 204, 204)" fill-opacity="1" points="750.537,695.018 973.360,695.018 973.360,632.120 750.537,632.120 " />
<polygon stroke="black" stroke-width="1" fill="rgb(204, 204, 204)" fill-opacity="1" points="750.537,695.018 750.537,802.616 973.360,802.616 973.360,695.018 " />
<polygon stroke="black" stroke-width="1" fill="rgb(204, 204, 204)" fill-opacity="1" points="591.373,743.433 701.492,743.433 701.492,894.509 591.373,894.509 " />
<polygon stroke="black" stroke-width="1" fill="rgb(204, 204, 204)" fill-opacity="1" points="771.403,911.937 755.335,833.710 857.666,896.607 841.598,911.937 " />
<polygon stroke="black" stroke-width="1" fill="rgb(204, 204, 204)" fill-opacity="1" points="771.403,1004.203 755.335,1004.203 755.335,833.710 771.403,911.937 " />
<polygon stroke="black" stroke-width="1" fill="rgb(204, 204, 204)" fill-opacity="1" points="591.373,649.004 701.492,649.004 701.492,743.433 591.373,743.433 " />
<polygon stroke="black" stroke-width="1" fill="rgb(204, 204, 204)" fill-opacity="1" points="841.598,911.937 857.666,896.607 857.666,1004.203 841.598,1004.203 " />
<polygon stroke="black" stroke-width="1" fill="rgb(204, 204, 204)" fill-opacity="1" points="591.373,894.509 701.492,894.509 701.492,988.938 591.373,988.938 " />
<polygon stroke="black" stroke-width="1" fill="rgb(204, 204, 204)" fill-opacity="1" points="496.409,588.067 496.409,588.067 496.409,588.067 496.409,588.067 " />
<polygon stroke="black" stroke-width="1" fill="rgb(204, 204, 204)" fill-opacity="1" points="750.537,695.018 750.537,632.120 973.360,632.120 973.360,695.018 " />
<polygon stroke="black" stroke-width="1" fill="rgb(204, 204, 204)" fill-opacity="1" points="750.537,695.018 973.360,695.018 973.360,802.616 750.537,802.616 " />
<polygon stroke="black" stroke-width="1" fill="rgb(204, 204, 204)" fill-opacity="1" points="728.366,301.733 992.730,301.733 992.730,37.369 728.366,37.369 " />
<polygon stroke="black" stroke-width="1" fill="rgb(204, 204, 204)" fill-opacity="1" points="728.366,301.733 992.730,301.733 992.730,37.369 728.366,37.369 " />
<polygon stroke="black" stroke-width="1" fill="rgb(204, 204, 204)" fill-opacity="1" points="728.366,301.733 992.730,301.733 992.730,37.369 728.366,37.369 " />
<polygon stroke="black" stroke-width="1" fill="rgb(204, 204, 204)" fill-opacity="1" points="728.366,301.733 992.730,301.733 992.730,37.369 728.366,37.369 " />
<polygon stroke="black" stroke-width="1" fill="rgb(204, 204, 204)" fill-opacity="1" points="728.366,301.733 992.730,301.733 992.730,37.369 728.366,37.369 " />
<polygon stroke="black" stroke-width="1" fill="rgb(204, 204, 204)" fill-opacity="1" points="728.366,301.733 992.730,301.733 992.730,37.369 728.366,37.369 " />
<polygon stroke="black" stroke-width="1" fill="rgb(204, 204, 204)" fill-opacity="1" points="572.210,338.514 963.742,339.242 996.365,324.645 592.522,324.645 " />
<polygon stroke="black" stroke-width="1" fill="rgb(204, 204, 204)" fill-opacity="1" points="963.742,339.242 572.210,338.514 572.210,354.167 963.742,354.163 " />
<polygon stroke="black" stroke-width="1" fill="rgb(204, 204, 204)" fill-opacity="1" points="963.742,339.242 963.742,354.163 996.365,354.158 996.365,324.645 " />
<polygon stroke="black" stroke-width="1" fill="rgb(204, 204, 204)" fill-opacity="1" points="572.210,338.514 592.522,324.645 996.365,324.645 963.742,339.242 " />
<polygon stroke="black" stroke-width="1" fill="rgb(204, 204, 204)" fill-opacity="1" points="963.742,339.242 963.742,354.163 572.210,354.167 572.210,338.514 " />
<polygon stroke="black" stroke-width="1" fill="rgb(204, 204, 204)" fill-opacity="1" points="963.742,339.242 996.365,324.645 996.365,354.158 963.742,354.163 " />
<polygon stroke="black" stroke-width="1" fill="rgb(204, 204, 204)" fill-opacity="1" points="572.210,338.514 592.522,324.645 996.365,324.645 963.742,339.242 " />
<polygon stroke="black" stroke-width="1" fill="rgb(204, 204, 204)" fill-opacity="1" points="963.742,339.242 963.742,354.163 572.210,354.167 572.210,338.514 " />
<polygon stroke="black" stroke-width="1" fill="rgb(204, 204, 204)" fill-opacity="1" points="963.742,339.242 996.365,324.645 996.365,354.158 963.742,354.163 " />
<polygon stroke="black" stroke-width="1" fill="rgb(204, 204, 204)" fill-opacity="1" points="572.210,338.514 963.742,339.242 996.365,324.645 592.522,324.645 " />
<polygon stroke="black" stroke-width="1" fill="rgb(204, 204, 204)" fill-opacity="1" points="963.742,339.242 572.210,338.514 572.210,354.167 963.742,354.163 " />
<polygon stroke="black" stroke-width="1" fill="rgb(204, 204, 204)" fill-opacity="1" points="963.742,339.242 963.742,354.163 996.365,354.158 996.365,324.645 " />

</svg>
