<?xml version="1.0" encoding="UTF-8" standalone="no"?>
<!-- Created with Inkscape (http://www.inkscape.org/) -->

<svg
   xmlns:dc="http://purl.org/dc/elements/1.1/"
   xmlns:cc="http://creativecommons.org/ns#"
   xmlns:rdf="http://www.w3.org/1999/02/22-rdf-syntax-ns#"
   xmlns:svg="http://www.w3.org/2000/svg"
   xmlns="http://www.w3.org/2000/svg"
   xmlns:sodipodi="http://sodipodi.sourceforge.net/DTD/sodipodi-0.dtd"
   xmlns:inkscape="http://www.inkscape.org/namespaces/inkscape"
   width="744.09448819"
   height="1052.3622047"
   id="svg4903"
   version="1.1"
   inkscape:version="0.48.4 r9939"
   sodipodi:docname="parts2.svg">
  <defs
     id="defs4905" />
  <sodipodi:namedview
     id="base"
     pagecolor="#ffffff"
     bordercolor="#666666"
     borderopacity="1.0"
     inkscape:pageopacity="0.0"
     inkscape:pageshadow="2"
     inkscape:zoom="2.8284271"
     inkscape:cx="367.6071"
     inkscape:cy="687.69708"
     inkscape:document-units="px"
     inkscape:current-layer="layer1"
     showgrid="false"
     inkscape:window-width="1918"
     inkscape:window-height="1078"
     inkscape:window-x="0"
     inkscape:window-y="0"
     inkscape:window-maximized="0" />
  <metadata
     id="metadata4908">
    <rdf:RDF>
      <cc:Work
         rdf:about="">
        <dc:format>image/svg+xml</dc:format>
        <dc:type
           rdf:resource="http://purl.org/dc/dcmitype/StillImage" />
        <dc:title />
      </cc:Work>
    </rdf:RDF>
  </metadata>
  <g
     inkscape:label="Layer 1"
     inkscape:groupmode="layer"
     id="layer1">
    <path
       sodipodi:nodetypes="ccccccccc"
       inkscape:connector-curvature="0"
       id="path3814-2-6"
       d="m 360.08213,801.6737 c -4.4632,29.65621 -6.11976,48.45109 -3.41612,77.97987 5.31166,20.19214 1.38522,27.54642 6.0635,40.30034 -20.43032,-2.21086 -48.98434,6.30798 -88.92462,7.65698 -6.6905,0.9334 -12.9558,-16.7954 -8.07824,-31.81846 10.78018,-9.98698 20.8469,-8.76104 32.59876,-11.51082 8.69324,-3.00674 12.29116,-6.04538 15.88438,-14.80708 1.213,-27.92414 -10.49862,-32.10256 -9.68708,-67.85799 z"
       style="fill:#191919;fill-opacity:1;stroke:#000000;stroke-width:3.3767786;stroke-linecap:butt;stroke-linejoin:miter;stroke-miterlimit:4;stroke-opacity:1;stroke-dasharray:none" />
    <g
       id="g4735"
       transform="matrix(1.1859341,-0.03060231,0.03040764,1.1783907,-176.95808,32.729229)">
      <g
         id="g4644"
         transform="matrix(0.14663851,0.00493528,-0.00493528,0.14663851,553.9025,102.06075)"
         style="stroke-width:17.03907967;stroke-miterlimit:4;stroke-dasharray:none"
         inkscape:export-filename="/home/john/TestEngine/res/img/stand.png"
         inkscape:export-xdpi="180"
         inkscape:export-ydpi="180">
        <path
           sodipodi:nodetypes="cccc"
           inkscape:connector-curvature="0"
           id="path4640"
           d="m 18.22885,365.42647 c 41.450181,-40.14631 94.95289,-43.22691 158.81344,-14.45358 -25.31279,23.59632 -44.11357,43.15104 -97.453424,44.74754 -19.332804,-2.32102 -36.036048,1.60977 -41.463189,-44.3512"
           style="fill:none;stroke:#000000;stroke-width:17.03907967;stroke-linecap:butt;stroke-linejoin:miter;stroke-miterlimit:4;stroke-opacity:1;stroke-dasharray:none" />
        <path
           sodipodi:nodetypes="cc"
           inkscape:connector-curvature="0"
           id="path4642"
           d="m 123.57143,334.50504 c 2.73917,24.704 -0.16328,40.94556 -5,54.28571"
           style="fill:none;stroke:#000000;stroke-width:17.03907967;stroke-linecap:butt;stroke-linejoin:miter;stroke-miterlimit:4;stroke-opacity:1;stroke-dasharray:none" />
      </g>
      <g
         id="g4760">
        <path
           style="fill:none;stroke:#000000;stroke-width:3.17111373;stroke-linecap:butt;stroke-linejoin:miter;stroke-miterlimit:4;stroke-opacity:1;stroke-dasharray:none"
           d="m 538.2537,104.65118 c -1.30442,1.75315 -1.35476,6.41883 -0.281,8.51456 2.00491,0.74126 4.01856,1.2729 6.12786,-0.492 1.60999,-2.3681 0.93494,-3.41564 0.29614,-6.30068 -3.38663,-1.11984 -4.46825,-0.86481 -6.143,-1.72188 z"
           id="path4756"
           inkscape:connector-curvature="0"
           sodipodi:nodetypes="ccccc"
           inkscape:export-filename="/home/john/TestEngine/res/img/stand.png"
           inkscape:export-xdpi="180"
           inkscape:export-ydpi="180" />
      </g>
      <g
         id="g4764"
         transform="matrix(-0.99908934,-0.0429403,-0.04239575,0.99908934,861.90065,17.113704)">
        <path
           inkscape:export-ydpi="180"
           inkscape:export-xdpi="180"
           inkscape:export-filename="/home/john/TestEngine/res/img/stand.png"
           sodipodi:nodetypes="ccccc"
           inkscape:connector-curvature="0"
           id="path4630-8"
           d="m 774.55143,237.80777 c -6.6426,23.32568 0.654,42.63423 8.61685,61.88257 -18.12307,-0.60995 -24.46157,12.58079 -54.10684,7.81931 7.26397,-9.6877 5.88966,-34.6948 3.8619,-43.97181 16.1611,-7.15492 31.49482,-13.1781 41.62809,-25.73007 z"
           style="fill:#ffffff;fill-opacity:1;stroke:#000000;stroke-width:2.50000000000000000;stroke-linecap:butt;stroke-linejoin:miter;stroke-miterlimit:4;stroke-opacity:1;stroke-dasharray:none"
           transform="matrix(-0.99908934,-0.0429403,-0.04239575,0.99908934,1167.4068,4.4987601)" />
        <path
           inkscape:export-ydpi="180"
           inkscape:export-xdpi="180"
           inkscape:export-filename="/home/john/TestEngine/res/img/stand.png"
           sodipodi:nodetypes="ccccc"
           inkscape:connector-curvature="0"
           id="path4768"
           d="m 282.94363,99.133155 c -1.34955,1.728985 -1.22077,6.066855 -0.0682,8.174765 2.11475,0.7709 4.23621,1.33276 6.43107,-0.39542 1.66328,-2.33782 0.81516,-3.07678 0.11014,-5.96549 -3.57061,-1.170175 -4.70377,-0.93256 -6.47306,-1.813855 z"
           style="fill:none;stroke:#000000;stroke-width:3.17111373;stroke-linecap:butt;stroke-linejoin:miter;stroke-miterlimit:4;stroke-opacity:1;stroke-dasharray:none" />
      </g>
    </g>
    <path
       sodipodi:nodetypes="ccccccccc"
       inkscape:connector-curvature="0"
       id="path5045"
       d="m 334.41953,320.54752 c -11.22548,-8.28358 -23.51473,1.89193 -33.2919,9.7881 -12.1011,45.61759 -9.09072,83.48496 -10.0748,93.9259 l -3.89123,67.3028 c 1.45939,23.4838 -6.34907,46.9676 -9.52362,70.4514 l 31.37345,7.08626 c 3.5e-4,-29.42421 7.28003,-57.2539 11.15624,-85.82912 5.27996,-23.91573 4.16919,-48.92723 4.62576,-73.66999 -4.03357,-31.63545 18.87891,-59.13479 9.6261,-89.05535 z"
       style="fill:#252525;fill-opacity:1;stroke:#000000;stroke-width:2.72952318;stroke-linecap:butt;stroke-linejoin:miter;stroke-miterlimit:4;stroke-opacity:1;stroke-dasharray:none" />
    <path
       inkscape:connector-curvature="0"
       id="path4628"
       d="m 576.69284,624.87322 -0.0212,6.46426 32.51329,7.7714 0.27521,-5.71871 z"
       style="fill:#000000;fill-opacity:1;stroke:#000000;stroke-width:3.01124668;stroke-linecap:butt;stroke-linejoin:miter;stroke-miterlimit:4;stroke-opacity:1;stroke-dasharray:none" />
    <g
       transform="matrix(1.7502655,0,0,1.9418589,-666.1668,-756.65268)"
       id="g4564">
      <path
         style="fill:#505050;fill-opacity:1;stroke:#000000;stroke-width:2.5;stroke-linecap:butt;stroke-linejoin:miter;stroke-miterlimit:4;stroke-opacity:1;stroke-dasharray:none"
         d="m 558.28185,680.06355 -2.86498,130.16988 c -4.58037,0.86005 -2.83374,18.14867 -3.77788,27.223 l 49.57143,0 c 6.00304,1.23265 1.48503,-32.00191 -3.98207,-29.4038 l -5.37507,-127.98908 c -10.13038,4.29977 -20.32653,8.33276 -33.57143,0 z"
         id="path4566"
         inkscape:connector-curvature="0"
         sodipodi:nodetypes="ccccccc" />
      <path
         style="fill:none;stroke:#000000;stroke-width:1px;stroke-linecap:butt;stroke-linejoin:miter;stroke-opacity:1"
         d="m 580.58811,680.75166 c -6.29923,48.0371 -4.20682,106.67847 -3.73483,155.56187"
         id="path4568"
         inkscape:connector-curvature="0"
         sodipodi:nodetypes="cc" />
      <path
         style="fill:none;stroke:#000000;stroke-width:2.5;stroke-linecap:butt;stroke-linejoin:miter;stroke-miterlimit:4;stroke-opacity:1;stroke-dasharray:none"
         d="m 555.43385,810.43443 c 28.16152,6.46171 30.78765,0.15573 41.42858,-2.14286"
         id="path4572"
         inkscape:connector-curvature="0"
         sodipodi:nodetypes="cc" />
    </g>
    <path
       sodipodi:nodetypes="cccccccccc"
       inkscape:connector-curvature="0"
       id="path4630"
       d="m 578.50903,629.73679 c -2.50378,6.04873 -2.6918,12.01376 -4.6411,18.54632 1.60545,1.59533 2.79217,-0.22597 3.92882,-2.45585 0.8302,5.10358 -0.44931,10.72076 5.44859,14.59067 1.21745,2.13542 1.69945,5.06879 4.78323,5.17932 2.55416,-0.26253 4.90365,0.54654 5.79341,-1.17965 1.80386,-0.0675 3.33042,-3.70624 4.96623,-5.93796 l 6.36052,-6.50806 4.79235,-19.96725 z"
       style="fill:#b2b2b2;fill-opacity:1;stroke:#000000;stroke-width:3.01124668;stroke-linecap:butt;stroke-linejoin:miter;stroke-miterlimit:4;stroke-opacity:1;stroke-dasharray:none" />
    <path
       style="fill:#c1c1c1;fill-opacity:1;stroke:#000000;stroke-width:3.125;stroke-linecap:butt;stroke-linejoin:miter;stroke-miterlimit:4;stroke-opacity:1;stroke-dasharray:none"
       d="m 368.9249,339.17769 c -12.75552,13.90808 -39.05033,10.05946 -48.3858,-1.34698 l -13.43731,233.79811 c 23.07309,8.51432 47.82536,8.63273 72.16044,10.83706 z"
       id="path4185"
       inkscape:connector-curvature="0"
       sodipodi:nodetypes="ccccc" />
    <path
       inkscape:export-ydpi="180"
       inkscape:export-xdpi="180"
       inkscape:export-filename="/home/john/TestEngine/res/img/stand.png"
       sodipodi:nodetypes="ccccc"
       inkscape:connector-curvature="0"
       id="path4897"
       d="m 309.54974,392.22604 c -11.91353,16.17176 21.15333,61.0195 26.8315,67.04702 7.53169,-8.19325 37.99853,-35.15432 37.16726,-58.42551 -4.37697,-23.52424 -28.33554,-14.92993 -33.13804,-4.03229 -2.26049,-7.72976 -18.94719,-20.76097 -30.86072,-4.58922 z"
       style="fill:#ff1541;fill-opacity:1;stroke:#000000;stroke-width:1.66768312;stroke-linecap:butt;stroke-linejoin:miter;stroke-miterlimit:4;stroke-opacity:1;stroke-dasharray:none" />
    <path
       style="fill:#252525;fill-opacity:1;stroke:#000000;stroke-width:3.125;stroke-linecap:butt;stroke-linejoin:miter;stroke-miterlimit:4;stroke-opacity:1;stroke-dasharray:none"
       d="m 316.39696,326.57109 3.03046,9.59645 -8.58629,9.09137 c 2.02625,19.25507 -11.33223,35.36203 -7.72811,52.01417 7.96813,36.81525 1.71979,73.41578 0.15196,110.62039 l -5.55584,102.02541 -14.68782,69.70052 24.82996,-7.07106 c 7.17584,-90.76283 4.51579,-185.69421 13.59645,-271.73103 l 7.07107,-16.16245 13.97947,-51.06075 4.08235,-13.11424 -7.20268,-21.1829 z"
       id="path4105"
       inkscape:connector-curvature="0"
       sodipodi:nodetypes="cccscccccccccc" />
    <path
       inkscape:connector-curvature="0"
       id="path4632"
       d="m 586.54058,638.85433 -2.41435,21.11846"
       style="fill:#b2b2b2;fill-opacity:1;stroke:#000000;stroke-width:3.01124668;stroke-linecap:butt;stroke-linejoin:miter;stroke-miterlimit:4;stroke-opacity:1;stroke-dasharray:none" />
    <path
       inkscape:connector-curvature="0"
       id="path4634"
       d="m 595.40384,640.15691 -4.23281,22.54155"
       style="fill:#b2b2b2;fill-opacity:1;stroke:#000000;stroke-width:3.01124668;stroke-linecap:butt;stroke-linejoin:miter;stroke-miterlimit:4;stroke-opacity:1;stroke-dasharray:none" />
    <path
       style="fill:#191919;fill-opacity:1;stroke:#000000;stroke-width:3.63772178;stroke-linecap:butt;stroke-linejoin:miter;stroke-miterlimit:4;stroke-opacity:1;stroke-dasharray:none"
       d="m 423.69263,808.8086 c -4.8081,31.94791 -6.59266,52.19519 -3.68012,84.00582 5.72216,21.75249 1.49227,29.67512 6.5321,43.41459 -22.00912,-2.38171 -52.76969,6.79543 -95.79637,8.24868 -7.2075,1.00555 -13.95695,-18.0933 -8.70249,-34.27726 11.61323,-10.75873 22.45785,-9.43804 35.11786,-12.40032 9.36504,-3.23909 13.24096,-6.51253 17.11188,-15.95133 1.3067,-30.08199 -11.30992,-34.58331 -10.43568,-73.10179 z"
       id="path4638"
       inkscape:connector-curvature="0"
       sodipodi:nodetypes="ccccccccc" />
    <g
       id="g4558"
       transform="matrix(1.511743,0,0,1.9418589,-478.24176,-745.60191)">
      <path
         sodipodi:nodetypes="ccccccc"
         inkscape:connector-curvature="0"
         id="path3895"
         d="m 558.28185,680.06355 -2.86498,130.16988 c -4.58037,0.86005 -2.83374,18.14867 -3.77788,27.223 l 49.57143,0 c 6.00304,1.23265 1.48503,-32.00191 -3.98207,-29.4038 l -5.37507,-127.98908 z"
         style="fill:#505050;fill-opacity:1;stroke:#000000;stroke-width:2.5;stroke-linecap:butt;stroke-linejoin:miter;stroke-miterlimit:4;stroke-opacity:1;stroke-dasharray:none" />
      <path
         sodipodi:nodetypes="cc"
         inkscape:connector-curvature="0"
         id="path3901"
         d="m 577.21042,689.88493 c -6.29923,48.0371 -0.82913,97.5452 -0.35714,146.4286"
         style="fill:none;stroke:#000000;stroke-width:1px;stroke-linecap:butt;stroke-linejoin:miter;stroke-opacity:1" />
      <path
         sodipodi:nodetypes="ccccc"
         inkscape:connector-curvature="0"
         id="path3899"
         d="m 558.28185,690.95643 20.35714,24.2857 -5.71428,11.0714 -14.64286,-23.6428 z"
         style="fill:#505050;fill-opacity:1;stroke:#000000;stroke-width:1px;stroke-linecap:butt;stroke-linejoin:miter;stroke-opacity:1" />
      <path
         sodipodi:nodetypes="cc"
         inkscape:connector-curvature="0"
         id="path5368"
         d="m 555.43385,810.43443 c 28.16152,6.46171 30.78765,0.15573 41.42858,-2.14286"
         style="fill:none;stroke:#000000;stroke-width:2.5;stroke-linecap:butt;stroke-linejoin:miter;stroke-miterlimit:4;stroke-opacity:1;stroke-dasharray:none" />
    </g>
    <path
       style="fill:none;stroke:#000000;stroke-width:3.125;stroke-linecap:butt;stroke-linejoin:miter;stroke-miterlimit:4;stroke-opacity:1;stroke-dasharray:none"
       d="m 345.22963,320.0051 c -3.03045,1.01015 -23.41653,10.22376 -23.41653,10.22376 8.04173,19.64736 1.02236,44.41739 -0.15615,68.82941"
       id="path4187"
       inkscape:connector-curvature="0"
       sodipodi:nodetypes="ccc" />
    <path
       style="fill:none;stroke:#000000;stroke-width:1.02536762px;stroke-linecap:butt;stroke-linejoin:miter;stroke-opacity:1"
       d="m 310.53403,346.20861 14.36285,-2.47343"
       id="path4770"
       inkscape:connector-curvature="0"
       sodipodi:nodetypes="cc" />
    <path
       style="fill:none;stroke:#000000;stroke-width:1.02536762px;stroke-linecap:butt;stroke-linejoin:miter;stroke-opacity:1"
       d="m 320.19632,335.76522 2.61142,-0.54964"
       id="path4772"
       inkscape:connector-curvature="0"
       sodipodi:nodetypes="cc" />
    <path
       style="fill:none;stroke:#000000;stroke-width:1.02536762px;stroke-linecap:butt;stroke-linejoin:miter;stroke-opacity:1"
       d="m 317.32375,326.14632 5.48399,2.19862"
       id="path4774"
       inkscape:connector-curvature="0"
       sodipodi:nodetypes="cc" />
    <g
       id="g5096"
       transform="translate(300,0)">
      <path
         style="fill:#252525;fill-opacity:1;stroke:#000000;stroke-width:2.72952318;stroke-linecap:butt;stroke-linejoin:miter;stroke-miterlimit:4;stroke-opacity:1;stroke-dasharray:none"
         d="m 432.27667,314.83323 c -11.22548,-8.28358 -21.51473,-6.10807 -31.2919,1.7881 -12.1011,45.61759 -0.37643,94.34211 -1.36051,104.78305 l 3.53734,66.15994 c 1.45939,23.4838 -6.34907,46.9676 -9.52362,70.4514 l 35.37345,11.08626 c 3.5e-4,-29.42421 7.28003,-57.2539 11.15624,-85.82912 5.27996,-23.91573 4.16919,-48.92723 4.62576,-73.66999 -4.03357,-31.63545 -3.26395,-64.84908 -12.51676,-94.76964 z"
         id="path5098"
         inkscape:connector-curvature="0"
         sodipodi:nodetypes="ccccccccc" />
      <path
         style="fill:#000000;fill-opacity:1;stroke:#000000;stroke-width:3.01124668;stroke-linecap:butt;stroke-linejoin:miter;stroke-miterlimit:4;stroke-opacity:1;stroke-dasharray:none"
         d="m 392.23396,556.95859 0.66307,6.4302 33.15315,4.2868 -0.33153,-5.71573 z"
         id="path5100"
         inkscape:connector-curvature="0" />
      <path
         style="fill:#b2b2b2;fill-opacity:1;stroke:#000000;stroke-width:3.01124668;stroke-linecap:butt;stroke-linejoin:miter;stroke-miterlimit:4;stroke-opacity:1;stroke-dasharray:none"
         d="m 394.55468,561.60263 c -1.84957,6.27975 -1.40524,12.23118 -2.65224,18.93335 1.76527,1.41645 2.75257,-0.52021 3.64684,-2.85786 1.36567,4.98706 0.68778,10.70811 6.96216,13.93209 1.43661,1.99459 2.22634,4.86047 5.30451,4.64402 2.51203,-0.53137 4.93395,0.0245 5.63603,-1.78616 1.78658,-0.25803 2.91948,-4.0379 4.30991,-6.4302 l 5.63604,-7.14466 2.65225,-20.36229 z"
         id="path5102"
         inkscape:connector-curvature="0"
         sodipodi:nodetypes="cccccccccc" />
      <path
         style="fill:#b2b2b2;fill-opacity:1;stroke:#000000;stroke-width:3.01124668;stroke-linecap:butt;stroke-linejoin:miter;stroke-miterlimit:4;stroke-opacity:1;stroke-dasharray:none"
         d="m 403.50604,569.81898 -0.16577,21.25537"
         id="path5104"
         inkscape:connector-curvature="0" />
      <path
         style="fill:#b2b2b2;fill-opacity:1;stroke:#000000;stroke-width:3.01124668;stroke-linecap:butt;stroke-linejoin:miter;stroke-miterlimit:4;stroke-opacity:1;stroke-dasharray:none"
         d="m 412.45739,570.17622 -1.82342,22.86292"
         id="path5106"
         inkscape:connector-curvature="0" />
      <path
         style="fill:#b2b2b2;fill-opacity:1;stroke:#000000;stroke-width:3.01124668;stroke-linecap:butt;stroke-linejoin:miter;stroke-miterlimit:4;stroke-opacity:1;stroke-dasharray:none"
         d="m 418.25919,570.35484 -0.99459,16.43272"
         id="path5108"
         inkscape:connector-curvature="0" />
    </g>
    <g
       transform="translate(230,0)"
       id="g5110">
      <path
         sodipodi:nodetypes="ccccccc"
         inkscape:connector-curvature="0"
         id="path5112"
         d="m 382.27667,314.83323 c -11.22548,-8.28358 -21.51473,-6.10807 -31.2919,1.7881 -12.1011,45.61759 -0.37643,99.39287 -1.36051,109.83381 l 0.29076,39.98714 c 5.7451,5.26951 40.67673,14.71239 40.67673,14.71239 7.10552,-21.27035 4.99511,-61.09475 4.20168,-71.5518 -4.03357,-31.63545 -3.26395,-64.84908 -12.51676,-94.76964 z"
         style="fill:#252525;fill-opacity:1;stroke:#000000;stroke-width:2.72952318;stroke-linecap:butt;stroke-linejoin:miter;stroke-miterlimit:4;stroke-opacity:1;stroke-dasharray:none" />
      <path
         inkscape:connector-curvature="0"
         id="path5114"
         d="m 392.23396,556.95859 0.66307,6.4302 33.15315,4.2868 -0.33153,-5.71573 z"
         style="fill:#000000;fill-opacity:1;stroke:#000000;stroke-width:3.01124668;stroke-linecap:butt;stroke-linejoin:miter;stroke-miterlimit:4;stroke-opacity:1;stroke-dasharray:none" />
      <path
         sodipodi:nodetypes="cccccccccc"
         inkscape:connector-curvature="0"
         id="path5116"
         d="m 394.55468,561.60263 c -1.84957,6.27975 -1.40524,12.23118 -2.65224,18.93335 1.76527,1.41645 2.75257,-0.52021 3.64684,-2.85786 1.36567,4.98706 0.68778,10.70811 6.96216,13.93209 1.43661,1.99459 2.22634,4.86047 5.30451,4.64402 2.51203,-0.53137 4.93395,0.0245 5.63603,-1.78616 1.78658,-0.25803 2.91948,-4.0379 4.30991,-6.4302 l 5.63604,-7.14466 2.65225,-20.36229 z"
         style="fill:#b2b2b2;fill-opacity:1;stroke:#000000;stroke-width:3.01124668;stroke-linecap:butt;stroke-linejoin:miter;stroke-miterlimit:4;stroke-opacity:1;stroke-dasharray:none" />
      <path
         inkscape:connector-curvature="0"
         id="path5118"
         d="m 403.50604,569.81898 -0.16577,21.25537"
         style="fill:#b2b2b2;fill-opacity:1;stroke:#000000;stroke-width:3.01124668;stroke-linecap:butt;stroke-linejoin:miter;stroke-miterlimit:4;stroke-opacity:1;stroke-dasharray:none" />
      <path
         inkscape:connector-curvature="0"
         id="path5120"
         d="m 412.45739,570.17622 -1.82342,22.86292"
         style="fill:#b2b2b2;fill-opacity:1;stroke:#000000;stroke-width:3.01124668;stroke-linecap:butt;stroke-linejoin:miter;stroke-miterlimit:4;stroke-opacity:1;stroke-dasharray:none" />
      <path
         inkscape:connector-curvature="0"
         id="path5122"
         d="m 418.25919,570.35484 -0.99459,16.43272"
         style="fill:#b2b2b2;fill-opacity:1;stroke:#000000;stroke-width:3.01124668;stroke-linecap:butt;stroke-linejoin:miter;stroke-miterlimit:4;stroke-opacity:1;stroke-dasharray:none" />
    </g>
    <g
       transform="translate(216.21703,-9.0913729)"
       id="g5138">
      <path
         inkscape:connector-curvature="0"
         id="path5142"
         d="m 392.23396,556.95859 0.66307,6.4302 33.15315,4.2868 -0.33153,-5.71573 z"
         style="fill:#000000;fill-opacity:1;stroke:#000000;stroke-width:3.01124668;stroke-linecap:butt;stroke-linejoin:miter;stroke-miterlimit:4;stroke-opacity:1;stroke-dasharray:none" />
      <path
         sodipodi:nodetypes="cccccccccc"
         inkscape:connector-curvature="0"
         id="path5144"
         d="m 394.55468,561.60263 c -1.84957,6.27975 -1.40524,12.23118 -2.65224,18.93335 1.76527,1.41645 2.75257,-0.52021 3.64684,-2.85786 1.36567,4.98706 0.68778,10.70811 6.96216,13.93209 1.43661,1.99459 2.22634,4.86047 5.30451,4.64402 2.51203,-0.53137 4.93395,0.0245 5.63603,-1.78616 1.78658,-0.25803 2.91948,-4.0379 4.30991,-6.4302 l 5.63604,-7.14466 2.65225,-20.36229 z"
         style="fill:#b2b2b2;fill-opacity:1;stroke:#000000;stroke-width:3.01124668;stroke-linecap:butt;stroke-linejoin:miter;stroke-miterlimit:4;stroke-opacity:1;stroke-dasharray:none" />
      <path
         inkscape:connector-curvature="0"
         id="path5146"
         d="m 403.50604,569.81898 -0.16577,21.25537"
         style="fill:#b2b2b2;fill-opacity:1;stroke:#000000;stroke-width:3.01124668;stroke-linecap:butt;stroke-linejoin:miter;stroke-miterlimit:4;stroke-opacity:1;stroke-dasharray:none" />
      <path
         sodipodi:nodetypes="ccccc"
         inkscape:connector-curvature="0"
         id="path5140"
         d="m 460.11532,437.66584 c 7.53895,62.70554 -3.27641,96.88493 -6.47734,120.34988 l 35.37345,11.08626 c 1.5729,-28.42361 10.42342,-65.85902 15.82234,-116.97163 -20.24704,-1.63396 -32.5566,-8.54982 -44.71845,-14.46451 z"
         style="fill:#252525;fill-opacity:0.33175354;stroke:#000000;stroke-width:2.72952318;stroke-linecap:butt;stroke-linejoin:miter;stroke-miterlimit:4;stroke-opacity:1;stroke-dasharray:none" />
      <path
         inkscape:connector-curvature="0"
         id="path5148"
         d="m 412.45739,570.17622 -1.82342,22.86292"
         style="fill:#b2b2b2;fill-opacity:1;stroke:#000000;stroke-width:3.01124668;stroke-linecap:butt;stroke-linejoin:miter;stroke-miterlimit:4;stroke-opacity:1;stroke-dasharray:none" />
      <path
         inkscape:connector-curvature="0"
         id="path5150"
         d="m 418.25919,570.35484 -0.99459,16.43272"
         style="fill:#b2b2b2;fill-opacity:1;stroke:#000000;stroke-width:3.01124668;stroke-linecap:butt;stroke-linejoin:miter;stroke-miterlimit:4;stroke-opacity:1;stroke-dasharray:none" />
    </g>
    <path
       style="fill:#252525;stroke:#000000;stroke-width:2.50000000000000000;stroke-linecap:butt;stroke-linejoin:miter;stroke-miterlimit:4;stroke-opacity:1;stroke-dasharray:none;fill-opacity:1"
       d="m 594.97985,444.25035 c -6.06348,3.3796 -11.92186,10.68387 -15.15228,22.22336 l -5.55585,90.91373 34.85027,9.59644 15.65736,-113.13708"
       id="path5660"
       inkscape:connector-curvature="0"
       sodipodi:nodetypes="ccccc" />
    <g
       id="g6173"
       transform="matrix(1,0,0,0.97131797,0,10.566626)">
      <g
         transform="matrix(-1.1861598,-0.02002601,-0.01989862,1.178615,481.57683,2.233994)"
         id="g5034">
        <path
           transform="matrix(-0.99908934,-0.0429403,-0.04239575,0.99908934,861.8413,19.912153)"
           style="fill:#ffffff;fill-opacity:1;stroke:#000000;stroke-width:2.5;stroke-linecap:butt;stroke-linejoin:miter;stroke-miterlimit:4;stroke-opacity:1;stroke-dasharray:none"
           d="m 786.98677,175.90962 c 19.51282,13.42398 14.91902,78.76006 15.14087,127.72442 -2.74388,5.72046 -5.23188,15.4518 -3.74765,21.31458 -5.12416,-10.16164 -17.15806,-11.13683 -18.88679,-25.78515 3.65166,-28.0732 11.73259,-89.68131 -5.56089,-109.11354 z"
           id="path4116"
           inkscape:connector-curvature="0"
           sodipodi:nodetypes="cccccc"
           inkscape:export-filename="/home/john/TestEngine/res/img/stand.png"
           inkscape:export-xdpi="180"
           inkscape:export-ydpi="180" />
      </g>
      <path
         style="fill:#ffffff;fill-opacity:1;stroke:#000000;stroke-width:2.73181486;stroke-linecap:butt;stroke-linejoin:miter;stroke-miterlimit:4;stroke-opacity:1;stroke-dasharray:none"
         d="m 311.35143,266.92665 c 13.73058,31.14277 16.15011,40.65536 25.48733,42.78389 6.26655,1.4677 35.88387,-12.87547 41.62486,-25.0538 13.41334,-20.83642 9.3184,-50.12677 12.49715,-72.47079 -26.98734,-25.45883 -52.66827,-19.76344 -78.03698,-6.62289 -6.78077,10.22025 -7.70978,45.36471 -1.57236,61.36359 z"
         id="path4794"
         inkscape:connector-curvature="0"
         sodipodi:nodetypes="cccccc"
         inkscape:export-filename="/home/john/TestEngine/res/img/stand.png"
         inkscape:export-xdpi="180"
         inkscape:export-ydpi="180" />
      <path
         style="fill:none;stroke:#000000;stroke-width:2.81080484;stroke-linecap:butt;stroke-linejoin:miter;stroke-miterlimit:4;stroke-opacity:1;stroke-dasharray:none"
         d="m 335.39156,244.07253 c -0.33475,6.59802 -1.68139,13.10462 -6.07427,19.33597 2.66982,5.50217 5.92877,3.15034 8.95939,3.84277"
         id="path4638-7"
         inkscape:connector-curvature="0"
         sodipodi:nodetypes="ccc"
         inkscape:export-filename="/home/john/TestEngine/res/img/stand.png"
         inkscape:export-xdpi="180"
         inkscape:export-ydpi="180" />
      <path
         style="fill:none;stroke:#000000;stroke-width:2.81080484;stroke-linecap:butt;stroke-linejoin:miter;stroke-miterlimit:4;stroke-opacity:1;stroke-dasharray:none"
         d="m 325.82453,287.00418 c 4.77802,-4.15469 19.33164,-1.79617 23.48394,0.56199"
         id="path4652"
         inkscape:connector-curvature="0"
         sodipodi:nodetypes="cc"
         inkscape:export-filename="/home/john/TestEngine/res/img/stand.png"
         inkscape:export-xdpi="180"
         inkscape:export-ydpi="180" />
      <path
         style="fill:none;stroke:#000000;stroke-width:1.40540242;stroke-linecap:butt;stroke-linejoin:miter;stroke-miterlimit:4;stroke-opacity:1;stroke-dasharray:none"
         d="m 342.29872,297.65302 c -4.21637,1.67203 -9.35185,1.01041 -12.7194,-0.0229"
         id="path4654"
         inkscape:connector-curvature="0"
         sodipodi:nodetypes="cc"
         inkscape:export-filename="/home/john/TestEngine/res/img/stand.png"
         inkscape:export-xdpi="180"
         inkscape:export-ydpi="180" />
      <path
         style="fill:#ffffff;fill-opacity:1;stroke:#000000;stroke-width:2.76571298;stroke-linecap:butt;stroke-linejoin:miter;stroke-miterlimit:4;stroke-opacity:1;stroke-dasharray:none"
         d="m 355.09243,170.55991 c -21.14395,4.71971 -44.68982,6.23942 -53.09028,27.93662 -0.92182,4.50049 -3.05268,23.46928 -3.03185,35.94653 3.70077,-8.62207 13.81117,-21.17888 16.12528,-25.18058 20.05784,0.62364 19.12296,0.45917 36.58004,-10.31764 7.79034,10.35541 9.07242,21.3288 21.76336,25.82268 4.73077,15.4144 21.74054,18.61311 15.92622,31.30954 22.17374,-9.37298 19.19422,-27.39477 11.21736,-59.33267 -11.6261,-17.4403 -20.53238,-22.68162 -45.49013,-26.18448 z"
         id="path4114"
         inkscape:connector-curvature="0"
         sodipodi:nodetypes="ccccccccc"
         inkscape:export-filename="/home/john/TestEngine/res/img/stand.png"
         inkscape:export-xdpi="180"
         inkscape:export-ydpi="180" />
      <path
         inkscape:export-ydpi="180"
         inkscape:export-xdpi="180"
         inkscape:export-filename="/home/john/TestEngine/res/img/stand.png"
         sodipodi:nodetypes="ccccc"
         inkscape:connector-curvature="0"
         id="path4648"
         d="m 309.90129,230.11551 c 7.43415,-3.19321 13.26983,1.20202 19.39217,4.80297 0.25311,1.80334 0.36822,3.5566 -0.47524,4.962 -4.87287,2.37291 -12.21819,2.74546 -15.53997,-0.78689 -1.42422,-2.26388 -0.78677,-7.46228 1.74053,-10.29865"
         style="fill:none;stroke:#000000;stroke-width:2.6512692;stroke-linecap:butt;stroke-linejoin:miter;stroke-miterlimit:4;stroke-opacity:1;stroke-dasharray:none" />
      <path
         style="fill:none;stroke:#000000;stroke-width:2.99179244;stroke-linecap:butt;stroke-linejoin:miter;stroke-miterlimit:4;stroke-opacity:1;stroke-dasharray:none"
         d="m 367.98102,231.82778 c -9.07622,-3.89233 -16.68285,0.044 -24.59264,3.15057 -0.44255,1.80448 -0.70895,3.57046 0.24798,5.06874 5.92965,2.83485 15.09171,3.86187 19.49351,0.57719 1.93965,-2.16746 1.50527,-7.49003 -1.458,-10.58694"
         id="path4766"
         inkscape:connector-curvature="0"
         sodipodi:nodetypes="ccccc"
         inkscape:export-filename="/home/john/TestEngine/res/img/stand.png"
         inkscape:export-xdpi="180"
         inkscape:export-ydpi="180" />
      <path
         sodipodi:nodetypes="cc"
         inkscape:connector-curvature="0"
         id="path6151"
         d="m 400.68517,248.46652 c 2.18973,17.14654 -0.1236,34.29307 -0.24456,51.43961"
         style="fill:none;stroke:#000000;stroke-width:0.95784831px;stroke-linecap:butt;stroke-linejoin:miter;stroke-opacity:1" />
      <path
         sodipodi:nodetypes="cc"
         inkscape:connector-curvature="0"
         id="path6153"
         d="m 404.10903,241.52815 c 3.30821,20.35909 2.3279,39.61047 3.17931,59.33499"
         style="fill:none;stroke:#000000;stroke-width:0.95784831px;stroke-linecap:butt;stroke-linejoin:miter;stroke-opacity:1" />
      <path
         sodipodi:nodetypes="cc"
         inkscape:connector-curvature="0"
         id="path6155"
         d="m 407.25887,236.86439 c 3.34556,21.46551 3.68848,43.27571 5.16527,64.95576"
         style="fill:none;stroke:#000000;stroke-width:0.95784831px;stroke-linecap:butt;stroke-linejoin:miter;stroke-opacity:1" />
      <path
         sodipodi:nodetypes="ccc"
         inkscape:connector-curvature="0"
         id="path6157"
         d="m 300.6027,209.08876 c 13.00416,-20.513 27.46107,-30.21768 54.30037,-29.77535 33.62149,-1.18467 33.9058,31.12135 50.84177,46.01645"
         style="fill:none;stroke:#000000;stroke-width:0.95784831px;stroke-linecap:butt;stroke-linejoin:miter;stroke-opacity:1" />
      <path
         style="fill:none;stroke:#000000;stroke-width:0.95784831px;stroke-linecap:butt;stroke-linejoin:miter;stroke-opacity:1"
         d="m 300.6027,220.45752 c 13.00416,-20.51299 27.46107,-30.21767 54.30037,-29.77534 33.62149,-1.18467 33.9058,31.12135 50.84177,46.01645"
         id="path6159"
         inkscape:connector-curvature="0"
         sodipodi:nodetypes="ccc" />
      <path
         sodipodi:nodetypes="ccc"
         inkscape:connector-curvature="0"
         id="path6161"
         d="m 400.68517,248.46652 c -13.31739,-16.46475 -20.11807,-48.76671 -50.62425,-57.89946 -11.13515,6.42761 -22.67343,12.50812 -35.18588,17.7499"
         style="fill:none;stroke:#000000;stroke-width:0.95784831px;stroke-linecap:butt;stroke-linejoin:miter;stroke-opacity:1" />
      <path
         inkscape:connector-curvature="0"
         id="path6163"
         d="m 317.59352,230.0426 -2.05484,10.54554 8.53547,0.34017 0,-8.16428 z"
         style="fill:#000000;fill-opacity:1;stroke:#000000;stroke-width:0.91821313px;stroke-linecap:butt;stroke-linejoin:miter;stroke-opacity:1" />
      <path
         sodipodi:nodetypes="ccccc"
         style="fill:#000000;fill-opacity:1;stroke:#000000;stroke-width:1.00451279px;stroke-linecap:butt;stroke-linejoin:miter;stroke-opacity:1"
         d="m 356.37237,230.2562 2.47923,11.53963 -10.29835,-0.38199 0,-8.45816 z"
         id="path6165"
         inkscape:connector-curvature="0" />
      <path
         sodipodi:nodetypes="cc"
         inkscape:connector-curvature="0"
         id="path6167"
         d="m 312.19351,222.53835 c 7.85374,1.67337 13.07542,4.50623 18.42723,6.94237"
         style="fill:none;stroke:#000000;stroke-width:1.76857889;stroke-linecap:butt;stroke-linejoin:miter;stroke-miterlimit:4;stroke-opacity:1;stroke-dasharray:none" />
      <path
         sodipodi:nodetypes="cc"
         inkscape:connector-curvature="0"
         id="path6169"
         d="m 342.17848,228.87241 c 4.88213,-2.77616 14.11054,-4.82805 22.14822,-5.80263"
         style="fill:none;stroke:#000000;stroke-width:1.82981837;stroke-linecap:butt;stroke-linejoin:miter;stroke-miterlimit:4;stroke-opacity:1;stroke-dasharray:none" />
    </g>
    <path
       style="fill:#252525;fill-opacity:1;stroke:#000000;stroke-width:3.01124668;stroke-linecap:butt;stroke-linejoin:miter;stroke-miterlimit:4;stroke-opacity:1;stroke-dasharray:none"
       d="m 388.67834,300.74602 -9.73055,3.04826 c -14.20264,29.78257 -26.71922,59.67755 -26.35109,90.4315 2.96885,56.92957 3.07805,121.65609 -4.84259,183.38903 l -11.7214,106.09281 12.19026,-1.0104 72.67274,15.66132 25.7871,-14.14571 -4.68857,-105.58762 -5.15741,-94.97834 2.34428,-150.55076 4.2197,-10.60928 c 1.81417,-9.17207 -5.66472,-9.5338 -12.31484,-17.7654 -17.92444,-1.78037 -30.18672,-7.89857 -42.40763,-3.97541 z"
       id="path4103"
       inkscape:connector-curvature="0"
       sodipodi:nodetypes="cccccccccccccc" />
    <path
       style="fill:none;stroke:#000000;stroke-width:3.01124668;stroke-linecap:butt;stroke-linejoin:miter;stroke-miterlimit:4;stroke-opacity:1;stroke-dasharray:none"
       d="m 337.90813,677.13997 7.97056,0 77.3613,15.15612 22.97397,-13.1353"
       id="path4191"
       inkscape:connector-curvature="0" />
    <path
       style="fill:none;stroke:#000000;stroke-width:2.4089973;stroke-linecap:butt;stroke-linejoin:miter;stroke-miterlimit:4;stroke-opacity:1;stroke-dasharray:none"
       d="m 370.25922,409.3819 c 0,4.54683 -0.93771,62.14008 -0.93771,62.14008 l -9.84599,-2.02082 2.81314,-62.64528 z"
       id="path4109"
       inkscape:connector-curvature="0" />
    <path
       style="fill:none;stroke:#000000;stroke-width:2.04764771;stroke-linecap:butt;stroke-linejoin:miter;stroke-miterlimit:4;stroke-opacity:1;stroke-dasharray:none"
       d="m 389.95119,321.47642 -15.0034,50.01519 -5.15742,39.4059"
       id="path4111"
       inkscape:connector-curvature="0" />
    <path
       style="fill:none;stroke:#000000;stroke-width:2.04764771;stroke-linecap:butt;stroke-linejoin:miter;stroke-miterlimit:4;stroke-opacity:1;stroke-dasharray:none"
       d="M 388.54462,379.57487 364.63294,684.71804"
       id="path4115"
       inkscape:connector-curvature="0" />
    <path
       style="fill:#252525;fill-opacity:1;stroke:#000000;stroke-width:2.4089973;stroke-linecap:butt;stroke-linejoin:miter;stroke-miterlimit:4;stroke-opacity:1;stroke-dasharray:none"
       d="m 376.35436,481.62605 -9.37714,4.04164 -5.62627,14.65092 23.91168,36.87987 13.59683,4.04165 4.2197,-9.09368 z"
       id="path4107"
       inkscape:connector-curvature="0" />
    <path
       style="fill:none;stroke:#000000;stroke-width:2.04764771;stroke-linecap:butt;stroke-linejoin:miter;stroke-miterlimit:4;stroke-opacity:1;stroke-dasharray:none"
       d="m 419.02029,389.67894 4.2197,305.64838"
       id="path4117"
       inkscape:connector-curvature="0" />
    <path
       style="fill:none;stroke:#000000;stroke-width:3.01124668;stroke-linecap:butt;stroke-linejoin:miter;stroke-miterlimit:4;stroke-opacity:1;stroke-dasharray:none"
       d="m 376.69587,309.33664 5.8964,19.77825 -29.50747,69.311"
       id="path4189"
       inkscape:connector-curvature="0"
       sodipodi:nodetypes="ccc" />
    <g
       id="g5088">
      <path
         style="fill:#000000;fill-opacity:1;stroke:#000000;stroke-width:1px;stroke-linecap:butt;stroke-linejoin:miter;stroke-opacity:1"
         d="m 424.97118,563.92818 -3.71231,16.61701 -27.22362,-10.07628 3.53554,-13.78858 z"
         id="path6213"
         inkscape:connector-curvature="0"
         sodipodi:nodetypes="ccccc" />
      <path
         sodipodi:nodetypes="ccccccccc"
         inkscape:connector-curvature="0"
         id="path4047-5"
         d="m 432.27667,314.83323 c -11.22548,-8.28358 -21.51473,-6.10807 -31.2919,1.7881 -12.1011,45.61759 -0.37643,94.34211 -1.36051,104.78305 l 3.53734,66.15994 c 1.45939,23.4838 -6.34907,46.9676 -9.52362,70.4514 l 35.37345,11.08626 c 3.5e-4,-29.42421 7.28003,-57.2539 11.15624,-85.82912 5.27996,-23.91573 4.16919,-48.92723 4.62576,-73.66999 -4.03357,-31.63545 -3.26395,-64.84908 -12.51676,-94.76964 z"
         style="fill:#252525;fill-opacity:1;stroke:#000000;stroke-width:2.72952318;stroke-linecap:butt;stroke-linejoin:miter;stroke-miterlimit:4;stroke-opacity:1;stroke-dasharray:none" />
      <path
         inkscape:connector-curvature="0"
         id="path4049-0"
         d="m 688.5117,618.47688 0.66307,6.4302 33.15315,4.2868 -0.33153,-5.71573 z"
         style="fill:#000000;fill-opacity:1;stroke:#000000;stroke-width:3.01124668;stroke-linecap:butt;stroke-linejoin:miter;stroke-miterlimit:4;stroke-opacity:1;stroke-dasharray:none" />
      <path
         sodipodi:nodetypes="cccccccccc"
         inkscape:connector-curvature="0"
         id="path4051-3"
         d="m 690.83242,623.12092 c -1.84957,6.27975 -1.40524,12.23118 -2.65224,18.93335 1.76527,1.41645 2.75257,-0.52021 3.64684,-2.85786 1.36567,4.98706 0.68778,10.70811 6.96216,13.93209 1.43661,1.99459 2.22634,4.86047 5.30451,4.64402 2.51203,-0.53137 4.93395,0.0245 5.63603,-1.78616 1.78658,-0.25803 2.91948,-4.0379 4.30991,-6.4302 l 5.63604,-7.14466 2.65225,-20.36229 z"
         style="fill:#b2b2b2;fill-opacity:1;stroke:#000000;stroke-width:3.01124668;stroke-linecap:butt;stroke-linejoin:miter;stroke-miterlimit:4;stroke-opacity:1;stroke-dasharray:none" />
      <path
         inkscape:connector-curvature="0"
         id="path4053-0"
         d="m 606.44569,616.48803 -0.16577,21.25537"
         style="fill:#b2b2b2;fill-opacity:1;stroke:#000000;stroke-width:3.01124668;stroke-linecap:butt;stroke-linejoin:miter;stroke-miterlimit:4;stroke-opacity:1;stroke-dasharray:none" />
      <path
         inkscape:connector-curvature="0"
         id="path4055-3"
         d="m 615.39704,616.84527 -1.82342,22.86292"
         style="fill:#b2b2b2;fill-opacity:1;stroke:#000000;stroke-width:3.01124668;stroke-linecap:butt;stroke-linejoin:miter;stroke-miterlimit:4;stroke-opacity:1;stroke-dasharray:none" />
      <path
         inkscape:connector-curvature="0"
         id="path4057-4"
         d="m 621.19884,617.02389 -0.99459,16.43272"
         style="fill:#b2b2b2;fill-opacity:1;stroke:#000000;stroke-width:3.01124668;stroke-linecap:butt;stroke-linejoin:miter;stroke-miterlimit:4;stroke-opacity:1;stroke-dasharray:none" />
      <g
         id="g6225">
        <path
           sodipodi:nodetypes="ccccscccccc"
           inkscape:connector-curvature="0"
           id="path6215"
           d="m 395.72921,570.08142 -9.19114,11.66882 c -2.54031,9.98007 -6.6625,21.36035 -3.8071,23.8002 3.61858,-0.81833 4.32028,-4.96102 6.30781,-7.63826 -0.10602,1.49175 0.48876,3.14867 0.37997,4.63549 -0.49497,6.76354 -1.82299,13.13551 -3.55687,17.78105 1.83533,2.96531 2.81576,7.18327 6.3308,7.68721 6.61152,0.91555 10.88603,-2.96312 16.299,-4.50631 6.83614,-7.74446 7.84752,-17.85979 11.4213,-26.93213 l -0.34089,-19.20011 z"
           style="fill:#ffffff;fill-opacity:1;stroke:#000000;stroke-width:2.38082147;stroke-linecap:butt;stroke-linejoin:miter;stroke-miterlimit:4;stroke-opacity:1;stroke-dasharray:none" />
        <path
           sodipodi:nodetypes="cc"
           inkscape:connector-curvature="0"
           id="path6217"
           d="m 390.79144,626.70905 5.19702,-25.96024"
           style="fill:none;stroke:#000000;stroke-width:1.11038303;stroke-linecap:butt;stroke-linejoin:miter;stroke-miterlimit:4;stroke-opacity:1;stroke-dasharray:none" />
        <path
           sodipodi:nodetypes="cc"
           inkscape:connector-curvature="0"
           id="path6219"
           d="m 395.71401,627.41652 5.19704,-27.52682"
           style="fill:none;stroke:#000000;stroke-width:1.11038303;stroke-linecap:butt;stroke-linejoin:miter;stroke-miterlimit:4;stroke-opacity:1;stroke-dasharray:none" />
        <path
           sodipodi:nodetypes="cc"
           inkscape:connector-curvature="0"
           id="path6221"
           d="m 400.65279,626.85703 4.99279,-25.17697"
           style="fill:none;stroke:#000000;stroke-width:1.11038303;stroke-linecap:butt;stroke-linejoin:miter;stroke-miterlimit:4;stroke-opacity:1;stroke-dasharray:none" />
        <path
           sodipodi:nodetypes="cc"
           inkscape:connector-curvature="0"
           id="path6223"
           d="m 405.98991,624.17149 5.25103,-21.82004"
           style="fill:none;stroke:#000000;stroke-width:1.11038303;stroke-linecap:butt;stroke-linejoin:miter;stroke-miterlimit:4;stroke-opacity:1;stroke-dasharray:none" />
      </g>
    </g>
    <path
       style="fill:#8f8f8f;fill-opacity:1;stroke:#000000;stroke-width:1.91411066px;stroke-linecap:butt;stroke-linejoin:miter;stroke-opacity:1"
       d="m 374.26979,504.73861 c -0.20202,1.28579 12.84807,20.00966 12.84807,20.00966 l 4.38491,-2.17317 -13.63696,-20.33813 z"
       id="path3850-7"
       inkscape:connector-curvature="0" />
    <path
       style="fill:none;stroke:#000000;stroke-width:3;stroke-linecap:butt;stroke-linejoin:miter;stroke-opacity:1;stroke-miterlimit:4;stroke-dasharray:none"
       d="m 285.25,673.36218 23,-5.75"
       id="path6194"
       inkscape:connector-curvature="0"
       sodipodi:nodetypes="cc" />
  </g>
</svg>
